# Blender 5.2.0 LTS
# www.blender.org
mtllib lower_emitter.mtl
o lower_emitter
v 0.723 -6.900 0.513
v 0.287 -6.900 0.829
v -0.252 -6.900 0.829
v -0.688 -6.900 0.513
v -0.854 -6.900 -0.000
v -0.688 -6.900 -0.513
v -0.252 -6.900 -0.829
v 0.287 -6.900 -0.829
v 0.723 -6.900 -0.513
v 0.890 -6.900 -0.000
v 0.723 -9.499 0.513
v 0.287 -9.499 0.829
v -0.252 -9.499 0.829
v -0.688 -9.499 0.513
v -0.854 -9.499 0.000
v -0.688 -9.499 -0.513
v -0.252 -9.499 -0.829
v 0.287 -9.499 -0.829
v 0.723 -9.499 -0.513
v 0.890 -9.499 0.000
v 0.619 -9.695 0.437
v 0.247 -9.695 0.706
v -0.212 -9.695 0.706
v -0.583 -9.695 0.437
v -0.725 -9.695 0.000
v -0.583 -9.695 -0.437
v -0.212 -9.695 -0.706
v 0.247 -9.695 -0.706
v 0.619 -9.695 -0.437
v 0.760 -9.695 0.000
v 0.763 -6.717 -0.000
v 0.621 -6.717 0.438
v 0.621 -6.717 -0.438
v 0.248 -6.717 -0.709
v -0.213 -6.717 -0.709
v -0.586 -6.717 -0.438
v -0.728 -6.717 -0.000
v -0.586 -6.717 0.438
v -0.213 -6.717 0.709
v 0.248 -6.717 0.709
v 0.785 -8.200 0.558
v 0.967 -8.200 -0.000
v 0.785 -8.200 -0.558
v 0.311 -8.200 -0.903
v -0.276 -8.200 -0.903
v -0.750 -8.200 -0.558
v -0.931 -8.200 -0.000
v -0.750 -8.200 0.558
v -0.276 -8.200 0.903
v 0.311 -8.200 0.903
v 0.619 -9.830 0.437
v 0.247 -9.830 0.706
v -0.212 -9.830 0.706
v -0.583 -9.830 0.437
v -0.725 -9.830 0.000
v -0.583 -9.830 -0.437
v -0.212 -9.830 -0.706
v 0.247 -9.830 -0.706
v 0.619 -9.830 -0.437
v 0.760 -9.830 0.000
v -0.637 -9.922 0.476
v -0.232 -9.922 0.769
v -0.213 -9.826 0.711
v -0.587 -9.826 0.439
v -0.637 -10.045 0.476
v -0.232 -10.045 0.769
v -0.791 -9.922 0.000
v -0.729 -9.826 0.000
v -0.791 -10.045 0.000
v 0.268 -9.922 0.769
v 0.249 -9.826 0.711
v 0.268 -10.045 0.769
v -0.637 -9.922 -0.476
v -0.587 -9.826 -0.439
v -0.637 -10.045 -0.476
v -0.307 -10.045 0.236
v -0.307 -10.178 0.236
v -0.106 -10.178 0.382
v -0.106 -10.045 0.382
v -0.383 -10.045 0.000
v -0.383 -10.178 0.000
v 0.672 -9.922 0.476
v 0.622 -9.826 0.439
v 0.142 -10.178 0.382
v 0.142 -10.045 0.382
v 0.672 -10.045 0.476
v -0.307 -10.045 -0.236
v -0.307 -10.178 -0.236
v 0.342 -10.178 0.236
v 0.342 -10.045 0.236
v -0.232 -9.922 -0.769
v -0.213 -9.826 -0.711
v -0.232 -10.045 -0.769
v -0.106 -10.045 -0.382
v -0.106 -10.178 -0.382
v 0.827 -9.922 0.000
v 0.765 -9.826 0.000
v 0.419 -10.178 0.000
v 0.419 -10.045 0.000
v 0.827 -10.045 0.000
v 0.142 -10.045 -0.382
v 0.142 -10.178 -0.382
v 0.342 -10.178 -0.236
v 0.342 -10.045 -0.236
v 0.268 -9.922 -0.769
v 0.249 -9.826 -0.711
v 0.268 -10.045 -0.769
v 0.672 -9.922 -0.476
v 0.622 -9.826 -0.439
v 0.672 -10.045 -0.476
vn 0.5869 0.0563 0.8077
vn 0.5878 -0.0000 0.8090
vn -0.0000 0.0563 0.9984
vn -0.0000 -0.0000 1.0000
vn -0.5869 0.0563 0.8077
vn -0.5878 -0.0000 0.8090
vn -0.9495 0.0563 0.3085
vn -0.9511 -0.0000 0.3090
vn -0.9495 0.0563 -0.3085
vn -0.9511 -0.0000 -0.3090
vn -0.5869 0.0563 -0.8077
vn -0.5878 -0.0000 -0.8090
vn -0.0000 0.0563 -0.9984
vn -0.0000 -0.0000 -1.0000
vn 0.5869 0.0563 -0.8077
vn 0.5878 -0.0000 -0.8090
vn 0.9495 0.0563 -0.3085
vn 0.9511 -0.0000 -0.3090
vn 0.9495 0.0563 0.3085
vn 0.9511 -0.0000 0.3090
vn -0.0000 1.0000 -0.0000
vn -0.0000 -1.0000 -0.0000
vn 0.4980 -0.5312 0.6855
vn -0.0000 -0.5312 0.8473
vn -0.4980 -0.5312 0.6855
vn -0.8058 -0.5312 0.2618
vn -0.8058 -0.5312 -0.2618
vn -0.4980 -0.5312 -0.6855
vn -0.0000 -0.5312 -0.8473
vn 0.4980 -0.5312 -0.6855
vn 0.8058 -0.5312 -0.2618
vn 0.8058 -0.5312 0.2618
vn 0.7963 0.5469 0.2587
vn 0.7963 0.5469 -0.2587
vn 0.4921 0.5469 -0.6773
vn -0.0000 0.5469 -0.8372
vn -0.4921 0.5469 -0.6773
vn -0.7963 0.5469 -0.2587
vn -0.7963 0.5469 0.2587
vn -0.4921 0.5469 0.6773
vn -0.0000 0.5469 0.8372
vn 0.4921 0.5469 0.6773
vn 0.9495 -0.0563 0.3085
vn 0.9495 -0.0563 -0.3085
vn 0.5869 -0.0563 -0.8077
vn -0.0000 -0.0563 -0.9984
vn -0.5869 -0.0563 -0.8077
vn -0.9495 -0.0563 -0.3085
vn -0.9495 -0.0563 0.3085
vn -0.5869 -0.0563 0.8077
vn -0.0000 -0.0563 0.9984
vn 0.5869 -0.0563 0.8077
vn -0.5010 0.5231 0.6895
vn -0.8106 0.5231 0.2634
vn -0.0000 0.5231 0.8523
vn -0.8106 0.5231 -0.2634
vn 0.5010 0.5231 0.6895
vn -0.5010 0.5231 -0.6895
vn 0.8106 0.5231 0.2634
vn -0.0000 0.5231 -0.8523
vn 0.8106 0.5231 -0.2634
vn 0.5010 0.5231 -0.6895
vt 0.269165 0.025290
vt 0.329002 0.025290
vt 0.342840 0.190006
vt 0.277718 0.190006
vt 0.847563 0.771808
vt 0.745763 0.771808
vt 0.741267 0.607092
vt 0.852059 0.607092
vt 0.362730 0.025290
vt 0.422566 0.025290
vt 0.414014 0.190006
vt 0.348892 0.190006
vt 0.519383 0.025290
vt 0.519383 0.190006
vt 0.616201 0.025290
vt 0.624753 0.190006
vt 0.676037 0.025290
vt 0.689875 0.190006
vt 0.473531 0.400409
vt 0.575331 0.400409
vt 0.579827 0.565124
vt 0.469035 0.565124
vt 0.015694 0.025290
vt 0.075531 0.025290
vt 0.066978 0.190006
vt 0.001856 0.190006
vt 0.172348 0.025290
vt 0.172348 0.190006
vt 0.358553 0.474261
vt 0.385457 0.557062
vt 0.358553 0.639863
vt 0.288118 0.691037
vt 0.201056 0.691037
vt 0.130621 0.639864
vt 0.103717 0.557062
vt 0.130621 0.474261
vt 0.201056 0.423087
vt 0.288118 0.423087
vt 0.217735 0.744228
vt 0.268696 0.814371
vt 0.268696 0.901073
vt 0.217734 0.971216
vt 0.135276 0.998008
vt 0.052818 0.971216
vt 0.001856 0.901073
vt 0.001856 0.814371
vt 0.052818 0.744228
vt 0.135276 0.717435
vt 0.929921 0.442377
vt 0.847563 0.442377
vt 0.840014 0.417510
vt 0.910157 0.417510
vt 0.745763 0.442377
vt 0.753312 0.417510
vt 0.663406 0.442377
vt 0.683169 0.417510
vt 0.422566 0.354721
vt 0.519383 0.354721
vt 0.519383 0.379588
vt 0.436925 0.379588
vt 0.616201 0.354721
vt 0.601842 0.379588
vt 0.391173 0.729840
vt 0.473531 0.729840
vt 0.481080 0.754707
vt 0.410937 0.754707
vt 0.575331 0.729840
vt 0.567782 0.754707
vt 0.657689 0.729840
vt 0.637925 0.754707
vt 0.075531 0.354721
vt 0.172348 0.354721
vt 0.172348 0.379588
vt 0.089890 0.379588
vt 0.269165 0.354721
vt 0.254806 0.379588
vt 0.172348 0.001992
vt 0.255149 0.001992
vt 0.089547 0.001992
vt 0.377845 0.653880
vt 0.295487 0.713716
vt 0.193687 0.713716
vt 0.111329 0.653880
vt 0.519383 0.001992
vt 0.602185 0.001992
vt 0.436582 0.001992
vt 0.111329 0.460245
vt 0.193687 0.400409
vt 0.295487 0.400409
vt 0.377845 0.460245
vt 0.015694 0.354721
vt 0.676037 0.354721
vt 0.362730 0.354721
vt 0.329002 0.354721
vt 0.305768 0.379588
vt 0.305768 0.396689
vt 0.254806 0.396689
vt 0.753312 0.400409
vt 0.840014 0.400409
vt 0.385963 0.379588
vt 0.436925 0.396689
vt 0.385963 0.396689
vt 0.519383 0.396689
vt 0.601842 0.396689
vt 0.652804 0.379588
vt 0.652804 0.396689
vt 0.567782 0.771808
vt 0.481080 0.771808
vt 0.038928 0.379588
vt 0.089890 0.396689
vt 0.038928 0.396689
vt 0.172348 0.396689
vt 0.522126 0.393317
vt 0.522126 0.485696
vt 0.491971 0.467189
vt 0.491971 0.381879
vt 0.560701 0.393317
vt 0.560701 0.485696
vt 0.522126 0.243844
vt 0.491971 0.243844
vt 0.560701 0.243844
vt 0.615775 0.514304
vt 0.772940 0.514304
vt 0.766927 0.532812
vt 0.621789 0.532812
vt 0.040429 0.757853
vt 0.040429 0.915018
vt 0.001855 0.915018
vt 0.001855 0.757853
vt 0.522126 0.094371
vt 0.491971 0.105809
vt 0.560701 0.094371
vt 0.091844 0.708333
vt 0.133820 0.708333
vt 0.133820 0.754137
vt 0.091844 0.754137
vt 0.091844 0.634221
vt 0.133820 0.634221
vt 0.415233 0.514304
vt 0.415233 0.606683
vt 0.385077 0.618122
vt 0.385077 0.532811
vt 0.134741 0.848122
vt 0.092765 0.848122
vt 0.092765 0.770195
vt 0.134741 0.770195
vt 0.453807 0.514304
vt 0.453807 0.606683
vt 0.091844 0.560108
vt 0.133820 0.560108
vt 0.044155 0.514304
vt 0.086131 0.514304
vt 0.086131 0.560108
vt 0.044155 0.560108
vt 0.522126 0.001992
vt 0.491971 0.020499
vt 0.560701 0.001992
vt 0.091844 0.514304
vt 0.133820 0.514304
vt 0.415233 0.756156
vt 0.385077 0.756156
vt 0.086131 0.634221
vt 0.044155 0.634221
vt 0.453807 0.756156
vt 0.141758 0.770195
vt 0.183735 0.770195
vt 0.183735 0.848122
vt 0.141758 0.848122
vt 0.086131 0.708333
vt 0.044155 0.708333
vt 0.772940 0.998008
vt 0.615775 0.998008
vt 0.621789 0.979501
vt 0.766927 0.979501
vt 0.086131 0.754137
vt 0.044155 0.754137
vt 0.047400 0.915018
vt 0.047400 0.757853
vt 0.085975 0.757853
vt 0.085975 0.915018
vt 0.415233 0.905629
vt 0.385077 0.894191
vt 0.415233 0.998008
vt 0.385077 0.979501
vt 0.453807 0.905629
vt 0.453807 0.998008
vt 0.884346 0.618122
vt 0.929196 0.756156
vt 0.884346 0.894191
vt 0.504369 0.894191
vt 0.459519 0.756156
vt 0.504369 0.618122
vt 0.333561 0.538385
vt 0.379365 0.601429
vt 0.379365 0.679355
vt 0.333561 0.742399
vt 0.259449 0.766479
vt 0.185336 0.742399
vt 0.139533 0.679355
vt 0.139533 0.601429
vt 0.185336 0.538385
vt 0.259449 0.514304
vt 0.169594 0.154283
vt 0.123790 0.217327
vt 0.123790 0.295253
vt 0.169594 0.358297
vt 0.243706 0.382377
vt 0.243706 0.510588
vt 0.094234 0.462021
vt 0.001855 0.334872
vt 0.001855 0.177708
vt 0.094234 0.050559
vt 0.243706 0.001992
vt 0.393179 0.050559
vt 0.485558 0.177708
vt 0.485558 0.334873
vt 0.393179 0.462022
vt 0.317819 0.358297
vt 0.363623 0.295253
vt 0.363623 0.217327
vt 0.317819 0.154283
vt 0.243706 0.130203
s 1
usemtl initialShadingGroup.005
f 1/1/1 2/2/1 50/3/2 41/4/2
f 2/5/3 3/6/3 49/7/4 50/8/4
f 3/9/5 4/10/5 48/11/6 49/12/6
f 4/10/7 5/13/7 47/14/8 48/11/8
f 5/13/9 6/15/9 46/16/10 47/14/10
f 6/15/11 7/17/11 45/18/12 46/16/12
f 7/19/13 8/20/13 44/21/14 45/22/14
f 8/23/15 9/24/15 43/25/16 44/26/16
f 9/24/17 10/27/17 42/28/18 43/25/18
f 10/27/19 1/1/19 41/4/20 42/28/20
f 40/38/21 32/29/21 31/30/21
f 40/38/21 31/30/21 33/31/21
f 40/38/21 33/31/21 34/32/21
f 40/38/21 34/32/21 35/33/21
f 40/38/21 35/33/21 36/34/21
f 40/38/21 36/34/21 37/35/21
f 40/38/21 37/35/21 38/36/21
f 38/36/21 39/37/21 40/38/21
f 60/48/22 51/39/22 52/40/22
f 60/48/22 52/40/22 53/41/22
f 60/48/22 53/41/22 54/42/22
f 60/48/22 54/42/22 55/43/22
f 60/48/22 55/43/22 56/44/22
f 60/48/22 56/44/22 57/45/22
f 60/48/22 57/45/22 58/46/22
f 58/46/22 59/47/22 60/48/22
f 11/49/23 12/50/23 22/51/23 21/52/23
f 12/50/24 13/53/24 23/54/24 22/51/24
f 13/53/25 14/55/25 24/56/25 23/54/25
f 14/57/26 15/58/26 25/59/26 24/60/26
f 15/58/27 16/61/27 26/62/27 25/59/27
f 16/63/28 17/64/28 27/65/28 26/66/28
f 17/64/29 18/67/29 28/68/29 27/65/29
f 18/67/30 19/69/30 29/70/30 28/68/30
f 19/71/31 20/72/31 30/73/31 29/74/31
f 20/72/32 11/75/32 21/76/32 30/73/32
f 1/1/33 10/27/33 31/77/33 32/78/33
f 10/27/34 9/24/34 33/79/34 31/77/34
f 9/80/35 8/81/35 34/32/35 33/31/35
f 8/81/36 7/82/36 35/33/36 34/32/36
f 7/82/37 6/83/37 36/34/37 35/33/37
f 6/15/38 5/13/38 37/84/38 36/85/38
f 5/13/39 4/10/39 38/86/39 37/84/39
f 4/87/40 3/88/40 39/37/40 38/36/40
f 3/88/41 2/89/41 40/38/41 39/37/41
f 2/89/42 1/90/42 32/29/42 40/38/42
f 42/28/20 41/4/20 11/75/43 20/72/43
f 43/25/18 42/28/18 20/72/44 19/71/44
f 44/26/16 43/25/16 19/71/45 18/91/45
f 45/22/14 44/21/14 18/67/46 17/64/46
f 46/16/12 45/18/12 17/92/47 16/61/47
f 47/14/10 46/16/10 16/61/48 15/58/48
f 48/11/8 47/14/8 15/58/49 14/57/49
f 49/12/6 48/11/6 14/57/50 13/93/50
f 50/8/4 49/7/4 13/53/51 12/50/51
f 41/4/2 50/3/2 12/94/52 11/75/52
f 21/76/2 22/95/2 52/96/2 51/97/2
f 22/51/4 23/54/4 53/98/4 52/99/4
f 23/100/6 24/60/6 54/101/6 53/102/6
f 24/60/8 25/59/8 55/103/8 54/101/8
f 25/59/10 26/62/10 56/104/10 55/103/10
f 26/62/12 27/105/12 57/106/12 56/104/12
f 27/65/14 28/68/14 58/107/14 57/108/14
f 28/109/16 29/74/16 59/110/16 58/111/16
f 29/74/18 30/73/18 60/112/18 59/110/18
f 30/73/20 21/76/20 51/97/20 60/112/20
f 61/113/53 62/114/53 63/115/53 64/116/53
f 62/114/6 61/113/6 65/117/6 66/118/6
f 67/119/54 61/113/54 64/116/54 68/120/54
f 61/113/8 67/119/8 69/121/8 65/117/8
f 62/122/55 70/123/55 71/124/55 63/125/55
f 70/126/4 62/127/4 66/128/4 72/129/4
f 73/130/56 67/119/56 68/120/56 74/131/56
f 67/119/10 73/130/10 75/132/10 69/121/10
f 76/133/6 77/134/6 78/135/6 79/136/6
f 80/137/8 81/138/8 77/134/8 76/133/8
f 70/139/57 82/140/57 83/141/57 71/142/57
f 79/143/4 78/144/4 84/145/4 85/146/4
f 82/140/2 70/139/2 72/147/2 86/148/2
f 87/149/10 88/150/10 81/138/10 80/137/10
f 85/151/2 84/152/2 89/153/2 90/154/2
f 91/155/58 73/130/58 74/131/58 92/156/58
f 73/130/12 91/155/12 93/157/12 75/132/12
f 94/158/12 95/159/12 88/150/12 87/149/12
f 82/140/59 96/160/59 97/161/59 83/141/59
f 90/154/20 89/153/20 98/162/20 99/163/20
f 96/160/20 82/140/20 86/148/20 100/164/20
f 101/165/14 102/166/14 95/167/14 94/168/14
f 99/163/18 98/162/18 103/169/18 104/170/18
f 105/171/60 91/172/60 92/173/60 106/174/60
f 104/170/16 103/169/16 102/175/16 101/176/16
f 91/177/14 105/178/14 107/179/14 93/180/14
f 96/160/61 108/181/61 109/182/61 97/161/61
f 108/181/62 105/183/62 106/184/62 109/182/62
f 108/181/18 96/160/18 100/164/18 110/185/18
f 105/183/16 108/181/16 110/185/16 107/186/16
f 71/124/21 83/187/21 97/188/21
f 71/124/21 97/188/21 109/189/21
f 71/124/21 109/189/21 106/174/21
f 71/124/21 106/174/21 92/173/21
f 71/124/21 92/173/21 74/190/21
f 71/124/21 74/190/21 68/191/21
f 71/124/21 68/191/21 64/192/21
f 64/192/21 63/125/21 71/124/21
f 98/202/22 89/193/22 84/194/22
f 98/202/22 84/194/22 78/195/22
f 98/202/22 78/195/22 77/196/22
f 98/202/22 77/196/22 81/197/22
f 98/202/22 81/197/22 88/198/22
f 98/202/22 88/198/22 95/199/22
f 98/202/22 95/199/22 102/200/22
f 102/200/22 103/201/22 98/202/22
f 100/213/22 104/203/22 101/204/22
f 87/206/22 80/207/22 69/208/22
f 94/205/22 87/206/22 69/208/22
f 94/205/22 69/208/22 75/209/22
f 101/204/22 94/205/22 75/209/22
f 101/204/22 75/209/22 93/210/22
f 100/213/22 101/204/22 93/210/22
f 100/213/22 93/210/22 107/211/22
f 107/211/22 110/212/22 100/213/22
f 100/213/22 86/214/22 72/215/22
f 100/213/22 72/215/22 66/216/22
f 66/216/22 65/217/22 69/208/22
f 66/216/22 69/208/22 80/207/22
f 66/216/22 80/207/22 76/218/22
f 66/216/22 76/218/22 79/219/22
f 66/216/22 79/219/22 85/220/22
f 100/213/22 66/216/22 85/220/22
f 100/213/22 85/220/22 90/221/22
f 100/213/22 90/221/22 99/222/22
f 99/222/22 104/203/22 100/213/22
