# Blender 5.2.0 LTS
# www.blender.org
mtllib outer.mtl
o outer_ring
v -0.844 4.069 -3.371
v -0.844 4.980 -1.794
v -1.343 5.965 -2.152
v -1.343 4.873 -4.045
v -1.343 7.279 -2.631
v -1.343 5.944 -4.944
v -0.844 6.747 -5.618
v -0.844 8.265 -2.989
v -0.344 5.944 -4.944
v -0.344 4.873 -4.045
v -0.344 5.965 -2.152
v -0.344 7.279 -2.631
v -0.844 -0.859 5.165
v -0.844 -2.570 4.542
v -1.343 -3.095 5.450
v -1.343 -1.041 6.198
v -1.343 -3.794 6.661
v -1.343 -1.284 7.575
v -0.344 -1.041 6.198
v -0.344 -3.095 5.450
v -0.844 5.296 0.000
v -1.343 6.345 0.000
v -1.048 -0.983 8.078
v -0.844 -1.321 8.608
v -0.640 -0.983 8.078
v -1.343 3.198 5.450
v -0.844 0.962 5.165
v -1.343 1.144 6.198
v -0.844 -4.319 7.569
v -0.844 -1.466 8.608
v -0.344 -3.794 6.661
v -0.344 -1.284 7.575
v -0.844 2.674 4.542
v -0.344 6.345 0.000
v -1.343 1.387 7.575
v -1.343 7.743 0.000
v -1.343 3.897 6.661
v -1.343 4.873 4.045
v -0.640 1.086 8.078
v -0.844 1.425 8.608
v -1.048 1.086 8.078
v -0.344 1.144 6.198
v -1.343 5.944 4.944
v -0.344 7.743 0.000
v -0.844 8.792 0.000
v -0.844 4.980 1.794
v -1.343 5.965 2.152
v -1.343 7.279 2.631
v -0.844 8.265 2.989
v -0.344 5.965 2.152
v -0.844 6.747 5.618
v -0.344 7.279 2.631
v -0.344 5.944 4.944
v -0.344 1.387 7.575
v -0.844 4.069 3.371
v -0.344 3.198 5.450
v -0.344 4.873 4.045
v -0.344 3.897 6.661
v -0.844 1.569 8.608
v -0.844 4.422 7.569
v -1.343 -5.840 4.944
v -0.344 -5.840 4.944
v -0.344 -4.769 4.045
v -0.844 -6.644 5.618
v -0.844 -3.966 3.371
v -1.343 -4.769 4.045
v -1.343 3.198 -5.450
v -0.344 3.198 -5.450
v -0.344 3.897 -6.661
v -1.343 3.897 -6.661
v -0.844 2.674 -4.542
v -0.844 -8.162 2.989
v -0.844 4.422 -7.569
v -0.344 -7.176 2.631
v -0.344 -5.862 2.152
v -0.844 -4.876 1.794
v -1.343 -5.862 2.152
v -0.844 -8.689 0.000
v -1.343 -7.176 2.631
v -0.344 -7.640 0.000
v -0.344 1.144 -6.198
v -0.844 0.962 -5.165
v -1.046 1.086 -8.118
v -0.844 1.425 -8.608
v -0.642 1.086 -8.118
v -0.344 1.387 -7.575
v -1.343 1.144 -6.198
v -0.344 -6.242 0.000
v -0.844 -5.193 0.000
v -0.844 -8.162 -2.989
v -0.642 -0.983 -8.118
v -0.844 -1.322 -8.608
v -1.046 -0.983 -8.118
v -0.344 -7.176 -2.631
v -0.844 1.569 -8.608
v -1.343 1.387 -7.575
v -1.343 -6.242 0.000
v -0.844 -6.644 -5.618
v -0.344 -5.840 -4.944
v -0.344 -1.041 -6.198
v -0.844 -0.859 -5.165
v -1.343 -7.176 -2.631
v -1.343 -5.840 -4.944
v -1.343 -1.041 -6.198
v -1.343 -7.640 0.000
v -0.344 -5.862 -2.152
v -0.844 -4.876 -1.794
v -0.344 -1.284 -7.575
v -1.343 -5.862 -2.152
v -0.344 -3.095 -5.450
v -0.844 -2.570 -4.542
v -1.343 -1.284 -7.575
v -0.344 -4.769 -4.045
v -0.844 -3.966 -3.371
v -1.343 -3.095 -5.450
v -1.343 -4.769 -4.045
v -0.344 -3.794 -6.661
v -1.343 -3.794 -6.661
v -0.844 -4.319 -7.569
v -0.844 -1.466 -8.608
vn -0.9004 -0.3768 0.2176
vn -1.0000 -0.0000 -0.0000
vn 0.9004 0.3768 -0.2176
vn 0.9004 -0.3768 0.2176
vn -0.9004 0.3768 -0.2176
vn 1.0000 -0.0000 -0.0000
vn -0.9004 0.1488 -0.4089
vn 0.9004 0.1488 -0.4089
vn -0.9004 -0.4285 0.0756
vn -0.0000 0.8424 0.5388
vn -0.9004 -0.1488 -0.4089
vn -0.9004 -0.1488 0.4089
vn 0.9004 -0.4285 0.0756
vn 0.9004 -0.1488 0.4089
vn -0.9004 -0.0000 -0.4351
vn -0.0000 -0.8424 0.5388
vn 0.9004 -0.0000 -0.4351
vn -0.9004 0.4285 -0.0756
vn -0.9004 -0.4285 -0.0756
vn -0.9004 0.3768 0.2176
vn 0.9004 0.4285 -0.0756
vn 0.9004 -0.4285 -0.0756
vn 0.9004 0.3768 0.2176
vn -0.9004 -0.3768 -0.2176
vn 0.9004 -0.1488 -0.4089
vn -0.0000 -0.0000 1.0000
vn -0.9004 -0.2797 -0.3333
vn 0.9004 -0.3768 -0.2176
vn 0.9004 -0.2797 -0.3333
vn -0.9004 0.4285 0.0756
vn 0.9004 0.4285 0.0756
vn -0.9004 0.1488 0.4089
vn 0.9004 0.1488 0.4089
vn -0.9004 0.2797 0.3333
vn 0.9004 0.2797 0.3333
vn -0.8732 -0.0000 0.4873
vn 0.8732 -0.0000 0.4873
vn -0.9004 -0.2797 0.3333
vn 0.9004 -0.2797 0.3333
vn 0.9004 0.2797 -0.3333
vn -0.9004 0.2797 -0.3333
vn -0.0000 -0.8222 -0.5692
vn -0.0000 0.8222 -0.5692
vn 0.9004 -0.0000 0.4351
vn -0.9004 -0.0000 0.4351
vn -0.0000 -0.0000 -1.0000
vn 0.8834 -0.0000 -0.4686
vn -0.8834 -0.0000 -0.4686
vt 0.150463 0.364112
vt 0.195233 0.389961
vt 0.185050 0.417938
vt 0.131325 0.386920
vt 0.171475 0.455235
vt 0.105812 0.417324
vt 0.809155 0.917158
vt 0.828293 0.939966
vt 0.753675 0.983046
vt 0.743492 0.955069
vt 0.783642 0.886754
vt 0.729917 0.917772
vt 0.719734 0.889795
vt 0.764505 0.863946
vt 0.161293 0.483212
vt 0.086675 0.440132
vt 0.392738 0.224235
vt 0.375056 0.175656
vt 0.400841 0.160769
vt 0.422058 0.219065
vt 0.435214 0.140924
vt 0.461146 0.212172
vt 0.492909 0.718899
vt 0.514127 0.660603
vt 0.539911 0.675490
vt 0.522230 0.724069
vt 0.246145 0.398938
vt 0.246145 0.428711
vt 0.390218 0.511445
vt 0.396011 0.501826
vt 0.401805 0.511445
vt 0.392738 0.275931
vt 0.422058 0.281101
vt 0.400841 0.339397
vt 0.375056 0.324510
vt 0.460998 0.126037
vt 0.490467 0.207002
vt 0.479754 0.640758
vt 0.453821 0.712006
vt 0.668823 0.928545
vt 0.668823 0.898772
vt 0.461146 0.287994
vt 0.435214 0.359242
vt 0.424501 0.706836
vt 0.453970 0.625871
vt 0.246145 0.468401
vt 0.360964 0.386920
vt 0.386477 0.417324
vt 0.401805 0.570160
vt 0.396011 0.579779
vt 0.390218 0.570160
vt 0.492909 0.780935
vt 0.522230 0.775765
vt 0.668823 0.968235
vt 0.246145 0.498174
vt 0.297056 0.389961
vt 0.307239 0.417938
vt 0.330997 0.483212
vt 0.320814 0.455235
vt 0.405614 0.440132
vt 0.668823 0.998008
vt 0.607729 0.917772
vt 0.617911 0.889795
vt 0.594154 0.955069
vt 0.583971 0.983046
vt 0.509353 0.939966
vt 0.528491 0.917158
vt 0.453821 0.787828
vt 0.341826 0.364112
vt 0.514127 0.839231
vt 0.539911 0.824344
vt 0.554003 0.886754
vt 0.573141 0.863946
vt 0.479754 0.859076
vt 0.490467 0.293164
vt 0.460998 0.374128
vt 0.453970 0.873963
vt 0.424501 0.792998
vt 0.490467 0.211107
vt 0.475427 0.220726
vt 0.475427 0.279440
vt 0.490467 0.289059
vt 0.424501 0.788894
vt 0.439541 0.779274
vt 0.439541 0.720560
vt 0.424501 0.710941
vt 0.386477 0.082842
vt 0.405614 0.060034
vt 0.528491 0.582676
vt 0.554003 0.613080
vt 0.509353 0.559868
vt 0.573141 0.635888
vt 0.341826 0.136054
vt 0.360964 0.113246
vt 0.091449 0.339397
vt 0.057076 0.359242
vt 0.823519 0.839231
vt 0.857892 0.859076
vt 0.797735 0.824344
vt 0.583971 0.516788
vt 0.594154 0.544765
vt 0.883676 0.873963
vt 0.117233 0.324510
vt 0.031292 0.374129
vt 0.607729 0.582062
vt 0.617911 0.610039
vt 0.297056 0.110205
vt 0.307239 0.082228
vt 0.668823 0.501826
vt 0.668823 0.531599
vt 0.320814 0.044931
vt 0.844737 0.780935
vt 0.815416 0.775765
vt 0.407419 0.511452
vt 0.413153 0.501826
vt 0.418887 0.511452
vt 0.330997 0.016954
vt 0.883824 0.787828
vt 0.099551 0.275931
vt 0.070231 0.281101
vt 0.668823 0.571289
vt 0.668823 0.601062
vt 0.753675 0.516788
vt 0.743492 0.544765
vt 0.418887 0.570167
vt 0.413153 0.579792
vt 0.407419 0.570167
vt 0.913145 0.792998
vt 0.031143 0.287994
vt 0.246145 0.101228
vt 0.246145 0.071455
vt 0.001823 0.293164
vt 0.828293 0.559868
vt 0.809155 0.582676
vt 0.844737 0.718899
vt 0.815416 0.724069
vt 0.161292 0.016954
vt 0.171475 0.044931
vt 0.105812 0.082842
vt 0.086675 0.060034
vt 0.099551 0.224235
vt 0.070231 0.219065
vt 0.246145 0.031765
vt 0.729917 0.582062
vt 0.719734 0.610039
vt 0.883824 0.712007
vt 0.246145 0.001992
vt 0.195233 0.110205
vt 0.185050 0.082228
vt 0.823519 0.660603
vt 0.797735 0.675490
vt 0.031143 0.212172
vt 0.783642 0.613081
vt 0.764505 0.635888
vt 0.117233 0.175656
vt 0.091449 0.160769
vt 0.150463 0.136054
vt 0.131325 0.113246
vt 0.857892 0.640758
vt 0.057076 0.140924
vt 0.883676 0.625872
vt 0.913145 0.706837
vt 0.001823 0.207003
vt 0.031291 0.126038
vt 0.913145 0.710934
vt 0.899240 0.720560
vt 0.899240 0.779274
vt 0.913145 0.788900
vt 0.001823 0.289066
vt 0.015727 0.279440
vt 0.015727 0.220726
vt 0.001823 0.211100
s 1
usemtl standardSurface6SG.001
f 1/1/1 2/2/1 3/3/1 4/4/1
f 3/3/2 5/5/2 6/6/2 4/4/2
f 10/11/4 11/12/4 2/13/4 1/14/4
f 12/10/6 11/12/6 10/11/6 9/7/6
f 13/17/7 14/18/7 15/19/7 16/20/7
f 15/19/2 17/21/2 18/22/2 16/20/2
f 19/23/8 20/24/8 14/25/8 13/26/8
f 2/2/9 21/27/9 22/28/9 3/3/9
f 23/29/10 24/30/10 25/31/10
f 27/32/11 28/33/11 26/34/11 33/35/11
f 18/22/12 17/21/12 29/36/12 30/37/12
f 31/38/6 20/24/6 19/23/6 32/39/6
f 11/12/13 34/40/13 21/41/13 2/13/13
f 26/34/2 28/33/2 35/42/2 37/43/2
f 30/44/14 29/45/14 31/38/14 32/39/14
f 5/5/2 3/3/2 22/28/2 36/46/2
f 27/32/15 13/17/15 16/20/15 28/33/15
f 38/47/2 26/34/2 37/43/2 43/48/2
f 39/49/16 40/50/16 41/51/16
f 42/52/17 19/23/17 13/26/17 27/53/17
f 11/12/6 12/10/6 44/54/6 34/40/6
f 21/27/19 46/56/19 47/57/19 22/28/19
f 16/20/2 18/22/2 35/42/2 28/33/2
f 34/40/22 50/62/22 46/63/22 21/41/22
f 32/39/6 19/23/6 42/52/6 54/68/6
f 47/57/2 48/59/2 36/46/2 22/28/2
f 46/56/24 55/69/24 38/47/24 47/57/24
f 56/70/25 42/52/25 27/53/25 33/71/25
f 41/51/26 23/29/26 25/31/26 39/49/26
f 55/69/27 33/35/27 26/34/27 38/47/27
f 57/72/29 56/70/29 33/71/29 55/73/29
f 52/64/6 50/62/6 34/40/6 44/54/6
f 38/47/2 43/48/2 48/59/2 47/57/2
f 54/68/6 42/52/6 56/70/6 58/74/6
f 53/67/6 57/72/6 50/62/6 52/64/6
f 37/43/32 35/42/32 59/75/32 60/76/32
f 58/74/6 56/70/6 57/72/6 53/67/6
f 60/77/33 59/78/33 54/68/33 58/74/33
f 18/22/36 30/37/36 24/79/36
f 18/22/36 24/79/36 23/80/36
f 35/42/36 18/22/36 23/80/36
f 35/42/36 23/80/36 41/81/36
f 59/75/36 35/42/36 41/81/36
f 41/81/36 40/82/36 59/75/36
f 54/68/37 59/78/37 40/83/37
f 54/68/37 40/83/37 39/84/37
f 54/68/37 39/84/37 25/85/37
f 25/85/37 24/86/37 30/44/37
f 25/85/37 30/44/37 32/39/37
f 25/85/37 32/39/37 54/68/37
f 62/89/6 63/90/6 20/24/6 31/38/6
f 20/24/40 63/90/40 65/92/40 14/25/40
f 14/18/41 65/93/41 66/94/41 15/19/41
f 66/94/2 61/87/2 17/21/2 15/19/2
f 67/95/2 4/4/2 6/6/2 70/96/2
f 9/7/6 10/11/6 68/97/6 69/98/6
f 68/97/39 10/11/39 1/14/39 71/99/39
f 71/103/38 1/1/38 4/4/38 67/95/38
f 63/90/3 75/105/3 76/106/3 65/92/3
f 74/101/6 75/105/6 63/90/6 62/89/6
f 65/93/5 76/107/5 77/108/5 66/94/5
f 77/108/2 79/111/2 61/87/2 66/94/2
f 81/112/14 68/97/14 71/99/14 82/113/14
f 83/114/42 84/115/42 85/116/42
f 69/98/6 68/97/6 81/112/6 86/118/6
f 82/119/12 71/103/12 67/95/12 87/120/12
f 75/105/21 88/121/21 89/122/21 76/106/21
f 91/125/43 92/126/43 93/127/43
f 95/128/8 73/102/8 69/98/8 86/118/8
f 67/95/2 70/96/2 96/129/2 87/120/2
f 76/107/18 89/130/18 97/131/18 77/108/18
f 96/129/7 70/96/7 73/104/7 95/132/7
f 80/110/6 88/121/6 75/105/6 74/101/6
f 100/135/44 81/112/44 82/113/44 101/136/44
f 101/141/45 82/119/45 87/120/45 104/142/45
f 97/131/2 105/143/2 79/111/2 77/108/2
f 88/121/31 106/144/31 107/145/31 89/122/31
f 86/118/6 81/112/6 100/135/6 108/146/6
f 89/130/30 107/148/30 109/149/30 97/131/30
f 110/150/33 100/135/33 101/136/33 111/151/33
f 87/120/2 96/129/2 112/152/2 104/142/2
f 94/124/6 106/144/6 88/121/6 80/110/6
f 106/144/23 113/153/23 114/154/23 107/145/23
f 111/155/32 101/141/32 104/142/32 115/156/32
f 85/116/46 91/125/46 93/127/46 83/114/46
f 113/153/35 110/150/35 111/151/35 114/154/35
f 107/148/20 114/157/20 116/158/20 109/149/20
f 114/157/34 111/155/34 115/156/34 116/158/34
f 108/146/6 100/135/6 110/150/6 117/159/6
f 109/149/2 102/138/2 105/143/2 97/131/2
f 99/134/6 113/153/6 106/144/6 94/124/6
f 117/159/6 110/150/6 113/153/6 99/134/6
f 104/142/2 112/152/2 118/160/2 115/156/2
f 116/158/2 103/139/2 102/138/2 109/149/2
f 119/161/25 120/162/25 108/146/25 117/159/25
f 115/156/2 118/160/2 103/139/2 116/158/2
f 118/160/11 112/152/11 120/163/11 119/164/11
f 108/146/47 120/162/47 92/165/47
f 108/146/47 92/165/47 91/166/47
f 108/146/47 91/166/47 85/167/47
f 85/167/47 84/168/47 95/128/47
f 85/167/47 95/128/47 86/118/47
f 85/167/47 86/118/47 108/146/47
f 96/129/48 95/132/48 84/169/48
f 96/129/48 84/169/48 83/170/48
f 112/152/48 96/129/48 83/170/48
f 112/152/48 83/170/48 93/171/48
f 120/163/48 112/152/48 93/171/48
f 93/171/48 92/172/48 120/163/48
usemtl standardSurface8SG.001
f 9/7/3 7/8/3 8/9/3 12/10/3
f 6/6/5 5/5/5 8/15/5 7/16/5
f 5/5/18 36/46/18 45/55/18 8/15/18
f 49/58/20 48/59/20 43/48/20 51/60/20
f 8/9/21 45/61/21 44/54/21 12/10/21
f 52/64/23 49/65/23 51/66/23 53/67/23
f 50/62/28 57/72/28 55/73/28 46/63/28
f 36/46/30 48/59/30 49/58/30 45/55/30
f 45/61/31 49/65/31 52/64/31 44/54/31
f 43/48/34 37/43/34 60/76/34 51/60/34
f 51/66/35 60/77/35 58/74/35 53/67/35
f 29/36/38 17/21/38 61/87/38 64/88/38
f 29/45/39 64/91/39 62/89/39 31/38/39
f 62/89/4 64/91/4 72/100/4 74/101/4
f 73/102/40 7/8/40 9/7/40 69/98/40
f 70/96/41 6/6/41 7/16/41 73/104/41
f 74/101/13 72/100/13 78/109/13 80/110/13
f 61/87/1 79/111/1 72/117/1 64/88/1
f 80/110/22 78/109/22 90/123/22 94/124/22
f 98/133/28 99/134/28 94/124/28 90/123/28
f 90/137/24 102/138/24 103/139/24 98/140/24
f 79/111/9 105/143/9 78/147/9 72/117/9
f 105/143/19 102/138/19 90/137/19 78/147/19
f 98/133/29 119/161/29 117/159/29 99/134/29
f 103/139/27 118/160/27 119/164/27 98/140/27
