# This file uses centimeters as units for non-parametric coordinates.

mtllib switch.mtl
g default
v 0.284 1.735 0.760
v 0.684 1.735 0.470
v 0.684 3.039 0.470
v 0.284 3.039 0.760
v 0.635 1.735 0.434
v 0.266 1.735 0.703
v 0.266 3.039 0.703
v 0.635 3.039 0.434
v 0.837 1.735 0.000
v 0.837 3.039 0.000
v 0.776 1.735 0.000
v 0.776 3.039 0.000
v -0.210 1.735 0.760
v -0.210 3.039 0.760
v -0.191 1.735 0.703
v -0.191 3.039 0.703
v 0.684 1.735 -0.470
v 0.684 3.039 -0.470
v 0.635 1.735 -0.434
v 0.635 3.039 -0.434
v -0.609 1.735 0.470
v -0.609 3.039 0.470
v -0.561 1.735 0.434
v -0.561 3.039 0.434
v 0.266 1.735 -0.703
v 0.266 3.039 -0.703
v 0.284 1.735 -0.760
v 0.284 3.039 -0.760
v -0.702 1.735 0.000
v -0.702 3.039 0.000
v -0.762 1.735 0.000
v -0.762 3.039 0.000
v -0.191 1.735 -0.703
v -0.191 3.039 -0.703
v -0.210 1.735 -0.760
v -0.210 3.039 -0.760
v -0.561 1.735 -0.434
v -0.561 3.039 -0.434
v -0.609 1.735 -0.470
v -0.609 3.039 -0.470
vt 0.550000 0.312500
vt 0.575000 0.312500
vt 0.575000 0.687500
vt 0.550000 0.687500
vt 0.575000 0.400339
vt 0.550000 0.400339
vt 0.550000 0.423399
vt 0.575000 0.423399
vt 0.600000 0.312500
vt 0.600000 0.687500
vt 0.600000 0.400339
vt 0.600000 0.423399
vt 0.525000 0.312500
vt 0.525000 0.687500
vt 0.525000 0.400339
vt 0.525000 0.423399
vt 0.625000 0.312500
vt 0.625000 0.687500
vt 0.625000 0.400339
vt 0.625000 0.423399
vt 0.500000 0.312500
vt 0.500000 0.687500
vt 0.500000 0.400339
vt 0.500000 0.423399
vt 0.400000 0.400339
vt 0.375000 0.400339
vt 0.375000 0.423399
vt 0.400000 0.423399
vt 0.375000 0.312500
vt 0.400000 0.312500
vt 0.400000 0.687500
vt 0.375000 0.687500
vt 0.475000 0.400339
vt 0.475000 0.423399
vt 0.475000 0.312500
vt 0.475000 0.687500
vt 0.425000 0.400339
vt 0.425000 0.423399
vt 0.425000 0.312500
vt 0.425000 0.687500
vt 0.450000 0.400339
vt 0.450000 0.423399
vt 0.450000 0.312500
vt 0.450000 0.687500
vt 0.644452 0.843750
vt 0.616864 0.758843
vt 0.544638 0.706368
vt 0.455362 0.706368
vt 0.383136 0.758843
vt 0.355548 0.843750
vt 0.343750 0.843750
vt 0.373591 0.751909
vt 0.451716 0.695147
vt 0.548284 0.695147
vt 0.626409 0.751909
vt 0.656250 0.843750
vt 0.626409 0.935591
vt 0.548284 0.992353
vt 0.451716 0.992353
vt 0.373591 0.935591
vt 0.383136 0.928657
vt 0.455362 0.981132
vt 0.544638 0.981132
vt 0.616864 0.928657
vt 0.656250 0.156250
vt 0.626409 0.248091
vt 0.548284 0.304853
vt 0.451716 0.304853
vt 0.373591 0.248091
vt 0.343750 0.156250
vt 0.355548 0.156250
vt 0.383136 0.241157
vt 0.455362 0.293632
vt 0.544638 0.293632
vt 0.616864 0.241157
vt 0.644452 0.156250
vt 0.626409 0.064409
vt 0.616864 0.071343
vt 0.544638 0.018868
vt 0.455362 0.018868
vt 0.383136 0.071343
vt 0.373591 0.064409
vt 0.451716 0.007647
vt 0.548284 0.007647
vn 0.587785 0.000000 0.809017
vn 0.587785 0.000000 0.809017
vn 0.587785 0.000000 0.809017
vn 0.587785 0.000000 0.809017
vn -0.587785 0.000000 -0.809017
vn -0.587785 0.000000 -0.809017
vn -0.587785 0.000000 -0.809017
vn -0.587785 0.000000 -0.809017
vn 0.951057 0.000000 0.309017
vn 0.951057 0.000000 0.309017
vn 0.951057 0.000000 0.309017
vn 0.951057 0.000000 0.309017
vn -0.951057 0.000000 -0.309017
vn -0.951057 0.000000 -0.309017
vn -0.951057 0.000000 -0.309017
vn -0.951057 0.000000 -0.309017
vn 0.000000 0.000000 1.000000
vn 0.000000 0.000000 1.000000
vn 0.000000 0.000000 1.000000
vn 0.000000 0.000000 1.000000
vn -0.000000 0.000000 -1.000000
vn -0.000000 0.000000 -1.000000
vn -0.000000 0.000000 -1.000000
vn -0.000000 0.000000 -1.000000
vn 0.951057 0.000000 -0.309017
vn 0.951057 0.000000 -0.309017
vn 0.951057 0.000000 -0.309017
vn 0.951057 0.000000 -0.309017
vn -0.951057 0.000000 0.309017
vn -0.951057 0.000000 0.309017
vn -0.951057 0.000000 0.309017
vn -0.951057 0.000000 0.309017
vn -0.587785 0.000000 0.809017
vn -0.587785 0.000000 0.809017
vn -0.587785 0.000000 0.809017
vn -0.587785 0.000000 0.809017
vn 0.587785 0.000000 -0.809017
vn 0.587785 0.000000 -0.809017
vn 0.587785 0.000000 -0.809017
vn 0.587785 0.000000 -0.809017
vn -0.587785 0.000000 0.809017
vn -0.587785 0.000000 0.809017
vn -0.587785 0.000000 0.809017
vn -0.587785 0.000000 0.809017
vn 0.587785 0.000000 -0.809017
vn 0.587785 0.000000 -0.809017
vn 0.587785 0.000000 -0.809017
vn 0.587785 0.000000 -0.809017
vn 0.951057 0.000000 -0.309017
vn 0.951057 0.000000 -0.309017
vn 0.951057 0.000000 -0.309017
vn 0.951057 0.000000 -0.309017
vn -0.951057 0.000000 0.309017
vn -0.951057 0.000000 0.309017
vn -0.951057 0.000000 0.309017
vn -0.951057 0.000000 0.309017
vn 0.000000 0.000000 1.000000
vn 0.000000 0.000000 1.000000
vn 0.000000 0.000000 1.000000
vn 0.000000 0.000000 1.000000
vn -0.000000 0.000000 -1.000000
vn -0.000000 0.000000 -1.000000
vn -0.000000 0.000000 -1.000000
vn -0.000000 0.000000 -1.000000
vn 0.951057 0.000000 0.309017
vn 0.951057 0.000000 0.309017
vn 0.951057 0.000000 0.309017
vn 0.951057 0.000000 0.309017
vn -0.951057 0.000000 -0.309017
vn -0.951057 0.000000 -0.309017
vn -0.951057 0.000000 -0.309017
vn -0.951057 0.000000 -0.309017
vn 0.587785 0.000000 0.809017
vn 0.587785 0.000000 0.809017
vn 0.587785 0.000000 0.809017
vn 0.587785 0.000000 0.809017
vn -0.587785 0.000000 -0.809017
vn -0.587785 0.000000 -0.809017
vn -0.587785 0.000000 -0.809017
vn -0.587785 0.000000 -0.809017
vn 0.000000 1.000000 -0.000002
vn 0.000000 1.000000 -0.000004
vn 0.000000 1.000000 -0.000004
vn 0.000000 1.000000 -0.000004
vn 0.000000 1.000000 -0.000004
vn 0.000000 1.000000 -0.000002
vn 0.000000 1.000000 -0.000002
vn 0.000000 1.000000 -0.000004
vn 0.000000 1.000000 -0.000004
vn 0.000000 1.000000 -0.000004
vn 0.000000 1.000000 -0.000004
vn 0.000000 1.000000 -0.000002
vn 0.000000 1.000000 0.000000
vn 0.000000 1.000000 0.000000
vn 0.000000 1.000000 0.000000
vn 0.000000 1.000000 0.000000
vn 0.000000 1.000000 0.000000
vn 0.000000 1.000000 0.000000
vn 0.000000 1.000000 0.000000
vn 0.000000 1.000000 0.000000
vn 0.000000 -1.000000 0.000005
vn 0.000000 -1.000000 0.000002
vn 0.000000 -1.000000 0.000002
vn 0.000000 -1.000000 0.000002
vn 0.000000 -1.000000 0.000002
vn 0.000000 -1.000000 0.000005
vn 0.000000 -1.000000 0.000005
vn 0.000000 -1.000000 0.000002
vn 0.000000 -1.000000 0.000002
vn 0.000000 -1.000000 0.000002
vn 0.000000 -1.000000 0.000002
vn 0.000000 -1.000000 0.000005
vn 0.000000 -1.000000 0.000009
vn 0.000000 -1.000000 0.000009
vn 0.000000 -1.000000 0.000009
vn 0.000000 -1.000000 0.000009
vn 0.000000 -1.000000 0.000009
vn 0.000000 -1.000000 0.000009
vn 0.000000 -1.000000 0.000009
vn 0.000000 -1.000000 0.000009
s off
g polySurface8 group1
usemtl standardSurface3SG
f 1/1/1 2/2/2 3/3/3 4/4/4
f 5/5/5 6/6/6 7/7/7 8/8/8
f 2/2/9 9/9/10 10/10/11 3/3/12
f 11/11/13 5/5/14 8/8/15 12/12/16
f 13/13/17 1/1/18 4/4/19 14/14/20
f 6/6/21 15/15/22 16/16/23 7/7/24
f 9/9/25 17/17/26 18/18/27 10/10/28
f 19/19/29 11/11/30 12/12/31 20/20/32
f 21/21/33 13/13/34 14/14/35 22/22/36
f 15/15/37 23/23/38 24/24/39 16/16/40
f 25/25/41 19/26/42 20/27/43 26/28/44
f 17/29/45 27/30/46 28/31/47 18/32/48
f 23/23/49 29/33/50 30/34/51 24/24/52
f 31/35/53 21/21/54 22/22/55 32/36/56
f 33/37/57 25/25/58 26/28/59 34/38/60
f 27/30/61 35/39/62 36/40/63 28/31/64
f 29/33/65 37/41/66 38/42/67 30/34/68
f 39/43/69 31/35/70 32/36/71 40/44/72
f 37/41/73 33/37/74 34/38/75 38/42/76
f 35/39/77 39/43/78 40/44/79 36/40/80
s 1
f 10/56/92 12/45/81 8/46/82
f 24/49/85 30/50/86 32/51/87
f 24/49/85 32/51/87 22/52/88
f 16/48/84 24/49/85 22/52/88
f 16/48/84 22/52/88 14/53/89
f 7/47/83 16/48/84 14/53/89
f 7/47/83 14/53/89 4/54/90
f 8/46/82 7/47/83 4/54/90
f 8/46/82 4/54/90 3/55/91
f 8/46/82 3/55/91 10/56/92
f 40/60/96 32/51/87 30/50/86
f 40/60/96 30/50/86 38/61/97
f 36/59/95 40/60/96 38/61/97
f 36/59/95 38/61/97 34/62/98
f 28/58/94 36/59/95 34/62/98
f 28/58/94 34/62/98 26/63/99
f 18/57/93 28/58/94 26/63/99
f 18/57/93 26/63/99 20/64/100
f 10/56/92 18/57/93 20/64/100
f 20/64/100 12/45/81 10/56/92
s 2
f 11/76/112 9/65/101 2/66/102
f 21/69/105 31/70/106 29/71/107
f 21/69/105 29/71/107 23/72/108
f 13/68/104 21/69/105 23/72/108
f 13/68/104 23/72/108 15/73/109
f 1/67/103 13/68/104 15/73/109
f 1/67/103 15/73/109 6/74/110
f 2/66/102 1/67/103 6/74/110
f 2/66/102 6/74/110 5/75/111
f 2/66/102 5/75/111 11/76/112
f 17/77/113 9/65/101 11/76/112
f 17/77/113 11/76/112 19/78/114
f 27/84/120 17/77/113 19/78/114
f 27/84/120 19/78/114 25/79/115
f 27/84/120 25/79/115 33/80/116
f 37/81/117 29/71/107 31/70/106
f 37/81/117 31/70/106 39/82/118
f 33/80/116 37/81/117 39/82/118
f 33/80/116 39/82/118 35/83/119
f 33/80/116 35/83/119 27/84/120
g default
v 0.306 3.025 0.827
v 0.741 3.025 0.511
v 0.741 3.190 0.511
v 0.306 3.190 0.827
v 0.907 3.025 0.000
v 0.907 3.190 0.000
v 0.635 3.025 0.434
v 0.266 3.025 0.703
v 0.266 3.190 0.703
v 0.635 3.190 0.434
v 0.776 3.025 0.000
v 0.776 3.190 0.000
v -0.232 3.025 0.827
v -0.232 3.190 0.827
v -0.191 3.025 0.703
v -0.191 3.190 0.703
v 0.741 3.025 -0.511
v 0.741 3.190 -0.511
v 0.635 3.025 -0.434
v 0.635 3.190 -0.434
v 0.306 2.306 0.827
v 0.741 2.306 0.511
v 0.741 2.471 0.511
v 0.306 2.471 0.827
v 0.907 2.306 0.000
v 0.907 2.471 0.000
v 0.635 2.306 0.434
v 0.266 2.306 0.703
v 0.266 2.471 0.703
v 0.635 2.471 0.434
v -0.667 3.025 0.511
v -0.667 3.190 0.511
v 0.776 2.306 0.000
v 0.776 2.471 0.000
v -0.561 3.025 0.434
v -0.561 3.190 0.434
v -0.232 2.306 0.827
v -0.232 2.471 0.827
v -0.191 2.306 0.703
v -0.191 2.471 0.703
v 0.266 3.025 -0.703
v 0.266 3.190 -0.703
v 0.306 3.025 -0.827
v 0.306 3.190 -0.827
v 0.741 2.306 -0.511
v 0.741 2.471 -0.511
v 0.635 2.306 -0.434
v 0.635 2.471 -0.434
v 0.306 1.586 0.827
v 0.741 1.586 0.511
v 0.741 1.751 0.511
v 0.306 1.751 0.827
v 0.907 1.586 0.000
v 0.907 1.751 0.000
v -0.702 3.025 0.000
v -0.702 3.190 0.000
v 0.635 1.586 0.434
v 0.266 1.586 0.703
v 0.266 1.751 0.703
v 0.635 1.751 0.434
v -0.833 3.025 0.000
v -0.833 3.190 0.000
v -0.667 2.306 0.511
v -0.667 2.471 0.511
v 0.776 1.586 0.000
v 0.776 1.751 0.000
v -0.561 2.306 0.434
v -0.561 2.471 0.434
v -0.232 1.586 0.827
v -0.232 1.751 0.827
v -0.191 3.025 -0.703
v -0.191 3.190 -0.703
v -0.191 1.586 0.703
v -0.191 1.751 0.703
v -0.232 3.025 -0.827
v -0.232 3.190 -0.827
v 0.266 2.306 -0.703
v 0.266 2.471 -0.703
v -0.561 3.025 -0.434
v -0.561 3.190 -0.434
v 0.306 2.306 -0.827
v 0.306 2.471 -0.827
v 0.741 1.586 -0.511
v 0.741 1.751 -0.511
v 0.635 1.586 -0.434
v 0.635 1.751 -0.434
v -0.667 3.025 -0.511
v -0.667 3.190 -0.511
v -0.702 2.306 0.000
v -0.702 2.471 0.000
v -0.833 2.306 0.000
v -0.833 2.471 0.000
v -0.667 1.586 0.511
v -0.667 1.751 0.511
v -0.561 1.586 0.434
v -0.561 1.751 0.434
v -0.191 2.306 -0.703
v -0.191 2.471 -0.703
v -0.232 2.306 -0.827
v -0.232 2.471 -0.827
v 0.266 1.586 -0.703
v 0.266 1.751 -0.703
v -0.561 2.306 -0.434
v -0.561 2.471 -0.434
v 0.306 1.586 -0.827
v 0.306 1.751 -0.827
v -0.667 2.306 -0.511
v -0.667 2.471 -0.511
v -0.702 1.586 0.000
v -0.702 1.751 0.000
v -0.833 1.586 0.000
v -0.833 1.751 0.000
v -0.191 1.586 -0.703
v -0.191 1.751 -0.703
v -0.232 1.586 -0.827
v -0.232 1.751 -0.827
v -0.561 1.586 -0.434
v -0.561 1.751 -0.434
v -0.667 1.586 -0.511
v -0.667 1.751 -0.511
vt 0.550000 0.312500
vt 0.575000 0.312500
vt 0.575000 0.687500
vt 0.550000 0.687500
vt 0.600000 0.312500
vt 0.600000 0.687500
vt 0.575000 0.423151
vt 0.550000 0.423151
vt 0.550000 0.426072
vt 0.575000 0.426072
vt 0.600000 0.423151
vt 0.600000 0.426072
vt 0.525000 0.312500
vt 0.525000 0.687500
vt 0.525000 0.423151
vt 0.525000 0.426072
vt 0.625000 0.312500
vt 0.625000 0.687500
vt 0.625000 0.423151
vt 0.625000 0.426072
vt 0.550000 0.312500
vt 0.575000 0.312500
vt 0.575000 0.687500
vt 0.550000 0.687500
vt 0.600000 0.312500
vt 0.600000 0.687500
vt 0.575000 0.410427
vt 0.550000 0.410427
vt 0.550000 0.413348
vt 0.575000 0.413348
vt 0.500000 0.312500
vt 0.500000 0.687500
vt 0.600000 0.410427
vt 0.600000 0.413348
vt 0.500000 0.423151
vt 0.500000 0.426072
vt 0.525000 0.312500
vt 0.525000 0.687500
vt 0.525000 0.410427
vt 0.525000 0.413348
vt 0.400000 0.423151
vt 0.375000 0.423151
vt 0.375000 0.426072
vt 0.400000 0.426072
vt 0.375000 0.312500
vt 0.400000 0.312500
vt 0.400000 0.687500
vt 0.375000 0.687500
vt 0.625000 0.312500
vt 0.625000 0.687500
vt 0.625000 0.410427
vt 0.625000 0.413348
vt 0.550000 0.312500
vt 0.575000 0.312500
vt 0.575000 0.687500
vt 0.550000 0.687500
vt 0.600000 0.312500
vt 0.600000 0.687500
vt 0.475000 0.423151
vt 0.475000 0.426072
vt 0.575000 0.397702
vt 0.550000 0.397702
vt 0.550000 0.400623
vt 0.575000 0.400623
vt 0.475000 0.312500
vt 0.475000 0.687500
vt 0.500000 0.312500
vt 0.500000 0.687500
vt 0.600000 0.397702
vt 0.600000 0.400623
vt 0.500000 0.410427
vt 0.500000 0.413348
vt 0.525000 0.312500
vt 0.525000 0.687500
vt 0.425000 0.423151
vt 0.425000 0.426072
vt 0.525000 0.397702
vt 0.525000 0.400623
vt 0.425000 0.312500
vt 0.425000 0.687500
vt 0.400000 0.410427
vt 0.375000 0.410427
vt 0.375000 0.413348
vt 0.400000 0.413348
vt 0.450000 0.423151
vt 0.450000 0.426072
vt 0.375000 0.312500
vt 0.400000 0.312500
vt 0.400000 0.687500
vt 0.375000 0.687500
vt 0.625000 0.312500
vt 0.625000 0.687500
vt 0.625000 0.397702
vt 0.625000 0.400623
vt 0.450000 0.312500
vt 0.450000 0.687500
vt 0.475000 0.410427
vt 0.475000 0.413348
vt 0.475000 0.312500
vt 0.475000 0.687500
vt 0.500000 0.312500
vt 0.500000 0.687500
vt 0.500000 0.397702
vt 0.500000 0.400623
vt 0.425000 0.410427
vt 0.425000 0.413348
vt 0.425000 0.312500
vt 0.425000 0.687500
vt 0.400000 0.397702
vt 0.375000 0.397702
vt 0.375000 0.400623
vt 0.400000 0.400623
vt 0.450000 0.410427
vt 0.450000 0.413348
vt 0.375000 0.312500
vt 0.400000 0.312500
vt 0.400000 0.687500
vt 0.375000 0.687500
vt 0.450000 0.312500
vt 0.450000 0.687500
vt 0.475000 0.397702
vt 0.475000 0.400623
vt 0.475000 0.312500
vt 0.475000 0.687500
vt 0.425000 0.397702
vt 0.425000 0.400623
vt 0.425000 0.312500
vt 0.425000 0.687500
vt 0.450000 0.397702
vt 0.450000 0.400623
vt 0.450000 0.312500
vt 0.450000 0.687500
vt 0.632721 0.843750
vt 0.607373 0.765739
vt 0.541013 0.717525
vt 0.458987 0.717525
vt 0.392627 0.765739
vt 0.367279 0.843750
vt 0.343750 0.843750
vt 0.373591 0.751909
vt 0.451716 0.695147
vt 0.548284 0.695147
vt 0.626409 0.751909
vt 0.656250 0.843750
vt 0.656250 0.156250
vt 0.626409 0.248091
vt 0.548284 0.304853
vt 0.451716 0.304853
vt 0.373591 0.248091
vt 0.343750 0.156250
vt 0.367279 0.156250
vt 0.392627 0.234261
vt 0.458987 0.282475
vt 0.541013 0.282475
vt 0.607373 0.234261
vt 0.632720 0.156250
vt 0.632721 0.843750
vt 0.607373 0.765739
vt 0.541013 0.717525
vt 0.458987 0.717525
vt 0.392627 0.765739
vt 0.367279 0.843750
vt 0.343750 0.843750
vt 0.373591 0.751909
vt 0.451716 0.695147
vt 0.548284 0.695147
vt 0.626409 0.751909
vt 0.656250 0.843750
vt 0.626409 0.935591
vt 0.548284 0.992353
vt 0.451716 0.992353
vt 0.373591 0.935591
vt 0.392627 0.921761
vt 0.458987 0.969975
vt 0.541013 0.969975
vt 0.607373 0.921761
vt 0.656250 0.156250
vt 0.626409 0.248091
vt 0.548284 0.304853
vt 0.451716 0.304853
vt 0.373591 0.248091
vt 0.343750 0.156250
vt 0.367279 0.156250
vt 0.392627 0.234261
vt 0.458987 0.282475
vt 0.541013 0.282475
vt 0.607373 0.234261
vt 0.632720 0.156250
vt 0.626409 0.064409
vt 0.607373 0.078239
vt 0.541013 0.030025
vt 0.458987 0.030025
vt 0.392627 0.078239
vt 0.373591 0.064409
vt 0.451716 0.007647
vt 0.548284 0.007647
vt 0.632721 0.843750
vt 0.607373 0.765739
vt 0.541013 0.717525
vt 0.458987 0.717525
vt 0.392627 0.765739
vt 0.367279 0.843750
vt 0.343750 0.843750
vt 0.373591 0.751909
vt 0.451716 0.695147
vt 0.548284 0.695147
vt 0.626409 0.751909
vt 0.656250 0.843750
vt 0.626409 0.935591
vt 0.548284 0.992353
vt 0.451716 0.992353
vt 0.373591 0.935591
vt 0.392627 0.921761
vt 0.458987 0.969975
vt 0.541013 0.969975
vt 0.607373 0.921761
vt 0.656250 0.156250
vt 0.626409 0.248091
vt 0.548284 0.304853
vt 0.451716 0.304853
vt 0.373591 0.248091
vt 0.343750 0.156250
vt 0.367279 0.156250
vt 0.392627 0.234261
vt 0.458987 0.282475
vt 0.541013 0.282475
vt 0.607373 0.234261
vt 0.632720 0.156250
vt 0.626409 0.064409
vt 0.607373 0.078239
vt 0.541013 0.030025
vt 0.458987 0.030025
vt 0.392627 0.078239
vt 0.373591 0.064409
vt 0.451716 0.007647
vt 0.548284 0.007647
vt 0.626409 0.935591
vt 0.548284 0.992353
vt 0.451716 0.992353
vt 0.373591 0.935591
vt 0.392627 0.921761
vt 0.458987 0.969975
vt 0.541013 0.969975
vt 0.607373 0.921761
vt 0.626409 0.064409
vt 0.607373 0.078239
vt 0.541013 0.030025
vt 0.458987 0.030025
vt 0.392627 0.078239
vt 0.373591 0.064409
vt 0.451716 0.007647
vt 0.548284 0.007647
vn 0.587785 0.000000 0.809017
vn 0.587785 0.000000 0.809017
vn 0.587785 0.000000 0.809017
vn 0.587785 0.000000 0.809017
vn 0.951057 0.000000 0.309017
vn 0.951057 0.000000 0.309017
vn 0.951057 0.000000 0.309017
vn 0.951057 0.000000 0.309017
vn -0.587785 0.000000 -0.809017
vn -0.587785 0.000000 -0.809017
vn -0.587785 0.000000 -0.809017
vn -0.587785 0.000000 -0.809017
vn -0.951057 0.000000 -0.309017
vn -0.951057 0.000000 -0.309017
vn -0.951057 0.000000 -0.309017
vn -0.951057 0.000000 -0.309017
vn 0.000000 0.000000 1.000000
vn 0.000000 0.000000 1.000000
vn 0.000000 0.000000 1.000000
vn 0.000000 0.000000 1.000000
vn -0.000000 0.000000 -1.000000
vn -0.000000 0.000000 -1.000000
vn -0.000000 0.000000 -1.000000
vn -0.000000 0.000000 -1.000000
vn 0.951057 0.000000 -0.309017
vn 0.951057 0.000000 -0.309017
vn 0.951057 0.000000 -0.309017
vn 0.951057 0.000000 -0.309017
vn -0.951057 0.000000 0.309017
vn -0.951057 0.000000 0.309017
vn -0.951057 0.000000 0.309017
vn -0.951057 0.000000 0.309017
vn 0.587785 0.000000 0.809017
vn 0.587785 0.000000 0.809017
vn 0.587785 0.000000 0.809017
vn 0.587785 0.000000 0.809017
vn 0.951057 0.000000 0.309017
vn 0.951057 0.000000 0.309017
vn 0.951057 0.000000 0.309017
vn 0.951057 0.000000 0.309017
vn -0.587786 0.000000 -0.809016
vn -0.587786 0.000000 -0.809016
vn -0.587786 0.000000 -0.809016
vn -0.587786 0.000000 -0.809016
vn -0.587785 0.000000 0.809017
vn -0.587785 0.000000 0.809017
vn -0.587785 0.000000 0.809017
vn -0.587785 0.000000 0.809017
vn -0.951057 0.000000 -0.309017
vn -0.951057 0.000000 -0.309017
vn -0.951057 0.000000 -0.309017
vn -0.951057 0.000000 -0.309017
vn 0.587785 0.000000 -0.809017
vn 0.587785 0.000000 -0.809017
vn 0.587785 0.000000 -0.809017
vn 0.587785 0.000000 -0.809017
vn 0.000000 0.000000 1.000000
vn 0.000000 0.000000 1.000000
vn 0.000000 0.000000 1.000000
vn 0.000000 0.000000 1.000000
vn -0.000000 0.000000 -1.000000
vn -0.000000 0.000000 -1.000000
vn -0.000000 0.000000 -1.000000
vn -0.000000 0.000000 -1.000000
vn -0.587785 0.000000 0.809017
vn -0.587785 0.000000 0.809017
vn -0.587785 0.000000 0.809017
vn -0.587785 0.000000 0.809017
vn 0.587785 0.000000 -0.809017
vn 0.587785 0.000000 -0.809017
vn 0.587785 0.000000 -0.809017
vn 0.587785 0.000000 -0.809017
vn 0.951057 0.000000 -0.309017
vn 0.951057 0.000000 -0.309017
vn 0.951057 0.000000 -0.309017
vn 0.951057 0.000000 -0.309017
vn -0.951057 0.000000 0.309017
vn -0.951057 0.000000 0.309017
vn -0.951057 0.000000 0.309017
vn -0.951057 0.000000 0.309017
vn 0.587786 0.000000 0.809016
vn 0.587786 0.000000 0.809016
vn 0.587786 0.000000 0.809016
vn 0.587786 0.000000 0.809016
vn 0.951056 0.000000 0.309017
vn 0.951056 0.000000 0.309017
vn 0.951056 0.000000 0.309017
vn 0.951056 0.000000 0.309017
vn 0.951056 0.000000 -0.309017
vn 0.951056 0.000000 -0.309017
vn 0.951056 0.000000 -0.309017
vn 0.951056 0.000000 -0.309017
vn -0.587785 0.000000 -0.809017
vn -0.587785 0.000000 -0.809017
vn -0.587785 0.000000 -0.809017
vn -0.587785 0.000000 -0.809017
vn -0.951056 0.000000 0.309017
vn -0.951056 0.000000 0.309017
vn -0.951056 0.000000 0.309017
vn -0.951056 0.000000 0.309017
vn -0.587785 0.000000 0.809017
vn -0.587785 0.000000 0.809017
vn -0.587785 0.000000 0.809017
vn -0.587785 0.000000 0.809017
vn -0.951057 0.000000 -0.309017
vn -0.951057 0.000000 -0.309017
vn -0.951057 0.000000 -0.309017
vn -0.951057 0.000000 -0.309017
vn 0.587785 0.000000 -0.809017
vn 0.587785 0.000000 -0.809017
vn 0.587785 0.000000 -0.809017
vn 0.587785 0.000000 -0.809017
vn 0.000000 0.000000 1.000000
vn 0.000000 0.000000 1.000000
vn 0.000000 0.000000 1.000000
vn 0.000000 0.000000 1.000000
vn 0.000000 0.000000 1.000000
vn 0.000000 0.000000 1.000000
vn 0.000000 0.000000 1.000000
vn 0.000000 0.000000 1.000000
vn -0.000000 0.000000 -1.000000
vn -0.000000 0.000000 -1.000000
vn -0.000000 0.000000 -1.000000
vn -0.000000 0.000000 -1.000000
vn -0.000000 0.000000 -1.000000
vn -0.000000 0.000000 -1.000000
vn -0.000000 0.000000 -1.000000
vn -0.000000 0.000000 -1.000000
vn -0.587785 0.000000 0.809017
vn -0.587785 0.000000 0.809017
vn -0.587785 0.000000 0.809017
vn -0.587785 0.000000 0.809017
vn 0.951057 0.000000 0.309017
vn 0.951057 0.000000 0.309017
vn 0.951057 0.000000 0.309017
vn 0.951057 0.000000 0.309017
vn 0.587785 0.000000 -0.809017
vn 0.587785 0.000000 -0.809017
vn 0.587785 0.000000 -0.809017
vn 0.587785 0.000000 -0.809017
vn 0.951057 0.000000 -0.309017
vn 0.951057 0.000000 -0.309017
vn 0.951057 0.000000 -0.309017
vn 0.951057 0.000000 -0.309017
vn 0.587785 0.000000 0.809017
vn 0.587785 0.000000 0.809017
vn 0.587785 0.000000 0.809017
vn 0.587785 0.000000 0.809017
vn -0.951057 0.000000 0.309017
vn -0.951057 0.000000 0.309017
vn -0.951057 0.000000 0.309017
vn -0.951057 0.000000 0.309017
vn -0.951057 0.000000 -0.309017
vn -0.951057 0.000000 -0.309017
vn -0.951057 0.000000 -0.309017
vn -0.951057 0.000000 -0.309017
vn -0.587785 0.000000 -0.809017
vn -0.587785 0.000000 -0.809017
vn -0.587785 0.000000 -0.809017
vn -0.587785 0.000000 -0.809017
vn 0.951057 0.000000 -0.309017
vn 0.951057 0.000000 -0.309017
vn 0.951057 0.000000 -0.309017
vn 0.951057 0.000000 -0.309017
vn -0.951057 0.000000 0.309017
vn -0.951057 0.000000 0.309017
vn -0.951057 0.000000 0.309017
vn -0.951057 0.000000 0.309017
vn -0.587786 0.000000 0.809016
vn -0.587786 0.000000 0.809016
vn -0.587786 0.000000 0.809016
vn -0.587786 0.000000 0.809016
vn 0.587785 0.000000 -0.809017
vn 0.587785 0.000000 -0.809017
vn 0.587785 0.000000 -0.809017
vn 0.587785 0.000000 -0.809017
vn 0.000000 0.000000 1.000000
vn 0.000000 0.000000 1.000000
vn 0.000000 0.000000 1.000000
vn 0.000000 0.000000 1.000000
vn -0.000000 0.000000 -1.000000
vn -0.000000 0.000000 -1.000000
vn -0.000000 0.000000 -1.000000
vn -0.000000 0.000000 -1.000000
vn -0.587785 0.000000 0.809017
vn -0.587785 0.000000 0.809017
vn -0.587785 0.000000 0.809017
vn -0.587785 0.000000 0.809017
vn 0.951057 0.000000 0.309017
vn 0.951057 0.000000 0.309017
vn 0.951057 0.000000 0.309017
vn 0.951057 0.000000 0.309017
vn 0.587786 0.000000 -0.809016
vn 0.587786 0.000000 -0.809016
vn 0.587786 0.000000 -0.809016
vn 0.587786 0.000000 -0.809016
vn 0.587786 0.000000 0.809016
vn 0.587786 0.000000 0.809016
vn 0.587786 0.000000 0.809016
vn 0.587786 0.000000 0.809016
vn -0.951057 0.000000 -0.309017
vn -0.951057 0.000000 -0.309017
vn -0.951057 0.000000 -0.309017
vn -0.951057 0.000000 -0.309017
vn -0.587786 0.000000 -0.809016
vn -0.587786 0.000000 -0.809016
vn -0.587786 0.000000 -0.809016
vn -0.587786 0.000000 -0.809016
vn 0.951057 0.000000 -0.309017
vn 0.951057 0.000000 -0.309017
vn 0.951057 0.000000 -0.309017
vn 0.951057 0.000000 -0.309017
vn -0.951056 0.000000 0.309017
vn -0.951056 0.000000 0.309017
vn -0.951056 0.000000 0.309017
vn -0.951056 0.000000 0.309017
vn 0.000000 0.000000 1.000000
vn 0.000000 0.000000 1.000000
vn 0.000000 0.000000 1.000000
vn 0.000000 0.000000 1.000000
vn -0.000000 0.000000 -1.000000
vn -0.000000 0.000000 -1.000000
vn -0.000000 0.000000 -1.000000
vn -0.000000 0.000000 -1.000000
vn 0.951057 0.000000 0.309017
vn 0.951057 0.000000 0.309017
vn 0.951057 0.000000 0.309017
vn 0.951057 0.000000 0.309017
vn 0.587785 0.000000 0.809017
vn 0.587785 0.000000 0.809017
vn 0.587785 0.000000 0.809017
vn 0.587785 0.000000 0.809017
vn -0.951057 0.000000 -0.309017
vn -0.951057 0.000000 -0.309017
vn -0.951057 0.000000 -0.309017
vn -0.951057 0.000000 -0.309017
vn -0.587785 0.000000 -0.809017
vn -0.587785 0.000000 -0.809017
vn -0.587785 0.000000 -0.809017
vn -0.587785 0.000000 -0.809017
vn 0.000000 1.000000 -0.000001
vn 0.000000 1.000000 -0.000002
vn 0.000000 1.000000 -0.000002
vn 0.000000 1.000000 -0.000002
vn 0.000000 1.000000 -0.000002
vn 0.000000 1.000000 -0.000001
vn 0.000000 1.000000 -0.000001
vn 0.000000 1.000000 -0.000002
vn 0.000000 1.000000 -0.000002
vn 0.000000 1.000000 -0.000002
vn 0.000000 1.000000 -0.000002
vn 0.000000 1.000000 -0.000001
vn 0.000000 -1.000000 -0.000002
vn 0.000000 -1.000000 -0.000001
vn 0.000000 -1.000000 -0.000001
vn 0.000000 -1.000000 -0.000001
vn 0.000000 -1.000000 -0.000001
vn 0.000000 -1.000000 -0.000002
vn 0.000000 -1.000000 -0.000002
vn 0.000000 -1.000000 -0.000001
vn 0.000000 -1.000000 -0.000001
vn 0.000000 -1.000000 -0.000001
vn 0.000000 -1.000000 -0.000001
vn 0.000000 -1.000000 -0.000002
vn 0.000000 1.000000 0.000001
vn 0.000000 1.000000 -0.000002
vn 0.000000 1.000000 -0.000002
vn 0.000000 1.000000 -0.000002
vn 0.000000 1.000000 -0.000002
vn 0.000000 1.000000 0.000001
vn 0.000000 1.000000 0.000001
vn 0.000000 1.000000 -0.000002
vn 0.000000 1.000000 -0.000002
vn 0.000000 1.000000 -0.000002
vn 0.000000 1.000000 -0.000002
vn 0.000000 1.000000 0.000001
vn 0.000000 1.000000 0.000000
vn 0.000000 1.000000 0.000000
vn 0.000000 1.000000 0.000000
vn 0.000000 1.000000 0.000000
vn 0.000000 1.000000 0.000000
vn 0.000000 1.000000 0.000000
vn 0.000000 1.000000 0.000000
vn 0.000000 1.000000 0.000000
vn 0.000000 -1.000000 -0.000000
vn 0.000000 -1.000000 0.000000
vn 0.000000 -1.000000 0.000000
vn 0.000000 -1.000000 0.000000
vn 0.000000 -1.000000 0.000000
vn 0.000000 -1.000000 -0.000000
vn 0.000000 -1.000000 -0.000000
vn 0.000000 -1.000000 0.000000
vn 0.000000 -1.000000 0.000000
vn 0.000000 -1.000000 0.000000
vn 0.000000 -1.000000 0.000000
vn 0.000000 -1.000000 -0.000000
vn 0.000000 -1.000000 -0.000003
vn 0.000000 -1.000000 -0.000003
vn 0.000000 -1.000000 -0.000003
vn 0.000000 -1.000000 -0.000003
vn 0.000000 -1.000000 -0.000003
vn 0.000000 -1.000000 -0.000003
vn 0.000000 -1.000000 -0.000003
vn 0.000000 -1.000000 -0.000003
vn 0.000000 1.000000 0.000002
vn 0.000000 1.000000 0.000002
vn 0.000000 1.000000 0.000002
vn 0.000000 1.000000 0.000002
vn 0.000000 1.000000 0.000002
vn 0.000000 1.000000 0.000002
vn 0.000000 1.000000 0.000002
vn 0.000000 1.000000 0.000002
vn 0.000000 1.000000 0.000002
vn 0.000000 1.000000 0.000002
vn 0.000000 1.000000 0.000002
vn 0.000000 1.000000 0.000002
vn 0.000000 1.000000 0.000004
vn 0.000000 1.000000 0.000004
vn 0.000000 1.000000 0.000004
vn 0.000000 1.000000 0.000004
vn 0.000000 1.000000 0.000004
vn 0.000000 1.000000 0.000004
vn 0.000000 1.000000 0.000004
vn 0.000000 1.000000 0.000004
vn 0.000000 -1.000000 -0.000000
vn 0.000000 -1.000000 -0.000002
vn 0.000000 -1.000000 -0.000002
vn 0.000000 -1.000000 -0.000002
vn 0.000000 -1.000000 -0.000002
vn 0.000000 -1.000000 -0.000000
vn 0.000000 -1.000000 -0.000000
vn 0.000000 -1.000000 -0.000002
vn 0.000000 -1.000000 -0.000002
vn 0.000000 -1.000000 -0.000002
vn 0.000000 -1.000000 -0.000002
vn 0.000000 -1.000000 -0.000000
vn 0.000000 -1.000000 -0.000001
vn 0.000000 -1.000000 -0.000001
vn 0.000000 -1.000000 -0.000001
vn 0.000000 -1.000000 -0.000001
vn 0.000000 -1.000000 -0.000001
vn 0.000000 -1.000000 -0.000001
vn 0.000000 -1.000000 -0.000001
vn 0.000000 -1.000000 -0.000001
vn 0.000000 1.000000 0.000002
vn 0.000000 1.000000 0.000002
vn 0.000000 1.000000 0.000002
vn 0.000000 1.000000 0.000002
vn 0.000000 1.000000 0.000002
vn 0.000000 1.000000 0.000002
vn 0.000000 1.000000 0.000002
vn 0.000000 1.000000 0.000002
vn 0.000000 -1.000000 0.000002
vn 0.000000 -1.000000 0.000002
vn 0.000000 -1.000000 0.000002
vn 0.000000 -1.000000 0.000002
vn 0.000000 -1.000000 0.000002
vn 0.000000 -1.000000 0.000002
vn 0.000000 -1.000000 0.000002
vn 0.000000 -1.000000 0.000002
s off
g group1 polySurface7
usemtl standardSurface2SG
f 41/85/121 42/86/122 43/87/123 44/88/124
f 42/86/125 45/89/126 46/90/127 43/87/128
f 47/91/129 48/92/130 49/93/131 50/94/132
f 51/95/133 47/91/134 50/94/135 52/96/136
f 53/97/137 41/85/138 44/88/139 54/98/140
f 48/92/141 55/99/142 56/100/143 49/93/144
f 45/89/145 57/101/146 58/102/147 46/90/148
f 59/103/149 51/95/150 52/96/151 60/104/152
f 61/105/153 62/106/154 63/107/155 64/108/156
f 62/106/157 65/109/158 66/110/159 63/107/160
f 67/111/161 68/112/162 69/113/163 70/114/164
f 71/115/165 53/97/166 54/98/167 72/116/168
f 73/117/169 67/111/170 70/114/171 74/118/172
f 55/99/173 75/119/174 76/120/175 56/100/176
f 77/121/177 61/105/178 64/108/179 78/122/180
f 68/112/181 79/123/182 80/124/183 69/113/184
f 81/125/185 59/126/186 60/127/187 82/128/188
f 57/129/189 83/130/190 84/131/191 58/132/192
f 65/109/193 85/133/194 86/134/195 66/110/196
f 87/135/197 73/117/198 74/118/199 88/136/200
f 89/137/201 90/138/202 91/139/203 92/140/204
f 90/138/205 93/141/206 94/142/207 91/139/208
f 75/119/209 95/143/210 96/144/211 76/120/212
f 97/145/213 98/146/214 99/147/215 100/148/216
f 101/149/217 71/115/218 72/116/219 102/150/220
f 103/151/221 77/121/222 78/122/223 104/152/224
f 105/153/225 97/145/226 100/148/227 106/154/228
f 79/123/229 107/155/230 108/156/231 80/124/232
f 109/157/233 89/137/234 92/140/235 110/158/236
f 111/159/237 81/125/238 82/128/239 112/160/240
f 98/146/241 113/161/242 114/162/243 99/147/244
f 83/130/245 115/163/246 116/164/247 84/131/248
f 117/165/249 87/166/250 88/167/251 118/168/252
f 95/143/253 119/169/254 120/170/255 96/144/256
f 85/171/257 121/172/258 122/173/259 86/174/260
f 93/141/261 123/175/262 124/176/263 94/142/264
f 119/169/265 111/159/266 112/160/267 120/170/268
f 125/177/269 105/153/270 106/154/271 126/178/272
f 127/179/273 101/149/274 102/150/275 128/180/276
f 115/163/277 127/179/278 128/180/279 116/164/280
f 107/155/281 129/181/282 130/182/283 108/156/284
f 131/183/285 103/151/286 104/152/287 132/184/288
f 133/185/289 109/157/290 110/158/291 134/186/292
f 113/161/293 135/187/294 136/188/295 114/162/296
f 137/189/297 117/165/298 118/168/299 138/190/300
f 121/172/301 139/191/302 140/192/303 122/173/304
f 141/193/305 125/194/306 126/195/307 142/196/308
f 129/181/309 143/197/310 144/198/311 130/182/312
f 123/199/313 145/200/314 146/201/315 124/202/316
f 143/197/317 137/189/318 138/190/319 144/198/320
f 147/203/321 131/183/322 132/184/323 148/204/324
f 139/191/325 147/203/326 148/204/327 140/192/328
f 135/187/329 149/205/330 150/206/331 136/188/332
f 151/207/333 133/185/334 134/186/335 152/208/336
f 153/209/337 141/193/338 142/196/339 154/210/340
f 145/200/341 155/211/342 156/212/343 146/201/344
f 149/205/345 157/213/346 158/214/347 150/206/348
f 157/213/349 153/209/350 154/210/351 158/214/352
f 159/215/353 151/207/354 152/208/355 160/216/356
f 155/211/357 159/215/358 160/216/359 156/212/360
s 1
f 46/228/372 52/217/361 50/218/362
f 76/221/365 96/222/366 102/223/367
f 76/221/365 102/223/367 72/224/368
f 56/220/364 76/221/365 72/224/368
f 56/220/364 72/224/368 54/225/369
f 49/219/363 56/220/364 54/225/369
f 49/219/363 54/225/369 44/226/370
f 50/218/362 49/219/363 44/226/370
f 50/218/362 44/226/370 43/227/371
f 50/218/362 43/227/371 46/228/372
s 2
f 51/240/384 45/229/373 42/230/374
f 71/233/377 101/234/378 95/235/379
f 71/233/377 95/235/379 75/236/380
f 53/232/376 71/233/377 75/236/380
f 53/232/376 75/236/380 55/237/381
f 41/231/375 53/232/376 55/237/381
f 41/231/375 55/237/381 48/238/382
f 42/230/374 41/231/375 48/238/382
f 42/230/374 48/238/382 47/239/383
f 42/230/374 47/239/383 51/240/384
s 3
f 66/252/396 74/241/385 70/242/386
f 108/245/389 130/246/390 132/247/391
f 108/245/389 132/247/391 104/248/392
f 80/244/388 108/245/389 104/248/392
f 80/244/388 104/248/392 78/249/393
f 69/243/387 80/244/388 78/249/393
f 69/243/387 78/249/393 64/250/394
f 70/242/386 69/243/387 64/250/394
f 70/242/386 64/250/394 63/251/395
f 70/242/386 63/251/395 66/252/396
s 1
f 128/256/400 102/223/367 96/222/366
f 128/256/400 96/222/366 120/257/401
f 116/255/399 128/256/400 120/257/401
f 116/255/399 120/257/401 112/258/402
f 84/254/398 116/255/399 112/258/402
f 84/254/398 112/258/402 82/259/403
f 58/253/397 84/254/398 82/259/403
f 58/253/397 82/259/403 60/260/404
f 46/228/372 58/253/397 60/260/404
f 60/260/404 52/217/361 46/228/372
s 4
f 73/272/416 65/261/405 62/262/406
f 103/265/409 131/266/410 129/267/411
f 103/265/409 129/267/411 107/268/412
f 77/264/408 103/265/409 107/268/412
f 77/264/408 107/268/412 79/269/413
f 61/263/407 77/264/408 79/269/413
f 61/263/407 79/269/413 68/270/414
f 62/262/406 61/263/407 68/270/414
f 62/262/406 68/270/414 67/271/415
f 62/262/406 67/271/415 73/272/416
s 2
f 57/273/417 45/229/373 51/240/384
f 57/273/417 51/240/384 59/274/418
f 83/280/424 57/273/417 59/274/418
f 83/280/424 59/274/418 81/275/419
f 83/280/424 81/275/419 111/276/420
f 119/277/421 95/235/379 101/234/378
f 119/277/421 101/234/378 127/278/422
f 111/276/420 119/277/421 127/278/422
f 111/276/420 127/278/422 115/279/423
f 111/276/420 115/279/423 83/280/424
s 5
f 94/292/436 106/281/425 100/282/426
f 136/285/429 150/286/430 152/287/431
f 136/285/429 152/287/431 134/288/432
f 114/284/428 136/285/429 134/288/432
f 114/284/428 134/288/432 110/289/433
f 99/283/427 114/284/428 110/289/433
f 99/283/427 110/289/433 92/290/434
f 100/282/426 99/283/427 92/290/434
f 100/282/426 92/290/434 91/291/435
f 100/282/426 91/291/435 94/292/436
s 3
f 148/296/440 132/247/391 130/246/390
f 148/296/440 130/246/390 144/297/441
f 140/295/439 148/296/440 144/297/441
f 140/295/439 144/297/441 138/298/442
f 122/294/438 140/295/439 138/298/442
f 122/294/438 138/298/442 118/299/443
f 86/293/437 122/294/438 118/299/443
f 86/293/437 118/299/443 88/300/444
f 66/252/396 86/293/437 88/300/444
f 88/300/444 74/241/385 66/252/396
s 6
f 105/312/456 93/301/445 90/302/446
f 133/305/449 151/306/450 149/307/451
f 133/305/449 149/307/451 135/308/452
f 109/304/448 133/305/449 135/308/452
f 109/304/448 135/308/452 113/309/453
f 89/303/447 109/304/448 113/309/453
f 89/303/447 113/309/453 98/310/454
f 90/302/446 89/303/447 98/310/454
f 90/302/446 98/310/454 97/311/455
f 90/302/446 97/311/455 105/312/456
s 4
f 85/313/457 65/261/405 73/272/416
f 85/313/457 73/272/416 87/314/458
f 121/320/464 85/313/457 87/314/458
f 121/320/464 87/314/458 117/315/459
f 121/320/464 117/315/459 137/316/460
f 143/317/461 129/267/411 131/266/410
f 143/317/461 131/266/410 147/318/462
f 137/316/460 143/317/461 147/318/462
f 137/316/460 147/318/462 139/319/463
f 137/316/460 139/319/463 121/320/464
s 5
f 160/324/468 152/287/431 150/286/430
f 160/324/468 150/286/430 158/325/469
f 156/323/467 160/324/468 158/325/469
f 156/323/467 158/325/469 154/326/470
f 146/322/466 156/323/467 154/326/470
f 146/322/466 154/326/470 142/327/471
f 124/321/465 146/322/466 142/327/471
f 124/321/465 142/327/471 126/328/472
f 94/292/436 124/321/465 126/328/472
f 126/328/472 106/281/425 94/292/436
s 6
f 123/329/473 93/301/445 105/312/456
f 123/329/473 105/312/456 125/330/474
f 145/336/480 123/329/473 125/330/474
f 145/336/480 125/330/474 141/331/475
f 145/336/480 141/331/475 153/332/476
f 157/333/477 149/307/451 151/306/450
f 157/333/477 151/306/450 159/334/478
f 153/332/476 157/333/477 159/334/478
f 153/332/476 159/334/478 155/335/479
f 153/332/476 155/335/479 145/336/480
g default
v 0.867 2.907 -0.132
v 0.867 2.794 -0.214
v 0.867 2.655 -0.214
v 0.867 2.543 -0.132
v 0.867 2.500 0.000
v 0.867 2.543 0.132
v 0.867 2.655 0.214
v 0.867 2.794 0.214
v 0.867 2.907 0.132
v 0.867 2.949 0.000
v 0.762 2.907 -0.132
v 0.762 2.794 -0.214
v 0.762 2.655 -0.214
v 0.762 2.543 -0.132
v 0.762 2.500 0.000
v 0.762 2.543 0.132
v 0.762 2.655 0.214
v 0.762 2.794 0.214
v 0.762 2.907 0.132
v 0.762 2.949 0.000
vt 0.626409 0.064409
vt 0.548284 0.007647
vt 0.451716 0.007647
vt 0.373591 0.064409
vt 0.343750 0.156250
vt 0.373591 0.248091
vt 0.451716 0.304853
vt 0.548284 0.304853
vt 0.626409 0.248091
vt 0.656250 0.156250
vt 0.375000 0.312500
vt 0.400000 0.312500
vt 0.425000 0.312500
vt 0.450000 0.312500
vt 0.475000 0.312500
vt 0.500000 0.312500
vt 0.525000 0.312500
vt 0.550000 0.312500
vt 0.575000 0.312500
vt 0.600000 0.312500
vt 0.625000 0.312500
vt 0.375000 0.687500
vt 0.400000 0.687500
vt 0.425000 0.687500
vt 0.450000 0.687500
vt 0.475000 0.687500
vt 0.500000 0.687500
vt 0.525000 0.687500
vt 0.550000 0.687500
vt 0.575000 0.687500
vt 0.600000 0.687500
vt 0.625000 0.687500
vt 0.626409 0.751909
vt 0.548284 0.695147
vt 0.451716 0.695147
vt 0.373591 0.751909
vt 0.343750 0.843750
vt 0.373591 0.935591
vt 0.451716 0.992353
vt 0.548284 0.992353
vt 0.626409 0.935591
vt 0.656250 0.843750
vn 0.000000 0.587785 -0.809017
vn 0.000000 0.587785 -0.809017
vn 0.000000 0.587785 -0.809017
vn 0.000000 0.587785 -0.809017
vn -0.000000 -0.000000 -1.000000
vn -0.000000 -0.000000 -1.000000
vn -0.000000 -0.000000 -1.000000
vn -0.000000 -0.000000 -1.000000
vn -0.000000 -0.587785 -0.809017
vn -0.000000 -0.587785 -0.809017
vn -0.000000 -0.587785 -0.809017
vn -0.000000 -0.587785 -0.809017
vn -0.000000 -0.951057 -0.309017
vn -0.000000 -0.951057 -0.309017
vn -0.000000 -0.951057 -0.309017
vn -0.000000 -0.951057 -0.309017
vn 0.000000 -0.951057 0.309017
vn 0.000000 -0.951057 0.309017
vn 0.000000 -0.951057 0.309017
vn 0.000000 -0.951057 0.309017
vn 0.000000 -0.587785 0.809017
vn 0.000000 -0.587785 0.809017
vn 0.000000 -0.587785 0.809017
vn 0.000000 -0.587785 0.809017
vn 0.000000 0.000000 1.000000
vn 0.000000 0.000000 1.000000
vn 0.000000 0.000000 1.000000
vn 0.000000 0.000000 1.000000
vn 0.000000 0.587785 0.809017
vn 0.000000 0.587785 0.809017
vn 0.000000 0.587785 0.809017
vn 0.000000 0.587785 0.809017
vn 0.000000 0.951057 0.309017
vn 0.000000 0.951057 0.309017
vn 0.000000 0.951057 0.309017
vn 0.000000 0.951057 0.309017
vn 0.000000 0.951057 -0.309017
vn 0.000000 0.951057 -0.309017
vn 0.000000 0.951057 -0.309017
vn 0.000000 0.951057 -0.309017
vn 1.000000 0.000000 0.000000
vn 1.000000 0.000000 0.000000
vn 1.000000 0.000000 0.000000
vn 1.000000 0.000000 0.000000
vn 1.000000 0.000000 0.000000
vn 1.000000 0.000000 0.000000
vn 1.000000 0.000000 0.000000
vn 1.000000 0.000000 0.000000
vn 1.000000 0.000000 0.000000
vn 1.000000 0.000000 0.000000
vn -1.000000 0.000000 -0.000000
vn -1.000000 0.000000 -0.000000
vn -1.000000 0.000000 -0.000000
vn -1.000000 0.000000 -0.000000
vn -1.000000 0.000000 -0.000000
vn -1.000000 0.000000 -0.000000
vn -1.000000 0.000000 -0.000000
vn -1.000000 0.000000 -0.000000
vn -1.000000 0.000000 -0.000000
vn -1.000000 0.000000 -0.000000
s off
g group1 pCylinder7
usemtl standardSurface4SG
f 161/347/481 162/348/482 172/359/483 171/358/484
f 162/348/485 163/349/486 173/360/487 172/359/488
f 163/349/489 164/350/490 174/361/491 173/360/492
f 164/350/493 165/351/494 175/362/495 174/361/496
f 165/351/497 166/352/498 176/363/499 175/362/500
f 166/352/501 167/353/502 177/364/503 176/363/504
f 167/353/505 168/354/506 178/365/507 177/364/508
f 168/354/509 169/355/510 179/366/511 178/365/512
f 169/355/513 170/356/514 180/367/515 179/366/516
f 170/356/517 161/357/518 171/368/519 180/367/520
f 162/338/530 161/337/521 170/346/522
f 162/338/530 170/346/522 169/345/523
f 162/338/530 169/345/523 168/344/524
f 162/338/530 168/344/524 167/343/525
f 162/338/530 167/343/525 166/342/526
f 162/338/530 166/342/526 165/341/527
f 162/338/530 165/341/527 164/340/528
f 164/340/528 163/339/529 162/338/530
f 180/378/540 171/377/531 172/376/532
f 180/378/540 172/376/532 173/375/533
f 180/378/540 173/375/533 174/374/534
f 180/378/540 174/374/534 175/373/535
f 180/378/540 175/373/535 176/372/536
f 180/378/540 176/372/536 177/371/537
f 180/378/540 177/371/537 178/370/538
f 178/370/538 179/369/539 180/378/540
g default
v 0.867 2.213 -0.132
v 0.867 2.101 -0.214
v 0.867 1.962 -0.214
v 0.867 1.849 -0.132
v 0.867 1.807 0.000
v 0.867 1.849 0.132
v 0.867 1.962 0.214
v 0.867 2.101 0.214
v 0.867 2.213 0.132
v 0.867 2.256 0.000
v 0.762 2.213 -0.132
v 0.762 2.101 -0.214
v 0.762 1.962 -0.214
v 0.762 1.849 -0.132
v 0.762 1.807 0.000
v 0.762 1.849 0.132
v 0.762 1.962 0.214
v 0.762 2.101 0.214
v 0.762 2.213 0.132
v 0.762 2.256 0.000
vt 0.626409 0.064409
vt 0.548284 0.007647
vt 0.451716 0.007647
vt 0.373591 0.064409
vt 0.343750 0.156250
vt 0.373591 0.248091
vt 0.451716 0.304853
vt 0.548284 0.304853
vt 0.626409 0.248091
vt 0.656250 0.156250
vt 0.375000 0.312500
vt 0.400000 0.312500
vt 0.425000 0.312500
vt 0.450000 0.312500
vt 0.475000 0.312500
vt 0.500000 0.312500
vt 0.525000 0.312500
vt 0.550000 0.312500
vt 0.575000 0.312500
vt 0.600000 0.312500
vt 0.625000 0.312500
vt 0.375000 0.687500
vt 0.400000 0.687500
vt 0.425000 0.687500
vt 0.450000 0.687500
vt 0.475000 0.687500
vt 0.500000 0.687500
vt 0.525000 0.687500
vt 0.550000 0.687500
vt 0.575000 0.687500
vt 0.600000 0.687500
vt 0.625000 0.687500
vt 0.626409 0.751909
vt 0.548284 0.695147
vt 0.451716 0.695147
vt 0.373591 0.751909
vt 0.343750 0.843750
vt 0.373591 0.935591
vt 0.451716 0.992353
vt 0.548284 0.992353
vt 0.626409 0.935591
vt 0.656250 0.843750
vn 0.000000 0.587785 -0.809017
vn 0.000000 0.587785 -0.809017
vn 0.000000 0.587785 -0.809017
vn 0.000000 0.587785 -0.809017
vn -0.000000 -0.000000 -1.000000
vn -0.000000 -0.000000 -1.000000
vn -0.000000 -0.000000 -1.000000
vn -0.000000 -0.000000 -1.000000
vn -0.000000 -0.587785 -0.809017
vn -0.000000 -0.587785 -0.809017
vn -0.000000 -0.587785 -0.809017
vn -0.000000 -0.587785 -0.809017
vn -0.000000 -0.951057 -0.309017
vn -0.000000 -0.951057 -0.309017
vn -0.000000 -0.951057 -0.309017
vn -0.000000 -0.951057 -0.309017
vn 0.000000 -0.951057 0.309017
vn 0.000000 -0.951057 0.309017
vn 0.000000 -0.951057 0.309017
vn 0.000000 -0.951057 0.309017
vn 0.000000 -0.587785 0.809017
vn 0.000000 -0.587785 0.809017
vn 0.000000 -0.587785 0.809017
vn 0.000000 -0.587785 0.809017
vn 0.000000 0.000000 1.000000
vn 0.000000 0.000000 1.000000
vn 0.000000 0.000000 1.000000
vn 0.000000 0.000000 1.000000
vn 0.000000 0.587785 0.809017
vn 0.000000 0.587785 0.809017
vn 0.000000 0.587785 0.809017
vn 0.000000 0.587785 0.809017
vn 0.000000 0.951057 0.309017
vn 0.000000 0.951057 0.309017
vn 0.000000 0.951057 0.309017
vn 0.000000 0.951057 0.309017
vn 0.000000 0.951057 -0.309017
vn 0.000000 0.951057 -0.309017
vn 0.000000 0.951057 -0.309017
vn 0.000000 0.951057 -0.309017
vn 1.000000 0.000000 0.000000
vn 1.000000 0.000000 0.000000
vn 1.000000 0.000000 0.000000
vn 1.000000 0.000000 0.000000
vn 1.000000 0.000000 0.000000
vn 1.000000 0.000000 0.000000
vn 1.000000 0.000000 0.000000
vn 1.000000 0.000000 0.000000
vn 1.000000 0.000000 0.000000
vn 1.000000 0.000000 0.000000
vn -1.000000 0.000000 -0.000000
vn -1.000000 0.000000 -0.000000
vn -1.000000 0.000000 -0.000000
vn -1.000000 0.000000 -0.000000
vn -1.000000 0.000000 -0.000000
vn -1.000000 0.000000 -0.000000
vn -1.000000 0.000000 -0.000000
vn -1.000000 0.000000 -0.000000
vn -1.000000 0.000000 -0.000000
vn -1.000000 0.000000 -0.000000
s off
g group1 pCylinder8
usemtl standardSurface5SG
f 181/389/541 182/390/542 192/401/543 191/400/544
f 182/390/545 183/391/546 193/402/547 192/401/548
f 183/391/549 184/392/550 194/403/551 193/402/552
f 184/392/553 185/393/554 195/404/555 194/403/556
f 185/393/557 186/394/558 196/405/559 195/404/560
f 186/394/561 187/395/562 197/406/563 196/405/564
f 187/395/565 188/396/566 198/407/567 197/406/568
f 188/396/569 189/397/570 199/408/571 198/407/572
f 189/397/573 190/398/574 200/409/575 199/408/576
f 190/398/577 181/399/578 191/410/579 200/409/580
f 182/380/590 181/379/581 190/388/582
f 182/380/590 190/388/582 189/387/583
f 182/380/590 189/387/583 188/386/584
f 182/380/590 188/386/584 187/385/585
f 182/380/590 187/385/585 186/384/586
f 182/380/590 186/384/586 185/383/587
f 182/380/590 185/383/587 184/382/588
f 184/382/588 183/381/589 182/380/590
f 200/420/600 191/419/591 192/418/592
f 200/420/600 192/418/592 193/417/593
f 200/420/600 193/417/593 194/416/594
f 200/420/600 194/416/594 195/415/595
f 200/420/600 195/415/595 196/414/596
f 200/420/600 196/414/596 197/413/597
f 200/420/600 197/413/597 198/412/598
f 198/412/598 199/411/599 200/420/600

