# This file uses centimeters as units for non-parametric coordinates.

mtllib upper_emitter.mtl
g default
v 0.688 6.900 -0.513
v 0.252 6.900 -0.829
v -0.287 6.900 -0.829
v -0.723 6.900 -0.513
v -0.890 6.900 0.000
v -0.723 6.900 0.513
v -0.287 6.900 0.829
v 0.252 6.900 0.829
v 0.688 6.900 0.513
v 0.854 6.900 0.000
v 0.688 9.499 -0.513
v 0.252 9.499 -0.829
v -0.287 9.499 -0.829
v -0.723 9.499 -0.513
v -0.890 9.499 0.000
v -0.723 9.499 0.513
v -0.287 9.499 0.829
v 0.252 9.499 0.829
v 0.688 9.499 0.513
v 0.854 9.499 0.000
v 0.583 9.695 -0.437
v 0.212 9.695 -0.706
v -0.247 9.695 -0.706
v -0.619 9.695 -0.437
v -0.760 9.695 0.000
v -0.619 9.695 0.437
v -0.247 9.695 0.706
v 0.212 9.695 0.706
v 0.583 9.695 0.437
v 0.725 9.695 -0.000
v 0.728 6.717 -0.000
v 0.586 6.717 -0.438
v 0.586 6.717 0.438
v 0.213 6.717 0.709
v -0.248 6.717 0.709
v -0.621 6.717 0.438
v -0.763 6.717 0.000
v -0.621 6.717 -0.438
v -0.248 6.717 -0.709
v 0.213 6.717 -0.709
v 0.750 8.200 -0.558
v 0.931 8.200 0.000
v 0.750 8.200 0.558
v 0.276 8.200 0.903
v -0.311 8.200 0.903
v -0.785 8.200 0.558
v -0.967 8.200 0.000
v -0.785 8.200 -0.558
v -0.311 8.200 -0.903
v 0.276 8.200 -0.903
v 0.583 9.830 -0.437
v 0.212 9.830 -0.706
v -0.247 9.830 -0.706
v -0.619 9.830 -0.437
v -0.760 9.830 0.000
v -0.619 9.830 0.437
v -0.247 9.830 0.706
v 0.212 9.830 0.706
v 0.583 9.830 0.437
v 0.725 9.830 -0.000
vt 0.422566 0.025290
vt 0.519383 0.025290
vt 0.519383 0.190006
vt 0.414014 0.190006
vt 0.436582 0.001992
vt 0.519383 0.001992
vt 0.616201 0.025290
vt 0.624753 0.190006
vt 0.519383 0.354721
vt 0.422566 0.354721
vt 0.362730 0.025290
vt 0.348892 0.190006
vt 0.602185 0.001992
vt 0.676037 0.025290
vt 0.689875 0.190006
vt 0.616201 0.354721
vt 0.519383 0.379588
vt 0.436925 0.379588
vt 0.362730 0.354721
vt 0.676037 0.354721
vt 0.601842 0.379588
vt 0.519383 0.396689
vt 0.436925 0.396689
vt 0.601842 0.396689
vt 0.385963 0.379588
vt 0.385963 0.396689
vt 0.652804 0.379588
vt 0.652804 0.396689
vt 0.075531 0.025290
vt 0.172348 0.025290
vt 0.172348 0.190006
vt 0.066978 0.190006
vt 0.089547 0.001992
vt 0.172348 0.001992
vt 0.269165 0.025290
vt 0.277718 0.190006
vt 0.172348 0.354721
vt 0.075531 0.354721
vt 0.015694 0.025290
vt 0.001856 0.190006
vt 0.255149 0.001992
vt 0.329002 0.025290
vt 0.342840 0.190006
vt 0.269165 0.354721
vt 0.172348 0.379588
vt 0.089890 0.379588
vt 0.015694 0.354721
vt 0.329002 0.354721
vt 0.254806 0.379588
vt 0.172348 0.396689
vt 0.089890 0.396689
vt 0.254806 0.396689
vt 0.038928 0.379588
vt 0.038928 0.396689
vt 0.305768 0.379588
vt 0.305768 0.396689
vt 0.358553 0.474261
vt 0.385457 0.557062
vt 0.358553 0.639863
vt 0.288118 0.691037
vt 0.201056 0.691037
vt 0.130621 0.639864
vt 0.103717 0.557062
vt 0.130621 0.474261
vt 0.201056 0.423087
vt 0.288118 0.423087
vt 0.377845 0.653880
vt 0.295487 0.713716
vt 0.193687 0.713716
vt 0.111329 0.653880
vt 0.111329 0.460245
vt 0.193687 0.400409
vt 0.295487 0.400409
vt 0.377845 0.460245
vt 0.217735 0.744228
vt 0.268696 0.814371
vt 0.268696 0.901073
vt 0.217734 0.971216
vt 0.135276 0.998008
vt 0.052818 0.971216
vt 0.001856 0.901073
vt 0.001856 0.814371
vt 0.052818 0.744228
vt 0.135276 0.717435
vt 0.847563 0.771808
vt 0.745763 0.771808
vt 0.741267 0.607092
vt 0.852059 0.607092
vt 0.745763 0.442377
vt 0.847563 0.442377
vt 0.753312 0.417510
vt 0.840014 0.417510
vt 0.663406 0.442377
vt 0.683169 0.417510
vt 0.753312 0.400409
vt 0.840014 0.400409
vt 0.929921 0.442377
vt 0.910157 0.417510
vt 0.473531 0.400409
vt 0.575331 0.400409
vt 0.579827 0.565124
vt 0.469035 0.565124
vt 0.575331 0.729840
vt 0.473531 0.729840
vt 0.567782 0.754707
vt 0.481080 0.754707
vt 0.657689 0.729840
vt 0.637925 0.754707
vt 0.567782 0.771808
vt 0.481080 0.771808
vt 0.391173 0.729840
vt 0.410937 0.754707
vn 0.586854 -0.056282 -0.807735
vn 0.586854 -0.056282 -0.807735
vn 0.587785 0.000000 -0.809017
vn 0.587785 0.000000 -0.809017
vn -0.000000 -0.056282 -0.998415
vn -0.000000 -0.056282 -0.998415
vn -0.000000 -0.000000 -1.000000
vn -0.000000 -0.000000 -1.000000
vn -0.586854 -0.056282 -0.807735
vn -0.586854 -0.056282 -0.807735
vn -0.587785 0.000000 -0.809017
vn -0.587785 0.000000 -0.809017
vn -0.949549 -0.056282 -0.308527
vn -0.949549 -0.056282 -0.308527
vn -0.951057 -0.000000 -0.309017
vn -0.951057 -0.000000 -0.309017
vn -0.949549 -0.056282 0.308527
vn -0.949549 -0.056282 0.308527
vn -0.951057 0.000000 0.309017
vn -0.951057 -0.000000 0.309017
vn -0.586853 -0.056282 0.807735
vn -0.586853 -0.056282 0.807735
vn -0.587785 0.000000 0.809017
vn -0.587785 -0.000000 0.809017
vn 0.000000 -0.056282 0.998415
vn 0.000000 -0.056282 0.998415
vn 0.000000 0.000000 1.000000
vn 0.000000 0.000000 1.000000
vn 0.586854 -0.056282 0.807734
vn 0.586854 -0.056282 0.807734
vn 0.587785 -0.000000 0.809017
vn 0.587785 -0.000000 0.809017
vn 0.949549 -0.056282 0.308527
vn 0.949549 -0.056282 0.308527
vn 0.951056 0.000000 0.309017
vn 0.951056 0.000000 0.309017
vn 0.949549 -0.056282 -0.308527
vn 0.949549 -0.056282 -0.308527
vn 0.951057 -0.000000 -0.309017
vn 0.951057 -0.000000 -0.309017
vn 0.000000 -1.000000 -0.000000
vn 0.000000 -1.000000 -0.000000
vn 0.000000 -1.000000 -0.000000
vn 0.000000 -1.000000 -0.000000
vn 0.000000 -1.000000 -0.000000
vn 0.000000 -1.000000 -0.000000
vn 0.000000 -1.000000 -0.000000
vn 0.000000 -1.000000 -0.000000
vn 0.000000 -1.000000 -0.000000
vn 0.000000 -1.000000 -0.000000
vn 0.000000 1.000000 -0.000000
vn 0.000000 1.000000 -0.000000
vn 0.000000 1.000000 -0.000000
vn 0.000000 1.000000 -0.000000
vn 0.000000 1.000000 -0.000000
vn 0.000000 1.000000 -0.000000
vn 0.000000 1.000000 -0.000000
vn 0.000000 1.000000 -0.000000
vn 0.000000 1.000000 -0.000000
vn 0.000000 1.000000 -0.000000
vn 0.498011 0.531168 -0.685453
vn 0.498011 0.531168 -0.685453
vn 0.498011 0.531168 -0.685453
vn 0.498011 0.531168 -0.685453
vn -0.000000 0.531168 -0.847267
vn -0.000000 0.531168 -0.847267
vn -0.000000 0.531168 -0.847267
vn -0.000000 0.531168 -0.847267
vn -0.498011 0.531168 -0.685453
vn -0.498011 0.531168 -0.685453
vn -0.498011 0.531168 -0.685453
vn -0.498011 0.531168 -0.685453
vn -0.805799 0.531168 -0.261819
vn -0.805799 0.531168 -0.261819
vn -0.805799 0.531168 -0.261819
vn -0.805799 0.531168 -0.261819
vn -0.805799 0.531168 0.261820
vn -0.805799 0.531168 0.261820
vn -0.805799 0.531168 0.261820
vn -0.805799 0.531168 0.261820
vn -0.498011 0.531168 0.685453
vn -0.498011 0.531168 0.685453
vn -0.498011 0.531168 0.685453
vn -0.498011 0.531168 0.685453
vn 0.000000 0.531168 0.847267
vn 0.000000 0.531168 0.847267
vn 0.000000 0.531168 0.847266
vn 0.000000 0.531168 0.847266
vn 0.498011 0.531168 0.685453
vn 0.498011 0.531168 0.685453
vn 0.498011 0.531168 0.685453
vn 0.498011 0.531168 0.685453
vn 0.805798 0.531168 0.261820
vn 0.805798 0.531168 0.261820
vn 0.805798 0.531168 0.261820
vn 0.805798 0.531168 0.261820
vn 0.805799 0.531168 -0.261820
vn 0.805799 0.531168 -0.261820
vn 0.805799 0.531168 -0.261820
vn 0.805799 0.531168 -0.261820
vn 0.796252 -0.546853 -0.258718
vn 0.796252 -0.546853 -0.258718
vn 0.796252 -0.546853 -0.258718
vn 0.796252 -0.546853 -0.258718
vn 0.796252 -0.546853 0.258718
vn 0.796252 -0.546853 0.258718
vn 0.796252 -0.546853 0.258718
vn 0.796252 -0.546853 0.258718
vn 0.492111 -0.546853 0.677332
vn 0.492111 -0.546853 0.677332
vn 0.492111 -0.546853 0.677332
vn 0.492111 -0.546853 0.677332
vn 0.000000 -0.546853 0.837228
vn 0.000000 -0.546853 0.837228
vn 0.000000 -0.546853 0.837228
vn 0.000000 -0.546853 0.837228
vn -0.492110 -0.546853 0.677332
vn -0.492110 -0.546853 0.677332
vn -0.492110 -0.546853 0.677332
vn -0.492110 -0.546853 0.677332
vn -0.796252 -0.546853 0.258718
vn -0.796252 -0.546853 0.258718
vn -0.796252 -0.546853 0.258718
vn -0.796252 -0.546853 0.258718
vn -0.796252 -0.546853 -0.258717
vn -0.796252 -0.546853 -0.258717
vn -0.796252 -0.546853 -0.258717
vn -0.796252 -0.546853 -0.258717
vn -0.492111 -0.546853 -0.677332
vn -0.492111 -0.546853 -0.677332
vn -0.492111 -0.546853 -0.677332
vn -0.492111 -0.546853 -0.677332
vn -0.000000 -0.546853 -0.837229
vn -0.000000 -0.546853 -0.837229
vn -0.000000 -0.546853 -0.837229
vn -0.000000 -0.546853 -0.837229
vn 0.492111 -0.546853 -0.677332
vn 0.492111 -0.546853 -0.677332
vn 0.492111 -0.546853 -0.677332
vn 0.492111 -0.546853 -0.677332
vn 0.949549 0.056282 -0.308527
vn 0.949549 0.056282 -0.308527
vn 0.949549 0.056282 0.308527
vn 0.949549 0.056282 0.308527
vn 0.586854 0.056282 0.807734
vn 0.586854 0.056282 0.807734
vn 0.000000 0.056282 0.998415
vn 0.000000 0.056282 0.998415
vn -0.586853 0.056282 0.807735
vn -0.586853 0.056282 0.807735
vn -0.949549 0.056282 0.308527
vn -0.949549 0.056282 0.308527
vn -0.949549 0.056282 -0.308527
vn -0.949549 0.056282 -0.308527
vn -0.586854 0.056282 -0.807735
vn -0.586854 0.056282 -0.807735
vn -0.000000 0.056282 -0.998415
vn -0.000000 0.056282 -0.998415
vn 0.586854 0.056282 -0.807735
vn 0.586854 0.056282 -0.807735
vn 0.587785 0.000000 -0.809017
vn 0.587785 0.000000 -0.809017
vn 0.587785 0.000000 -0.809017
vn 0.587785 0.000000 -0.809017
vn -0.000001 0.000000 -1.000000
vn -0.000001 0.000000 -1.000000
vn -0.000001 0.000000 -1.000000
vn -0.000001 0.000000 -1.000000
vn -0.587785 0.000000 -0.809017
vn -0.587785 0.000000 -0.809017
vn -0.587785 0.000000 -0.809017
vn -0.587785 0.000000 -0.809017
vn -0.951057 0.000000 -0.309017
vn -0.951057 0.000000 -0.309017
vn -0.951057 0.000000 -0.309017
vn -0.951057 0.000000 -0.309017
vn -0.951057 0.000000 0.309017
vn -0.951057 0.000000 0.309017
vn -0.951057 0.000000 0.309017
vn -0.951057 0.000000 0.309017
vn -0.587785 0.000000 0.809017
vn -0.587785 0.000000 0.809017
vn -0.587785 0.000000 0.809017
vn -0.587785 0.000000 0.809017
vn 0.000000 0.000000 1.000000
vn 0.000000 0.000000 1.000000
vn 0.000000 0.000000 1.000000
vn 0.000000 0.000000 1.000000
vn 0.587785 0.000000 0.809017
vn 0.587785 0.000000 0.809017
vn 0.587785 0.000000 0.809017
vn 0.587785 0.000000 0.809017
vn 0.951056 0.000000 0.309017
vn 0.951056 0.000000 0.309017
vn 0.951056 0.000000 0.309017
vn 0.951056 0.000000 0.309017
vn 0.951057 0.000000 -0.309017
vn 0.951057 0.000000 -0.309017
vn 0.951057 0.000000 -0.309017
vn 0.951057 0.000000 -0.309017
s 1
g pCylinder9 group2
usemtl initialShadingGroup
f 1/35/1 2/42/2 50/43/3 41/36/4
s 2
f 2/85/5 3/86/6 49/87/7 50/88/8
s 3
f 3/11/9 4/1/10 48/4/11 49/12/12
s 4
f 4/1/13 5/2/14 47/3/15 48/4/16
s 5
f 5/2/17 6/7/18 46/8/19 47/3/20
s 6
f 6/7/21 7/14/22 45/15/23 46/8/24
s 7
f 7/99/25 8/100/26 44/101/27 45/102/28
s 8
f 8/39/29 9/29/30 43/32/31 44/40/32
s 9
f 9/29/33 10/30/34 42/31/35 43/32/36
s 10
f 10/30/37 1/35/38 41/36/39 42/31/40
s off
f 40/66/50 32/57/41 31/58/42
f 40/66/50 31/58/42 33/59/43
f 40/66/50 33/59/43 34/60/44
f 40/66/50 34/60/44 35/61/45
f 40/66/50 35/61/45 36/62/46
f 40/66/50 36/62/46 37/63/47
f 40/66/50 37/63/47 38/64/48
f 38/64/48 39/65/49 40/66/50
f 60/84/60 51/75/51 52/76/52
f 60/84/60 52/76/52 53/77/53
f 60/84/60 53/77/53 54/78/54
f 60/84/60 54/78/54 55/79/55
f 60/84/60 55/79/55 56/80/56
f 60/84/60 56/80/56 57/81/57
f 60/84/60 57/81/57 58/82/58
f 58/82/58 59/83/59 60/84/60
f 11/97/61 12/90/62 22/92/63 21/98/64
f 12/90/65 13/89/66 23/91/67 22/92/68
f 13/89/69 14/93/70 24/94/71 23/91/72
f 14/10/73 15/9/74 25/17/75 24/18/76
f 15/9/77 16/16/78 26/21/79 25/17/80
f 16/111/81 17/104/82 27/106/83 26/112/84
f 17/104/85 18/103/86 28/105/87 27/106/88
f 18/103/89 19/107/90 29/108/91 28/105/92
f 19/38/93 20/37/94 30/45/95 29/46/96
f 20/37/97 11/44/98 21/49/99 30/45/100
f 1/35/101 10/30/102 31/34/103 32/41/104
f 10/30/105 9/29/106 33/33/107 31/34/108
f 9/67/109 8/68/110 34/60/111 33/59/112
f 8/68/113 7/69/114 35/61/115 34/60/116
f 7/69/117 6/70/118 36/62/119 35/61/120
f 6/7/121 5/2/122 37/6/123 36/13/124
f 5/2/125 4/1/126 38/5/127 37/6/128
f 4/71/129 3/72/130 39/65/131 38/64/132
f 3/72/133 2/73/134 40/66/135 39/65/136
f 2/73/137 1/74/138 32/57/139 40/66/140
s 10
f 42/31/40 41/36/39 11/44/141 20/37/142
s 9
f 43/32/36 42/31/35 20/37/143 19/38/144
s 8
f 44/40/32 43/32/31 19/38/145 18/47/146
s 7
f 45/102/28 44/101/27 18/103/147 17/104/148
s 6
f 46/8/24 45/15/23 17/20/149 16/16/150
s 5
f 47/3/20 46/8/19 16/16/151 15/9/152
s 4
f 48/4/16 47/3/15 15/9/153 14/10/154
s 3
f 49/12/12 48/4/11 14/10/155 13/19/156
s 2
f 50/88/8 49/87/7 13/89/157 12/90/158
s 1
f 41/36/4 50/43/3 12/48/159 11/44/160
s off
f 21/49/161 22/55/162 52/56/163 51/52/164
f 22/92/165 23/91/166 53/95/167 52/96/168
f 23/25/169 24/18/170 54/23/171 53/26/172
f 24/18/173 25/17/174 55/22/175 54/23/176
f 25/17/177 26/21/178 56/24/179 55/22/180
f 26/21/181 27/27/182 57/28/183 56/24/184
f 27/106/185 28/105/186 58/109/187 57/110/188
f 28/53/189 29/46/190 59/51/191 58/54/192
f 29/46/193 30/45/194 60/50/195 59/51/196
f 30/45/197 21/49/198 51/52/199 60/50/200
g default
v -0.672 9.922 -0.476
v -0.268 9.922 -0.769
v -0.249 9.826 -0.711
v -0.622 9.826 -0.439
v -0.672 10.045 -0.476
v -0.268 10.045 -0.769
v -0.827 9.922 0.000
v -0.765 9.826 0.000
v -0.827 10.045 0.000
v 0.232 9.922 -0.769
v 0.213 9.826 -0.711
v 0.232 10.045 -0.769
v -0.672 9.922 0.476
v -0.622 9.826 0.439
v -0.672 10.045 0.476
v -0.342 10.045 -0.236
v -0.342 10.178 -0.236
v -0.142 10.178 -0.382
v -0.142 10.045 -0.382
v -0.419 10.045 0.000
v -0.419 10.178 0.000
v 0.637 9.922 -0.476
v 0.587 9.826 -0.439
v 0.106 10.178 -0.382
v 0.106 10.045 -0.382
v 0.637 10.045 -0.476
v -0.342 10.045 0.236
v -0.342 10.178 0.236
v 0.307 10.178 -0.236
v 0.307 10.045 -0.236
v -0.268 9.922 0.769
v -0.249 9.826 0.711
v -0.268 10.045 0.769
v -0.142 10.045 0.382
v -0.142 10.178 0.382
v 0.791 9.922 0.000
v 0.729 9.826 -0.000
v 0.383 10.178 0.000
v 0.383 10.045 0.000
v 0.791 10.045 0.000
v 0.106 10.045 0.382
v 0.106 10.178 0.382
v 0.307 10.178 0.236
v 0.307 10.045 0.236
v 0.232 9.922 0.769
v 0.213 9.826 0.711
v 0.232 10.045 0.769
v 0.637 9.922 0.476
v 0.587 9.826 0.439
v 0.637 10.045 0.476
vt 0.522126 0.393317
vt 0.522126 0.243844
vt 0.560701 0.243844
vt 0.560701 0.393317
vt 0.491971 0.381879
vt 0.491971 0.243844
vt 0.522126 0.094371
vt 0.560701 0.094371
vt 0.522126 0.485696
vt 0.560701 0.485696
vt 0.491971 0.467189
vt 0.491971 0.105809
vt 0.522126 0.001992
vt 0.560701 0.001992
vt 0.491971 0.020499
vt 0.091844 0.634221
vt 0.133820 0.634221
vt 0.133820 0.708333
vt 0.091844 0.708333
vt 0.091844 0.560108
vt 0.133820 0.560108
vt 0.133820 0.754137
vt 0.091844 0.754137
vt 0.091844 0.514304
vt 0.133820 0.514304
vt 0.044155 0.560108
vt 0.086131 0.560108
vt 0.086131 0.634221
vt 0.044155 0.634221
vt 0.044155 0.514304
vt 0.086131 0.514304
vt 0.086131 0.708333
vt 0.044155 0.708333
vt 0.086131 0.754137
vt 0.044155 0.754137
vt 0.415233 0.756156
vt 0.415233 0.606683
vt 0.453807 0.606683
vt 0.453807 0.756156
vt 0.385077 0.756156
vt 0.385077 0.618122
vt 0.415233 0.514304
vt 0.453807 0.514304
vt 0.415233 0.905629
vt 0.453807 0.905629
vt 0.385077 0.894191
vt 0.385077 0.532811
vt 0.415233 0.998008
vt 0.453807 0.998008
vt 0.385077 0.979501
vt 0.884346 0.618122
vt 0.929196 0.756156
vt 0.884346 0.894191
vt 0.766927 0.979501
vt 0.621789 0.979501
vt 0.504369 0.894191
vt 0.459519 0.756156
vt 0.504369 0.618122
vt 0.621789 0.532812
vt 0.766927 0.532812
vt 0.772940 0.998008
vt 0.615775 0.998008
vt 0.615775 0.514304
vt 0.772940 0.514304
vt 0.333561 0.538385
vt 0.379365 0.601429
vt 0.379365 0.679355
vt 0.333561 0.742399
vt 0.259449 0.766479
vt 0.185336 0.742399
vt 0.139533 0.679355
vt 0.139533 0.601429
vt 0.185336 0.538385
vt 0.259449 0.514304
vt 0.169594 0.154283
vt 0.123790 0.217327
vt 0.123790 0.295253
vt 0.169594 0.358297
vt 0.243706 0.382377
vt 0.243706 0.510588
vt 0.094234 0.462021
vt 0.001855 0.334872
vt 0.001855 0.177708
vt 0.094234 0.050559
vt 0.243706 0.001992
vt 0.393179 0.050559
vt 0.485558 0.177708
vt 0.485558 0.334873
vt 0.393179 0.462022
vt 0.317819 0.358297
vt 0.363623 0.295253
vt 0.363623 0.217327
vt 0.317819 0.154283
vt 0.243706 0.130203
vt 0.040429 0.757853
vt 0.040429 0.915018
vt 0.001855 0.915018
vt 0.001855 0.757853
vt 0.134741 0.848122
vt 0.092765 0.848122
vt 0.092765 0.770195
vt 0.134741 0.770195
vt 0.141758 0.770195
vt 0.183735 0.770195
vt 0.183735 0.848122
vt 0.141758 0.848122
vt 0.047400 0.915018
vt 0.047400 0.757853
vt 0.085975 0.757853
vt 0.085975 0.915018
vn -0.500964 -0.523070 -0.689516
vn -0.500964 -0.523070 -0.689516
vn -0.500964 -0.523070 -0.689516
vn -0.500964 -0.523070 -0.689516
vn -0.587784 0.000000 -0.809018
vn -0.587784 0.000000 -0.809018
vn -0.587784 0.000000 -0.809018
vn -0.587784 0.000000 -0.809018
vn -0.810576 -0.523070 -0.263371
vn -0.810576 -0.523070 -0.263371
vn -0.810576 -0.523070 -0.263371
vn -0.810576 -0.523070 -0.263371
vn -0.951056 0.000000 -0.309018
vn -0.951056 0.000000 -0.309018
vn -0.951056 0.000000 -0.309018
vn -0.951056 0.000000 -0.309018
vn -0.000000 -0.523073 -0.852288
vn -0.000000 -0.523073 -0.852288
vn -0.000000 -0.523073 -0.852288
vn -0.000000 -0.523073 -0.852288
vn -0.000000 0.000000 -1.000000
vn -0.000000 0.000000 -1.000000
vn -0.000000 0.000000 -1.000000
vn -0.000000 0.000000 -1.000000
vn -0.810576 -0.523069 0.263374
vn -0.810576 -0.523069 0.263374
vn -0.810576 -0.523069 0.263374
vn -0.810576 -0.523069 0.263374
vn -0.951057 0.000000 0.309016
vn -0.951057 0.000000 0.309016
vn -0.951057 0.000000 0.309016
vn -0.951057 0.000000 0.309016
vn -0.587787 0.000000 -0.809016
vn -0.587787 0.000000 -0.809016
vn -0.587787 0.000000 -0.809016
vn -0.587787 0.000000 -0.809016
vn -0.951056 0.000000 -0.309018
vn -0.951056 0.000000 -0.309018
vn -0.951056 0.000000 -0.309018
vn -0.951056 0.000000 -0.309018
vn 0.500965 -0.523072 -0.689515
vn 0.500965 -0.523072 -0.689515
vn 0.500965 -0.523072 -0.689514
vn 0.500965 -0.523072 -0.689515
vn -0.000000 0.000000 -1.000000
vn -0.000000 0.000000 -1.000000
vn -0.000000 0.000000 -1.000000
vn -0.000000 0.000000 -1.000000
vn 0.587784 0.000000 -0.809018
vn 0.587784 0.000000 -0.809018
vn 0.587784 0.000000 -0.809018
vn 0.587784 0.000000 -0.809018
vn -0.951056 0.000000 0.309018
vn -0.951056 0.000000 0.309018
vn -0.951056 0.000000 0.309018
vn -0.951056 0.000000 0.309018
vn 0.587787 0.000000 -0.809016
vn 0.587787 0.000000 -0.809016
vn 0.587787 0.000000 -0.809016
vn 0.587787 0.000000 -0.809016
vn -0.500965 -0.523070 0.689516
vn -0.500965 -0.523070 0.689516
vn -0.500965 -0.523070 0.689516
vn -0.500965 -0.523070 0.689516
vn -0.587784 0.000000 0.809018
vn -0.587784 0.000000 0.809018
vn -0.587784 0.000000 0.809018
vn -0.587784 0.000000 0.809018
vn -0.587787 0.000000 0.809016
vn -0.587787 0.000000 0.809016
vn -0.587787 0.000000 0.809016
vn -0.587787 0.000000 0.809016
vn 0.810576 -0.523070 -0.263372
vn 0.810576 -0.523070 -0.263372
vn 0.810576 -0.523070 -0.263372
vn 0.810576 -0.523070 -0.263372
vn 0.951057 0.000000 -0.309016
vn 0.951057 0.000000 -0.309016
vn 0.951057 0.000000 -0.309016
vn 0.951057 0.000000 -0.309016
vn 0.951056 0.000000 -0.309018
vn 0.951056 0.000000 -0.309018
vn 0.951056 0.000000 -0.309018
vn 0.951056 0.000000 -0.309018
vn 0.000000 0.000000 1.000000
vn 0.000000 0.000000 1.000000
vn 0.000000 0.000000 1.000000
vn 0.000000 0.000000 1.000000
vn 0.951056 0.000000 0.309018
vn 0.951056 0.000000 0.309018
vn 0.951056 0.000000 0.309018
vn 0.951056 0.000000 0.309018
vn 0.000000 -0.523063 0.852294
vn 0.000000 -0.523063 0.852294
vn 0.000000 -0.523063 0.852294
vn 0.000000 -0.523063 0.852294
vn 0.587784 0.000000 0.809018
vn 0.587784 0.000000 0.809018
vn 0.587784 0.000000 0.809018
vn 0.587784 0.000000 0.809018
vn 0.000000 0.000000 1.000000
vn 0.000000 0.000000 1.000000
vn 0.000000 0.000000 1.000000
vn 0.000000 0.000000 1.000000
vn 0.810576 -0.523070 0.263373
vn 0.810576 -0.523069 0.263373
vn 0.810576 -0.523070 0.263373
vn 0.810576 -0.523069 0.263373
vn 0.500965 -0.523071 0.689515
vn 0.500965 -0.523071 0.689515
vn 0.500965 -0.523071 0.689515
vn 0.500965 -0.523071 0.689515
vn 0.951056 0.000000 0.309018
vn 0.951056 0.000000 0.309018
vn 0.951056 0.000000 0.309018
vn 0.951056 0.000000 0.309018
vn 0.587784 0.000000 0.809018
vn 0.587784 0.000000 0.809018
vn 0.587784 0.000000 0.809018
vn 0.587784 0.000000 0.809018
vn 0.000000 -1.000000 -0.000000
vn 0.000000 -1.000000 -0.000000
vn 0.000000 -1.000000 -0.000000
vn 0.000000 -1.000000 -0.000000
vn 0.000000 -1.000000 -0.000000
vn 0.000000 -1.000000 -0.000000
vn 0.000000 -1.000000 -0.000000
vn 0.000000 -1.000000 -0.000000
vn 0.000000 -1.000000 -0.000000
vn 0.000000 -1.000000 -0.000000
vn 0.000000 1.000000 0.000000
vn 0.000000 1.000000 0.000000
vn 0.000000 1.000000 0.000000
vn 0.000000 1.000000 0.000000
vn 0.000000 1.000000 0.000000
vn 0.000000 1.000000 0.000000
vn 0.000000 1.000000 0.000000
vn 0.000000 1.000000 0.000000
vn 0.000000 1.000000 0.000000
vn 0.000000 1.000000 0.000000
vn 0.000000 1.000000 -0.000001
vn 0.000000 1.000000 -0.000001
vn 0.000000 1.000000 -0.000001
vn 0.000000 1.000000 -0.000001
vn 0.000000 1.000000 -0.000001
vn 0.000000 1.000000 -0.000001
vn 0.000000 1.000000 -0.000001
vn 0.000000 1.000000 -0.000001
vn 0.000000 1.000000 -0.000001
vn 0.000000 1.000000 -0.000001
vn 0.000000 1.000000 -0.000001
vn 0.000000 1.000000 -0.000000
vn 0.000000 1.000000 -0.000000
vn 0.000000 1.000000 -0.000000
vn 0.000000 1.000000 -0.000000
vn 0.000000 1.000000 -0.000000
vn 0.000000 1.000000 -0.000000
vn 0.000000 1.000000 -0.000000
vn 0.000000 1.000000 -0.000000
vn 0.000000 1.000000 -0.000000
s off
g group2 polySurface9
usemtl initialShadingGroup
f 61/113/201 62/121/202 63/123/203 64/117/204
f 62/121/205 61/113/206 65/116/207 66/122/208
f 67/114/209 61/113/210 64/117/211 68/118/212
f 61/113/213 67/114/214 69/115/215 65/116/216
f 62/175/217 70/176/218 71/172/219 63/171/220
f 70/207/221 62/208/222 66/209/223 72/210/224
f 73/119/225 67/114/226 68/118/227 74/124/228
f 67/114/229 73/119/230 75/120/231 69/115/232
f 76/131/233 77/130/234 78/134/235 79/135/236
f 80/128/237 81/129/238 77/130/239 76/131/240
f 70/154/241 82/149/242 83/153/243 71/159/244
f 79/211/245 78/212/246 84/213/247 85/214/248
f 82/149/249 70/154/250 72/155/251 86/150/252
f 87/132/253 88/133/254 81/129/255 80/128/256
f 85/142/257 84/143/258 89/139/259 90/138/260
f 91/125/261 73/119/262 74/124/263 92/127/264
f 73/119/265 91/125/266 93/126/267 75/120/268
f 94/136/269 95/137/270 88/133/271 87/132/272
f 82/149/273 96/148/274 97/152/275 83/153/276
f 90/138/277 89/139/278 98/140/279 99/141/280
f 96/148/281 82/149/282 86/150/283 100/151/284
f 101/215/285 102/216/286 95/217/287 94/218/288
f 99/141/289 98/140/290 103/144/291 104/145/292
f 105/173/293 91/174/294 92/167/295 106/166/296
f 104/145/297 103/144/298 102/146/299 101/147/300
f 91/219/301 105/220/302 107/221/303 93/222/304
f 96/148/305 108/156/306 109/158/307 97/152/308
f 108/156/309 105/160/310 106/162/311 109/158/312
f 108/156/313 96/148/314 100/151/315 110/157/316
f 105/160/317 108/156/318 110/157/319 107/161/320
f 71/172/330 83/163/321 97/164/322
f 71/172/330 97/164/322 109/165/323
f 71/172/330 109/165/323 106/166/324
f 71/172/330 106/166/324 92/167/325
f 71/172/330 92/167/325 74/168/326
f 71/172/330 74/168/326 68/169/327
f 71/172/330 68/169/327 64/170/328
f 64/170/328 63/171/329 71/172/330
f 98/186/340 89/177/331 84/178/332
f 98/186/340 84/178/332 78/179/333
f 98/186/340 78/179/333 77/180/334
f 98/186/340 77/180/334 81/181/335
f 98/186/340 81/181/335 88/182/336
f 98/186/340 88/182/336 95/183/337
f 98/186/340 95/183/337 102/184/338
f 102/184/338 103/185/339 98/186/340
s 1
f 100/197/351 104/187/341 101/188/342
f 87/190/344 80/191/345 69/192/346
f 94/189/343 87/190/344 69/192/346
f 94/189/343 69/192/346 75/193/347
f 101/188/342 94/189/343 75/193/347
f 101/188/342 75/193/347 93/194/348
f 100/197/351 101/188/342 93/194/348
f 100/197/351 93/194/348 107/195/349
f 107/195/349 110/196/350 100/197/351
f 100/197/351 86/198/352 72/199/353
f 100/197/351 72/199/353 66/200/354
f 66/200/354 65/201/355 69/192/346
f 66/200/354 69/192/346 80/191/345
f 66/200/354 80/191/345 76/202/356
f 66/200/354 76/202/356 79/203/357
f 66/200/354 79/203/357 85/204/358
f 100/197/351 66/200/354 85/204/358
f 100/197/351 85/204/358 90/205/359
f 100/197/351 90/205/359 99/206/360
f 99/206/360 104/187/341 100/197/351

