# Made in Blockbench 5.1.4
mtllib materials.mtl

o pommel_collar
v 0 -1.5187499999999998 0
v 0 -1.8312499999999998 0
v 0.0813604 -1.5187499999999998 0
v 0.0813604 -1.8312499999999998 0
v 0.07858811159720912 -1.5187499999999998 0.021057621037159125
v 0.07858811159720912 -1.8312499999999998 0.021057621037159125
v 0.07046017326206344 -1.5187499999999998 0.040680199999999986
v 0.07046017326206344 -1.8312499999999998 0.040680199999999986
v 0.057530490560049975 -1.5187499999999998 0.057530490560049975
v 0.057530490560049975 -1.8312499999999998 0.057530490560049975
v 0.04068020000000001 -1.5187499999999998 0.07046017326206344
v 0.04068020000000001 -1.8312499999999998 0.07046017326206344
v 0.021057621037159125 -1.5187499999999998 0.07858811159720912
v 0.021057621037159125 -1.8312499999999998 0.07858811159720912
v 4.981887671867416e-18 -1.5187499999999998 0.0813604
v 4.981887671867416e-18 -1.8312499999999998 0.0813604
v -0.02105762103715914 -1.5187499999999998 0.07858811159720912
v -0.02105762103715914 -1.8312499999999998 0.07858811159720912
v -0.04068019999999998 -1.5187499999999998 0.07046017326206344
v -0.04068019999999998 -1.8312499999999998 0.07046017326206344
v -0.057530490560049975 -1.5187499999999998 0.057530490560049975
v -0.057530490560049975 -1.8312499999999998 0.057530490560049975
v -0.07046017326206344 -1.5187499999999998 0.040680199999999986
v -0.07046017326206344 -1.8312499999999998 0.040680199999999986
v -0.0785881115972091 -1.5187499999999998 0.021057621037159153
v -0.0785881115972091 -1.8312499999999998 0.021057621037159153
v -0.0813604 -1.5187499999999998 9.963775343734833e-18
v -0.0813604 -1.8312499999999998 9.963775343734833e-18
v -0.07858811159720912 -1.5187499999999998 -0.021057621037159097
v -0.07858811159720912 -1.8312499999999998 -0.021057621037159097
v -0.07046017326206344 -1.5187499999999998 -0.04068020000000001
v -0.07046017326206344 -1.8312499999999998 -0.04068020000000001
v -0.05753049056004999 -1.5187499999999998 -0.057530490560049975
v -0.05753049056004999 -1.8312499999999998 -0.057530490560049975
v -0.040680200000000034 -1.5187499999999998 -0.07046017326206341
v -0.040680200000000034 -1.8312499999999998 -0.07046017326206341
v -0.021057621037159118 -1.5187499999999998 -0.07858811159720912
v -0.021057621037159118 -1.8312499999999998 -0.07858811159720912
v -1.4945663015602248e-17 -1.5187499999999998 -0.0813604
v -1.4945663015602248e-17 -1.8312499999999998 -0.0813604
v 0.02105762103715909 -1.5187499999999998 -0.07858811159720912
v 0.02105762103715909 -1.8312499999999998 -0.07858811159720912
v 0.04068020000000001 -1.5187499999999998 -0.07046017326206344
v 0.04068020000000001 -1.8312499999999998 -0.07046017326206344
v 0.057530490560049975 -1.5187499999999998 -0.05753049056004999
v 0.057530490560049975 -1.8312499999999998 -0.05753049056004999
v 0.07046017326206341 -1.5187499999999998 -0.040680200000000034
v 0.07046017326206341 -1.8312499999999998 -0.040680200000000034
v 0.07858811159720912 -1.5187499999999998 -0.02105762103715912
v 0.07858811159720912 -1.8312499999999998 -0.02105762103715912
vt 0.5 0.5
vt 0.5 0.5
vt 0.5 0.5
vt 0.5 0.5
vt 0.5 0.5
vt 0.5 0.5
vt 0.5 0.5
vt 0.5 0.5
vt 0.5 0.5
vt 0.5 0.5
vt 0.5 0.5
vt 0.5 0.5
vt 0.5 0.5
vt 0.5 0.5
vt 0.5 0.5
vt 0.5 0.5
vt 0.5 0.5
vt 0.5 0.5
vt 0.5 0.5
vt 0.5 0.5
vt 0.5 0.5
vt 0.5 0.5
vt 0.5 0.5
vt 0.5 0.5
vt 0.5 0.5
vt 0.5 0.5
vt 0.5 0.5
vt 0.5 0.5
vt 0.5 0.5
vt 0.5 0.5
vt 0.5 0.5
vt 0.5 0.5
vt 0.5 0.5
vt 0.5 0.5
vt 0.5 0.5
vt 0.5 0.5
vt 0.5 0.5
vt 0.5 0.5
vt 0.5 0.5
vt 0.5 0.5
vt 0.5 0.5
vt 0.5 0.5
vt 0.5 0.5
vt 0.5 0.5
vt 0.5 0.5
vt 0.5 0.5
vt 0.5 0.5
vt 0.5 0.5
vt 0.5 0.5
vt 0.5 0.5
vt 0.5 0.5
vt 0.5 0.5
vt 0.5 0.5
vt 0.5 0.5
vt 0.5 0.5
vt 0.5 0.5
vt 0.5 0.5
vt 0.5 0.5
vt 0.5 0.5
vt 0.5 0.5
vt 0.5 0.5
vt 0.5 0.5
vt 0.5 0.5
vt 0.5 0.5
vt 0.5 0.5
vt 0.5 0.5
vt 0.5 0.5
vt 0.5 0.5
vt 0.5 0.5
vt 0.5 0.5
vt 0.5 0.5
vt 0.5 0.5
vt 0.5 0.5
vt 0.5 0.5
vt 0.5 0.5
vt 0.5 0.5
vt 0.5 0.5
vt 0.5 0.5
vt 0.5 0.5
vt 0.5 0.5
vt 0.5 0.5
vt 0.5 0.5
vt 0.5 0.5
vt 0.5 0.5
vt 0.5 0.5
vt 0.5 0.5
vt 0.5 0.5
vt 0.5 0.5
vt 0.5 0.5
vt 0.5 0.5
vt 0.5 0.5
vt 0.5 0.5
vt 0.5 0.5
vt 0.5 0.5
vt 0.5 0.5
vt 0.5 0.5
vt 0.5 0.5
vt 0.5 0.5
vt 0.5 0.5
vt 0.5 0.5
vt 0.5 0.5
vt 0.5 0.5
vt 0.5 0.5
vt 0.5 0.5
vt 0.5 0.5
vt 0.5 0.5
vt 0.5 0.5
vt 0.5 0.5
vt 0.5 0.5
vt 0.5 0.5
vt 0.5 0.5
vt 0.5 0.5
vt 0.5 0.5
vt 0.5 0.5
vt 0.5 0.5
vt 0.5 0.5
vt 0.5 0.5
vt 0.5 0.5
vt 0.5 0.5
vt 0.5 0.5
vt 0.5 0.5
vt 0.5 0.5
vt 0.5 0.5
vt 0.5 0.5
vt 0.5 0.5
vt 0.5 0.5
vt 0.5 0.5
vt 0.5 0.5
vt 0.5 0.5
vt 0.5 0.5
vt 0.5 0.5
vt 0.5 0.5
vt 0.5 0.5
vt 0.5 0.5
vt 0.5 0.5
vt 0.5 0.5
vt 0.5 0.5
vt 0.5 0.5
vt 0.5 0.5
vt 0.5 0.5
vt 0.5 0.5
vt 0.5 0.5
vt 0.5 0.5
vt 0.5 0.5
vt 0.5 0.5
vt 0.5 0.5
vt 0.5 0.5
vt 0.5 0.5
vt 0.5 0.5
vt 0.5 0.5
vt 0.5 0.5
vt 0.5 0.5
vt 0.5 0.5
vt 0.5 0.5
vt 0.5 0.5
vt 0.5 0.5
vt 0.5 0.5
vt 0.5 0.5
vt 0.5 0.5
vt 0.5 0.5
vt 0.5 0.5
vt 0.5 0.5
vt 0.5 0.5
vt 0.5 0.5
vt 0.5 0.5
vt 0.5 0.5
vt 0.5 0.5
vt 0.5 0.5
vt 0.5 0.5
vt 0.5 0.5
vt 0.5 0.5
vt 0.5 0.5
vt 0.5 0.5
vt 0.5 0.5
vt 0.5 0.5
vt 0.5 0.5
vt 0.5 0.5
vt 0.5 0.5
vt 0.5 0.5
vt 0.5 0.5
vt 0.5 0.5
vt 0.5 0.5
vt 0.5 0.5
vt 0.5 0.5
vt 0.5 0.5
vt 0.5 0.5
vt 0.5 0.5
vt 0.5 0.5
vt 0.5 0.5
vt 0.5 0.5
vt 0.5 0.5
vt 0.5 0.5
vt 0.5 0.5
vt 0.5 0.5
vt 0.5 0.5
vt 0.5 0.5
vt 0.5 0.5
vt 0.5 0.5
vt 0.5 0.5
vt 0.5 0.5
vt 0.5 0.5
vt 0.5 0.5
vt 0.5 0.5
vt 0.5 0.5
vt 0.5 0.5
vt 0.5 0.5
vt 0.5 0.5
vt 0.5 0.5
vt 0.5 0.5
vt 0.5 0.5
vt 0.5 0.5
vt 0.5 0.5
vt 0.5 0.5
vt 0.5 0.5
vt 0.5 0.5
vt 0.5 0.5
vt 0.5 0.5
vt 0.5 0.5
vt 0.5 0.5
vt 0.5 0.5
vt 0.5 0.5
vt 0.5 0.5
vt 0.5 0.5
vt 0.5 0.5
vt 0.5 0.5
vt 0.5 0.5
vt 0.5 0.5
vt 0.5 0.5
vt 0.5 0.5
vt 0.5 0.5
vt 0.5 0.5
vt 0.5 0.5
vt 0.5 0.5
vt 0.5 0.5
vt 0.5 0.5
vt 0.5 0.5
vt 0.5 0.5
vt 0.5 0.5
vt 0.5 0.5
vt 0.5 0.5
vn -0.9914448613738106 0 -0.13052619222005132
vn 0 -1 0
vn 0 1 0
vn -0.9238795325112867 0 -0.3826834323650903
vn 0 -1 0
vn 0 1 0
vn -0.7933533402912353 0 -0.6087614290087207
vn 0 -1 0
vn 0 1 0
vn -0.6087614290087211 0 -0.7933533402912348
vn 0 -1 0
vn 0 1 0
vn -0.38268343236508984 0 -0.9238795325112867
vn 0 -1 0
vn 0 1 0
vn -0.13052619222005135 0 -0.9914448613738106
vn 0 -1 0
vn 0 1 0
vn 0.13052619222005124 0 -0.9914448613738106
vn 0 -1 0
vn 0 1 0
vn 0.38268343236509067 0 -0.9238795325112866
vn 0 -1 0
vn 0 1 0
vn 0.6087614290087205 0 -0.7933533402912353
vn 0 -1 0
vn 0 1 0
vn 0.7933533402912353 0 -0.6087614290087207
vn 0 -1 0
vn 0 1 0
vn 0.9238795325112866 0 -0.3826834323650901
vn 0 -1 0
vn 0 1 0
vn 0.9914448613738104 0 -0.13052619222005185
vn 0 -1 0
vn 0 1 0
vn 0.9914448613738106 0 0.13052619222005143
vn 0 -1 0
vn 0 1 0
vn 0.923879532511287 0 0.3826834323650894
vn 0 -1 0
vn 0 1 0
vn 0.7933533402912352 0 0.6087614290087207
vn 0 -1 0
vn 0 1 0
vn 0.6087614290087207 0 0.7933533402912353
vn 0 -1 0
vn 0 1 0
vn 0.3826834323650904 0 0.9238795325112865
vn 0 -1 0
vn 0 1 0
vn 0.13052619222005146 0 0.9914448613738106
vn 0 -1 0
vn 0 1 0
vn -0.13052619222005146 0 0.9914448613738106
vn 0 -1 0
vn 0 1 0
vn -0.3826834323650893 0 0.923879532511287
vn 0 -1 0
vn 0 1 0
vn -0.6087614290087207 0 0.7933533402912352
vn 0 -1 0
vn 0 1 0
vn -0.7933533402912353 0 0.6087614290087207
vn 0 -1 0
vn 0 1 0
vn -0.9238795325112866 0 0.3826834323650905
vn 0 -1 0
vn 0 1 0
vn -0.9914448613738106 0 0.13052619222005135
vn 0 -1 0
vn 0 1 0
usemtl m_fd6528dc-6890-b3c9-f9b5-33bf351960de
f 4/1/1 6/2/1 5/3/1 3/4/1
f 3/5/2 5/6/2 1/7/2
f 6/8/3 4/9/3 2/10/3
f 6/11/4 8/12/4 7/13/4 5/14/4
f 5/15/5 7/16/5 1/17/5
f 8/18/6 6/19/6 2/20/6
f 8/21/7 10/22/7 9/23/7 7/24/7
f 7/25/8 9/26/8 1/27/8
f 10/28/9 8/29/9 2/30/9
f 10/31/10 12/32/10 11/33/10 9/34/10
f 9/35/11 11/36/11 1/37/11
f 12/38/12 10/39/12 2/40/12
f 12/41/13 14/42/13 13/43/13 11/44/13
f 11/45/14 13/46/14 1/47/14
f 14/48/15 12/49/15 2/50/15
f 14/51/16 16/52/16 15/53/16 13/54/16
f 13/55/17 15/56/17 1/57/17
f 16/58/18 14/59/18 2/60/18
f 16/61/19 18/62/19 17/63/19 15/64/19
f 15/65/20 17/66/20 1/67/20
f 18/68/21 16/69/21 2/70/21
f 18/71/22 20/72/22 19/73/22 17/74/22
f 17/75/23 19/76/23 1/77/23
f 20/78/24 18/79/24 2/80/24
f 20/81/25 22/82/25 21/83/25 19/84/25
f 19/85/26 21/86/26 1/87/26
f 22/88/27 20/89/27 2/90/27
f 22/91/28 24/92/28 23/93/28 21/94/28
f 21/95/29 23/96/29 1/97/29
f 24/98/30 22/99/30 2/100/30
f 24/101/31 26/102/31 25/103/31 23/104/31
f 23/105/32 25/106/32 1/107/32
f 26/108/33 24/109/33 2/110/33
f 26/111/34 28/112/34 27/113/34 25/114/34
f 25/115/35 27/116/35 1/117/35
f 28/118/36 26/119/36 2/120/36
f 28/121/37 30/122/37 29/123/37 27/124/37
f 27/125/38 29/126/38 1/127/38
f 30/128/39 28/129/39 2/130/39
f 30/131/40 32/132/40 31/133/40 29/134/40
f 29/135/41 31/136/41 1/137/41
f 32/138/42 30/139/42 2/140/42
f 32/141/43 34/142/43 33/143/43 31/144/43
f 31/145/44 33/146/44 1/147/44
f 34/148/45 32/149/45 2/150/45
f 34/151/46 36/152/46 35/153/46 33/154/46
f 33/155/47 35/156/47 1/157/47
f 36/158/48 34/159/48 2/160/48
f 36/161/49 38/162/49 37/163/49 35/164/49
f 35/165/50 37/166/50 1/167/50
f 38/168/51 36/169/51 2/170/51
f 38/171/52 40/172/52 39/173/52 37/174/52
f 37/175/53 39/176/53 1/177/53
f 40/178/54 38/179/54 2/180/54
f 40/181/55 42/182/55 41/183/55 39/184/55
f 39/185/56 41/186/56 1/187/56
f 42/188/57 40/189/57 2/190/57
f 42/191/58 44/192/58 43/193/58 41/194/58
f 41/195/59 43/196/59 1/197/59
f 44/198/60 42/199/60 2/200/60
f 44/201/61 46/202/61 45/203/61 43/204/61
f 43/205/62 45/206/62 1/207/62
f 46/208/63 44/209/63 2/210/63
f 46/211/64 48/212/64 47/213/64 45/214/64
f 45/215/65 47/216/65 1/217/65
f 48/218/66 46/219/66 2/220/66
f 48/221/67 50/222/67 49/223/67 47/224/67
f 47/225/68 49/226/68 1/227/68
f 50/228/69 48/229/69 2/230/69
f 50/231/70 4/232/70 3/233/70 49/234/70
f 49/235/71 3/236/71 1/237/71
f 4/238/72 50/239/72 2/240/72
o pommel_round_cap
v 0 -1.8250000000000002 0
v 0 -1.9562500000000003 0
v 0.0776622 -1.8250000000000002 0
v 0.0776622 -1.9562500000000003 0
v 0.07501592470642687 -1.8250000000000002 0.020100456444560984
v 0.07501592470642687 -1.9562500000000003 0.020100456444560984
v 0.06725743811378783 -1.8250000000000002 0.038831099999999986
v 0.06725743811378783 -1.9562500000000003 0.038831099999999986
v 0.05491546826186589 -1.8250000000000002 0.054915468261865885
v 0.05491546826186589 -1.9562500000000003 0.054915468261865885
v 0.03883110000000001 -1.8250000000000002 0.06725743811378783
v 0.03883110000000001 -1.9562500000000003 0.06725743811378783
v 0.020100456444560984 -1.8250000000000002 0.07501592470642687
v 0.020100456444560984 -1.9562500000000003 0.07501592470642687
v 4.755438232237078e-18 -1.8250000000000002 0.0776622
v 4.755438232237078e-18 -1.9562500000000003 0.0776622
v -0.02010045644456099 -1.8250000000000002 0.07501592470642687
v -0.02010045644456099 -1.9562500000000003 0.07501592470642687
v -0.03883109999999998 -1.8250000000000002 0.06725743811378783
v -0.03883109999999998 -1.9562500000000003 0.06725743811378783
v -0.054915468261865885 -1.8250000000000002 0.05491546826186589
v -0.054915468261865885 -1.9562500000000003 0.05491546826186589
v -0.06725743811378783 -1.8250000000000002 0.038831099999999986
v -0.06725743811378783 -1.9562500000000003 0.038831099999999986
v -0.07501592470642686 -1.8250000000000002 0.020100456444561005
v -0.07501592470642686 -1.9562500000000003 0.020100456444561005
v -0.0776622 -1.8250000000000002 9.510876464474157e-18
v -0.0776622 -1.9562500000000003 9.510876464474157e-18
v -0.07501592470642689 -1.8250000000000002 -0.020100456444560957
v -0.07501592470642689 -1.9562500000000003 -0.020100456444560957
v -0.06725743811378783 -1.8250000000000002 -0.03883110000000001
v -0.06725743811378783 -1.9562500000000003 -0.03883110000000001
v -0.05491546826186589 -1.8250000000000002 -0.054915468261865885
v -0.05491546826186589 -1.9562500000000003 -0.054915468261865885
v -0.038831100000000035 -1.8250000000000002 -0.0672574381137878
v -0.038831100000000035 -1.9562500000000003 -0.0672574381137878
v -0.020100456444560974 -1.8250000000000002 -0.07501592470642687
v -0.020100456444560974 -1.9562500000000003 -0.07501592470642687
v -1.4266314696711233e-17 -1.8250000000000002 -0.0776622
v -1.4266314696711233e-17 -1.9562500000000003 -0.0776622
v 0.02010045644456095 -1.8250000000000002 -0.07501592470642689
v 0.02010045644456095 -1.9562500000000003 -0.07501592470642689
v 0.03883110000000001 -1.8250000000000002 -0.06725743811378783
v 0.03883110000000001 -1.9562500000000003 -0.06725743811378783
v 0.05491546826186587 -1.8250000000000002 -0.05491546826186589
v 0.05491546826186587 -1.9562500000000003 -0.05491546826186589
v 0.0672574381137878 -1.8250000000000002 -0.038831100000000035
v 0.0672574381137878 -1.9562500000000003 -0.038831100000000035
v 0.07501592470642687 -1.8250000000000002 -0.02010045644456098
v 0.07501592470642687 -1.9562500000000003 -0.02010045644456098
vt 0.5 0.5
vt 0.5 0.5
vt 0.5 0.5
vt 0.5 0.5
vt 0.5 0.5
vt 0.5 0.5
vt 0.5 0.5
vt 0.5 0.5
vt 0.5 0.5
vt 0.5 0.5
vt 0.5 0.5
vt 0.5 0.5
vt 0.5 0.5
vt 0.5 0.5
vt 0.5 0.5
vt 0.5 0.5
vt 0.5 0.5
vt 0.5 0.5
vt 0.5 0.5
vt 0.5 0.5
vt 0.5 0.5
vt 0.5 0.5
vt 0.5 0.5
vt 0.5 0.5
vt 0.5 0.5
vt 0.5 0.5
vt 0.5 0.5
vt 0.5 0.5
vt 0.5 0.5
vt 0.5 0.5
vt 0.5 0.5
vt 0.5 0.5
vt 0.5 0.5
vt 0.5 0.5
vt 0.5 0.5
vt 0.5 0.5
vt 0.5 0.5
vt 0.5 0.5
vt 0.5 0.5
vt 0.5 0.5
vt 0.5 0.5
vt 0.5 0.5
vt 0.5 0.5
vt 0.5 0.5
vt 0.5 0.5
vt 0.5 0.5
vt 0.5 0.5
vt 0.5 0.5
vt 0.5 0.5
vt 0.5 0.5
vt 0.5 0.5
vt 0.5 0.5
vt 0.5 0.5
vt 0.5 0.5
vt 0.5 0.5
vt 0.5 0.5
vt 0.5 0.5
vt 0.5 0.5
vt 0.5 0.5
vt 0.5 0.5
vt 0.5 0.5
vt 0.5 0.5
vt 0.5 0.5
vt 0.5 0.5
vt 0.5 0.5
vt 0.5 0.5
vt 0.5 0.5
vt 0.5 0.5
vt 0.5 0.5
vt 0.5 0.5
vt 0.5 0.5
vt 0.5 0.5
vt 0.5 0.5
vt 0.5 0.5
vt 0.5 0.5
vt 0.5 0.5
vt 0.5 0.5
vt 0.5 0.5
vt 0.5 0.5
vt 0.5 0.5
vt 0.5 0.5
vt 0.5 0.5
vt 0.5 0.5
vt 0.5 0.5
vt 0.5 0.5
vt 0.5 0.5
vt 0.5 0.5
vt 0.5 0.5
vt 0.5 0.5
vt 0.5 0.5
vt 0.5 0.5
vt 0.5 0.5
vt 0.5 0.5
vt 0.5 0.5
vt 0.5 0.5
vt 0.5 0.5
vt 0.5 0.5
vt 0.5 0.5
vt 0.5 0.5
vt 0.5 0.5
vt 0.5 0.5
vt 0.5 0.5
vt 0.5 0.5
vt 0.5 0.5
vt 0.5 0.5
vt 0.5 0.5
vt 0.5 0.5
vt 0.5 0.5
vt 0.5 0.5
vt 0.5 0.5
vt 0.5 0.5
vt 0.5 0.5
vt 0.5 0.5
vt 0.5 0.5
vt 0.5 0.5
vt 0.5 0.5
vt 0.5 0.5
vt 0.5 0.5
vt 0.5 0.5
vt 0.5 0.5
vt 0.5 0.5
vt 0.5 0.5
vt 0.5 0.5
vt 0.5 0.5
vt 0.5 0.5
vt 0.5 0.5
vt 0.5 0.5
vt 0.5 0.5
vt 0.5 0.5
vt 0.5 0.5
vt 0.5 0.5
vt 0.5 0.5
vt 0.5 0.5
vt 0.5 0.5
vt 0.5 0.5
vt 0.5 0.5
vt 0.5 0.5
vt 0.5 0.5
vt 0.5 0.5
vt 0.5 0.5
vt 0.5 0.5
vt 0.5 0.5
vt 0.5 0.5
vt 0.5 0.5
vt 0.5 0.5
vt 0.5 0.5
vt 0.5 0.5
vt 0.5 0.5
vt 0.5 0.5
vt 0.5 0.5
vt 0.5 0.5
vt 0.5 0.5
vt 0.5 0.5
vt 0.5 0.5
vt 0.5 0.5
vt 0.5 0.5
vt 0.5 0.5
vt 0.5 0.5
vt 0.5 0.5
vt 0.5 0.5
vt 0.5 0.5
vt 0.5 0.5
vt 0.5 0.5
vt 0.5 0.5
vt 0.5 0.5
vt 0.5 0.5
vt 0.5 0.5
vt 0.5 0.5
vt 0.5 0.5
vt 0.5 0.5
vt 0.5 0.5
vt 0.5 0.5
vt 0.5 0.5
vt 0.5 0.5
vt 0.5 0.5
vt 0.5 0.5
vt 0.5 0.5
vt 0.5 0.5
vt 0.5 0.5
vt 0.5 0.5
vt 0.5 0.5
vt 0.5 0.5
vt 0.5 0.5
vt 0.5 0.5
vt 0.5 0.5
vt 0.5 0.5
vt 0.5 0.5
vt 0.5 0.5
vt 0.5 0.5
vt 0.5 0.5
vt 0.5 0.5
vt 0.5 0.5
vt 0.5 0.5
vt 0.5 0.5
vt 0.5 0.5
vt 0.5 0.5
vt 0.5 0.5
vt 0.5 0.5
vt 0.5 0.5
vt 0.5 0.5
vt 0.5 0.5
vt 0.5 0.5
vt 0.5 0.5
vt 0.5 0.5
vt 0.5 0.5
vt 0.5 0.5
vt 0.5 0.5
vt 0.5 0.5
vt 0.5 0.5
vt 0.5 0.5
vt 0.5 0.5
vt 0.5 0.5
vt 0.5 0.5
vt 0.5 0.5
vt 0.5 0.5
vt 0.5 0.5
vt 0.5 0.5
vt 0.5 0.5
vt 0.5 0.5
vt 0.5 0.5
vt 0.5 0.5
vt 0.5 0.5
vt 0.5 0.5
vt 0.5 0.5
vt 0.5 0.5
vt 0.5 0.5
vt 0.5 0.5
vt 0.5 0.5
vt 0.5 0.5
vt 0.5 0.5
vt 0.5 0.5
vt 0.5 0.5
vt 0.5 0.5
vt 0.5 0.5
vt 0.5 0.5
vt 0.5 0.5
vt 0.5 0.5
vt 0.5 0.5
vt 0.5 0.5
vt 0.5 0.5
vn -0.9914448613738104 0 -0.13052619222005193
vn 0 -1 0
vn 0 1 0
vn -0.9238795325112867 0 -0.38268343236508984
vn 0 -1 0
vn 0 1 0
vn -0.7933533402912354 0 -0.6087614290087204
vn 0 -1 0
vn 0 1 0
vn -0.608761429008721 0 -0.793353340291235
vn 0 -1 0
vn 0 1 0
vn -0.38268343236508945 0 -0.9238795325112868
vn 0 -1 0
vn 0 1 0
vn -0.13052619222005196 0 -0.9914448613738104
vn 0 -1 0
vn 0 1 0
vn 0.13052619222005188 0 -0.9914448613738104
vn 0 -1 0
vn 0 1 0
vn 0.3826834323650901 0 -0.9238795325112867
vn 0 -1 0
vn 0 1 0
vn 0.6087614290087202 0 -0.7933533402912355
vn 0 -1 0
vn 0 1 0
vn 0.7933533402912354 0 -0.6087614290087204
vn 0 -1 0
vn 0 1 0
vn 0.9238795325112868 0 -0.3826834323650895
vn 0 -1 0
vn 0 1 0
vn 0.9914448613738104 0 -0.13052619222005254
vn 0 -1 0
vn 0 1 0
vn 0.9914448613738105 0 0.13052619222005138
vn 0 -1 0
vn 0 1 0
vn 0.923879532511287 0 0.38268343236508956
vn 0 -1 0
vn 0 1 0
vn 0.7933533402912349 0 0.6087614290087209
vn 0 -1 0
vn 0 1 0
vn 0.6087614290087207 0 0.7933533402912352
vn 0 -1 0
vn 0 1 0
vn 0.38268343236509 0 0.9238795325112868
vn 0 -1 0
vn 0 1 0
vn 0.13052619222005213 0 0.9914448613738105
vn 0 -1 0
vn 0 1 0
vn -0.13052619222005138 0 0.9914448613738105
vn 0 -1 0
vn 0 1 0
vn -0.3826834323650894 0 0.923879532511287
vn 0 -1 0
vn 0 1 0
vn -0.6087614290087212 0 0.7933533402912349
vn 0 -1 0
vn 0 1 0
vn -0.7933533402912349 0 0.6087614290087212
vn 0 -1 0
vn 0 1 0
vn -0.9238795325112868 0 0.3826834323650901
vn 0 -1 0
vn 0 1 0
vn -0.9914448613738104 0 0.13052619222005196
vn 0 -1 0
vn 0 1 0
usemtl m_fd6528dc-6890-b3c9-f9b5-33bf351960de
f 54/241/73 56/242/73 55/243/73 53/244/73
f 53/245/74 55/246/74 51/247/74
f 56/248/75 54/249/75 52/250/75
f 56/251/76 58/252/76 57/253/76 55/254/76
f 55/255/77 57/256/77 51/257/77
f 58/258/78 56/259/78 52/260/78
f 58/261/79 60/262/79 59/263/79 57/264/79
f 57/265/80 59/266/80 51/267/80
f 60/268/81 58/269/81 52/270/81
f 60/271/82 62/272/82 61/273/82 59/274/82
f 59/275/83 61/276/83 51/277/83
f 62/278/84 60/279/84 52/280/84
f 62/281/85 64/282/85 63/283/85 61/284/85
f 61/285/86 63/286/86 51/287/86
f 64/288/87 62/289/87 52/290/87
f 64/291/88 66/292/88 65/293/88 63/294/88
f 63/295/89 65/296/89 51/297/89
f 66/298/90 64/299/90 52/300/90
f 66/301/91 68/302/91 67/303/91 65/304/91
f 65/305/92 67/306/92 51/307/92
f 68/308/93 66/309/93 52/310/93
f 68/311/94 70/312/94 69/313/94 67/314/94
f 67/315/95 69/316/95 51/317/95
f 70/318/96 68/319/96 52/320/96
f 70/321/97 72/322/97 71/323/97 69/324/97
f 69/325/98 71/326/98 51/327/98
f 72/328/99 70/329/99 52/330/99
f 72/331/100 74/332/100 73/333/100 71/334/100
f 71/335/101 73/336/101 51/337/101
f 74/338/102 72/339/102 52/340/102
f 74/341/103 76/342/103 75/343/103 73/344/103
f 73/345/104 75/346/104 51/347/104
f 76/348/105 74/349/105 52/350/105
f 76/351/106 78/352/106 77/353/106 75/354/106
f 75/355/107 77/356/107 51/357/107
f 78/358/108 76/359/108 52/360/108
f 78/361/109 80/362/109 79/363/109 77/364/109
f 77/365/110 79/366/110 51/367/110
f 80/368/111 78/369/111 52/370/111
f 80/371/112 82/372/112 81/373/112 79/374/112
f 79/375/113 81/376/113 51/377/113
f 82/378/114 80/379/114 52/380/114
f 82/381/115 84/382/115 83/383/115 81/384/115
f 81/385/116 83/386/116 51/387/116
f 84/388/117 82/389/117 52/390/117
f 84/391/118 86/392/118 85/393/118 83/394/118
f 83/395/119 85/396/119 51/397/119
f 86/398/120 84/399/120 52/400/120
f 86/401/121 88/402/121 87/403/121 85/404/121
f 85/405/122 87/406/122 51/407/122
f 88/408/123 86/409/123 52/410/123
f 88/411/124 90/412/124 89/413/124 87/414/124
f 87/415/125 89/416/125 51/417/125
f 90/418/126 88/419/126 52/420/126
f 90/421/127 92/422/127 91/423/127 89/424/127
f 89/425/128 91/426/128 51/427/128
f 92/428/129 90/429/129 52/430/129
f 92/431/130 94/432/130 93/433/130 91/434/130
f 91/435/131 93/436/131 51/437/131
f 94/438/132 92/439/132 52/440/132
f 94/441/133 96/442/133 95/443/133 93/444/133
f 93/445/134 95/446/134 51/447/134
f 96/448/135 94/449/135 52/450/135
f 96/451/136 98/452/136 97/453/136 95/454/136
f 95/455/137 97/456/137 51/457/137
f 98/458/138 96/459/138 52/460/138
f 98/461/139 100/462/139 99/463/139 97/464/139
f 97/465/140 99/466/140 51/467/140
f 100/468/141 98/469/141 52/470/141
f 100/471/142 54/472/142 53/473/142 99/474/142
f 99/475/143 53/476/143 51/477/143
f 54/478/144 100/479/144 52/480/144
o pommel_end_disk
v 0 -1.95625 0
v 0 -2.01875 0
v 0.06564304999999998 -1.95625 0
v 0.06564304999999998 -2.01875 0
v 0.06340631731138462 -1.95625 0.016989671518617022
v 0.06340631731138462 -2.01875 0.016989671518617022
v 0.05684854888189209 -1.95625 0.03282152499999998
v 0.05684854888189209 -2.01875 0.03282152499999998
v 0.0464166457927676 -1.95625 0.04641664579276759
v 0.0464166457927676 -2.01875 0.04641664579276759
v 0.032821525000000004 -1.95625 0.056848548881892086
v 0.032821525000000004 -2.01875 0.056848548881892086
v 0.016989671518617022 -1.95625 0.06340631731138462
v 0.016989671518617022 -2.01875 0.06340631731138462
v 4.0194775534384826e-18 -1.95625 0.06564304999999998
v 4.0194775534384826e-18 -2.01875 0.06564304999999998
v -0.01698967151861703 -1.95625 0.06340631731138462
v -0.01698967151861703 -2.01875 0.06340631731138462
v -0.03282152499999998 -1.95625 0.05684854888189209
v -0.03282152499999998 -2.01875 0.05684854888189209
v -0.04641664579276759 -1.95625 0.0464166457927676
v -0.04641664579276759 -2.01875 0.0464166457927676
v -0.05684854888189209 -1.95625 0.03282152499999998
v -0.05684854888189209 -2.01875 0.03282152499999998
v -0.06340631731138462 -1.95625 0.016989671518617036
v -0.06340631731138462 -2.01875 0.016989671518617036
v -0.06564304999999998 -1.95625 8.038955106876965e-18
v -0.06564304999999998 -2.01875 8.038955106876965e-18
v -0.06340631731138463 -1.95625 -0.016989671518616994
v -0.06340631731138463 -2.01875 -0.016989671518616994
v -0.056848548881892086 -1.95625 -0.032821525000000004
v -0.056848548881892086 -2.01875 -0.032821525000000004
v -0.0464166457927676 -1.95625 -0.04641664579276759
v -0.0464166457927676 -2.01875 -0.04641664579276759
v -0.032821525000000025 -1.95625 -0.05684854888189207
v -0.032821525000000025 -2.01875 -0.05684854888189207
v -0.016989671518617015 -1.95625 -0.06340631731138462
v -0.016989671518617015 -2.01875 -0.06340631731138462
v -1.2058432660315446e-17 -1.95625 -0.06564304999999998
v -1.2058432660315446e-17 -2.01875 -0.06564304999999998
v 0.01698967151861699 -1.95625 -0.06340631731138463
v 0.01698967151861699 -2.01875 -0.06340631731138463
v 0.032821525000000004 -1.95625 -0.056848548881892086
v 0.032821525000000004 -2.01875 -0.056848548881892086
v 0.04641664579276757 -1.95625 -0.0464166457927676
v 0.04641664579276757 -2.01875 -0.0464166457927676
v 0.05684854888189207 -1.95625 -0.032821525000000025
v 0.05684854888189207 -2.01875 -0.032821525000000025
v 0.06340631731138462 -1.95625 -0.016989671518617015
v 0.06340631731138462 -2.01875 -0.016989671518617015
vt 0.5 0.5
vt 0.5 0.5
vt 0.5 0.5
vt 0.5 0.5
vt 0.5 0.5
vt 0.5 0.5
vt 0.5 0.5
vt 0.5 0.5
vt 0.5 0.5
vt 0.5 0.5
vt 0.5 0.5
vt 0.5 0.5
vt 0.5 0.5
vt 0.5 0.5
vt 0.5 0.5
vt 0.5 0.5
vt 0.5 0.5
vt 0.5 0.5
vt 0.5 0.5
vt 0.5 0.5
vt 0.5 0.5
vt 0.5 0.5
vt 0.5 0.5
vt 0.5 0.5
vt 0.5 0.5
vt 0.5 0.5
vt 0.5 0.5
vt 0.5 0.5
vt 0.5 0.5
vt 0.5 0.5
vt 0.5 0.5
vt 0.5 0.5
vt 0.5 0.5
vt 0.5 0.5
vt 0.5 0.5
vt 0.5 0.5
vt 0.5 0.5
vt 0.5 0.5
vt 0.5 0.5
vt 0.5 0.5
vt 0.5 0.5
vt 0.5 0.5
vt 0.5 0.5
vt 0.5 0.5
vt 0.5 0.5
vt 0.5 0.5
vt 0.5 0.5
vt 0.5 0.5
vt 0.5 0.5
vt 0.5 0.5
vt 0.5 0.5
vt 0.5 0.5
vt 0.5 0.5
vt 0.5 0.5
vt 0.5 0.5
vt 0.5 0.5
vt 0.5 0.5
vt 0.5 0.5
vt 0.5 0.5
vt 0.5 0.5
vt 0.5 0.5
vt 0.5 0.5
vt 0.5 0.5
vt 0.5 0.5
vt 0.5 0.5
vt 0.5 0.5
vt 0.5 0.5
vt 0.5 0.5
vt 0.5 0.5
vt 0.5 0.5
vt 0.5 0.5
vt 0.5 0.5
vt 0.5 0.5
vt 0.5 0.5
vt 0.5 0.5
vt 0.5 0.5
vt 0.5 0.5
vt 0.5 0.5
vt 0.5 0.5
vt 0.5 0.5
vt 0.5 0.5
vt 0.5 0.5
vt 0.5 0.5
vt 0.5 0.5
vt 0.5 0.5
vt 0.5 0.5
vt 0.5 0.5
vt 0.5 0.5
vt 0.5 0.5
vt 0.5 0.5
vt 0.5 0.5
vt 0.5 0.5
vt 0.5 0.5
vt 0.5 0.5
vt 0.5 0.5
vt 0.5 0.5
vt 0.5 0.5
vt 0.5 0.5
vt 0.5 0.5
vt 0.5 0.5
vt 0.5 0.5
vt 0.5 0.5
vt 0.5 0.5
vt 0.5 0.5
vt 0.5 0.5
vt 0.5 0.5
vt 0.5 0.5
vt 0.5 0.5
vt 0.5 0.5
vt 0.5 0.5
vt 0.5 0.5
vt 0.5 0.5
vt 0.5 0.5
vt 0.5 0.5
vt 0.5 0.5
vt 0.5 0.5
vt 0.5 0.5
vt 0.5 0.5
vt 0.5 0.5
vt 0.5 0.5
vt 0.5 0.5
vt 0.5 0.5
vt 0.5 0.5
vt 0.5 0.5
vt 0.5 0.5
vt 0.5 0.5
vt 0.5 0.5
vt 0.5 0.5
vt 0.5 0.5
vt 0.5 0.5
vt 0.5 0.5
vt 0.5 0.5
vt 0.5 0.5
vt 0.5 0.5
vt 0.5 0.5
vt 0.5 0.5
vt 0.5 0.5
vt 0.5 0.5
vt 0.5 0.5
vt 0.5 0.5
vt 0.5 0.5
vt 0.5 0.5
vt 0.5 0.5
vt 0.5 0.5
vt 0.5 0.5
vt 0.5 0.5
vt 0.5 0.5
vt 0.5 0.5
vt 0.5 0.5
vt 0.5 0.5
vt 0.5 0.5
vt 0.5 0.5
vt 0.5 0.5
vt 0.5 0.5
vt 0.5 0.5
vt 0.5 0.5
vt 0.5 0.5
vt 0.5 0.5
vt 0.5 0.5
vt 0.5 0.5
vt 0.5 0.5
vt 0.5 0.5
vt 0.5 0.5
vt 0.5 0.5
vt 0.5 0.5
vt 0.5 0.5
vt 0.5 0.5
vt 0.5 0.5
vt 0.5 0.5
vt 0.5 0.5
vt 0.5 0.5
vt 0.5 0.5
vt 0.5 0.5
vt 0.5 0.5
vt 0.5 0.5
vt 0.5 0.5
vt 0.5 0.5
vt 0.5 0.5
vt 0.5 0.5
vt 0.5 0.5
vt 0.5 0.5
vt 0.5 0.5
vt 0.5 0.5
vt 0.5 0.5
vt 0.5 0.5
vt 0.5 0.5
vt 0.5 0.5
vt 0.5 0.5
vt 0.5 0.5
vt 0.5 0.5
vt 0.5 0.5
vt 0.5 0.5
vt 0.5 0.5
vt 0.5 0.5
vt 0.5 0.5
vt 0.5 0.5
vt 0.5 0.5
vt 0.5 0.5
vt 0.5 0.5
vt 0.5 0.5
vt 0.5 0.5
vt 0.5 0.5
vt 0.5 0.5
vt 0.5 0.5
vt 0.5 0.5
vt 0.5 0.5
vt 0.5 0.5
vt 0.5 0.5
vt 0.5 0.5
vt 0.5 0.5
vt 0.5 0.5
vt 0.5 0.5
vt 0.5 0.5
vt 0.5 0.5
vt 0.5 0.5
vt 0.5 0.5
vt 0.5 0.5
vt 0.5 0.5
vt 0.5 0.5
vt 0.5 0.5
vt 0.5 0.5
vt 0.5 0.5
vt 0.5 0.5
vt 0.5 0.5
vt 0.5 0.5
vt 0.5 0.5
vt 0.5 0.5
vt 0.5 0.5
vt 0.5 0.5
vt 0.5 0.5
vt 0.5 0.5
vt 0.5 0.5
vt 0.5 0.5
vt 0.5 0.5
vt 0.5 0.5
vt 0.5 0.5
vt 0.5 0.5
vt 0.5 0.5
vt 0.5 0.5
vt 0.5 0.5
vn -0.9914448613738106 0 -0.13052619222005096
vn 0 -1 0
vn 0 1 0
vn -0.9238795325112867 0 -0.3826834323650898
vn 0 -1 0
vn 0 1 0
vn -0.7933533402912355 0 -0.6087614290087203
vn 0 -1 0
vn 0 1 0
vn -0.6087614290087208 0 -0.793353340291235
vn 0 -1 0
vn 0 1 0
vn -0.3826834323650897 0 -0.9238795325112868
vn 0 -1 0
vn 0 1 0
vn -0.130526192220051 0 -0.9914448613738106
vn 0 -1 0
vn 0 1 0
vn 0.13052619222005088 0 -0.9914448613738106
vn 0 -1 0
vn 0 1 0
vn 0.38268343236509006 0 -0.9238795325112868
vn 0 -1 0
vn 0 1 0
vn 0.6087614290087203 0 -0.7933533402912355
vn 0 -1 0
vn 0 1 0
vn 0.7933533402912353 0 -0.6087614290087204
vn 0 -1 0
vn 0 1 0
vn 0.9238795325112866 0 -0.38268343236509006
vn 0 -1 0
vn 0 1 0
vn 0.9914448613738106 0 -0.1305261922200509
vn 0 -1 0
vn 0 1 0
vn 0.9914448613738106 0 0.1305261922200503
vn 0 -1 0
vn 0 1 0
vn 0.9238795325112867 0 0.38268343236508984
vn 0 -1 0
vn 0 1 0
vn 0.7933533402912352 0 0.6087614290087207
vn 0 -1 0
vn 0 1 0
vn 0.6087614290087209 0 0.7933533402912352
vn 0 -1 0
vn 0 1 0
vn 0.38268343236508984 0 0.9238795325112867
vn 0 -1 0
vn 0 1 0
vn 0.1305261922200511 0 0.9914448613738106
vn 0 -1 0
vn 0 1 0
vn -0.1305261922200503 0 0.9914448613738106
vn 0 -1 0
vn 0 1 0
vn -0.3826834323650897 0 0.9238795325112867
vn 0 -1 0
vn 0 1 0
vn -0.6087614290087211 0 0.793353340291235
vn 0 -1 0
vn 0 1 0
vn -0.7933533402912346 0 0.6087614290087213
vn 0 -1 0
vn 0 1 0
vn -0.9238795325112867 0 0.38268343236508984
vn 0 -1 0
vn 0 1 0
vn -0.9914448613738106 0 0.13052619222005102
vn 0 -1 0
vn 0 1 0
usemtl m_74f865cf-804f-74ba-3be0-4405179d6612
f 104/481/145 106/482/145 105/483/145 103/484/145
f 103/485/146 105/486/146 101/487/146
f 106/488/147 104/489/147 102/490/147
f 106/491/148 108/492/148 107/493/148 105/494/148
f 105/495/149 107/496/149 101/497/149
f 108/498/150 106/499/150 102/500/150
f 108/501/151 110/502/151 109/503/151 107/504/151
f 107/505/152 109/506/152 101/507/152
f 110/508/153 108/509/153 102/510/153
f 110/511/154 112/512/154 111/513/154 109/514/154
f 109/515/155 111/516/155 101/517/155
f 112/518/156 110/519/156 102/520/156
f 112/521/157 114/522/157 113/523/157 111/524/157
f 111/525/158 113/526/158 101/527/158
f 114/528/159 112/529/159 102/530/159
f 114/531/160 116/532/160 115/533/160 113/534/160
f 113/535/161 115/536/161 101/537/161
f 116/538/162 114/539/162 102/540/162
f 116/541/163 118/542/163 117/543/163 115/544/163
f 115/545/164 117/546/164 101/547/164
f 118/548/165 116/549/165 102/550/165
f 118/551/166 120/552/166 119/553/166 117/554/166
f 117/555/167 119/556/167 101/557/167
f 120/558/168 118/559/168 102/560/168
f 120/561/169 122/562/169 121/563/169 119/564/169
f 119/565/170 121/566/170 101/567/170
f 122/568/171 120/569/171 102/570/171
f 122/571/172 124/572/172 123/573/172 121/574/172
f 121/575/173 123/576/173 101/577/173
f 124/578/174 122/579/174 102/580/174
f 124/581/175 126/582/175 125/583/175 123/584/175
f 123/585/176 125/586/176 101/587/176
f 126/588/177 124/589/177 102/590/177
f 126/591/178 128/592/178 127/593/178 125/594/178
f 125/595/179 127/596/179 101/597/179
f 128/598/180 126/599/180 102/600/180
f 128/601/181 130/602/181 129/603/181 127/604/181
f 127/605/182 129/606/182 101/607/182
f 130/608/183 128/609/183 102/610/183
f 130/611/184 132/612/184 131/613/184 129/614/184
f 129/615/185 131/616/185 101/617/185
f 132/618/186 130/619/186 102/620/186
f 132/621/187 134/622/187 133/623/187 131/624/187
f 131/625/188 133/626/188 101/627/188
f 134/628/189 132/629/189 102/630/189
f 134/631/190 136/632/190 135/633/190 133/634/190
f 133/635/191 135/636/191 101/637/191
f 136/638/192 134/639/192 102/640/192
f 136/641/193 138/642/193 137/643/193 135/644/193
f 135/645/194 137/646/194 101/647/194
f 138/648/195 136/649/195 102/650/195
f 138/651/196 140/652/196 139/653/196 137/654/196
f 137/655/197 139/656/197 101/657/197
f 140/658/198 138/659/198 102/660/198
f 140/661/199 142/662/199 141/663/199 139/664/199
f 139/665/200 141/666/200 101/667/200
f 142/668/201 140/669/201 102/670/201
f 142/671/202 144/672/202 143/673/202 141/674/202
f 141/675/203 143/676/203 101/677/203
f 144/678/204 142/679/204 102/680/204
f 144/681/205 146/682/205 145/683/205 143/684/205
f 143/685/206 145/686/206 101/687/206
f 146/688/207 144/689/207 102/690/207
f 146/691/208 148/692/208 147/693/208 145/694/208
f 145/695/209 147/696/209 101/697/209
f 148/698/210 146/699/210 102/700/210
f 148/701/211 150/702/211 149/703/211 147/704/211
f 147/705/212 149/706/212 101/707/212
f 150/708/213 148/709/213 102/710/213
f 150/711/214 104/712/214 103/713/214 149/714/214
f 149/715/215 103/716/215 101/717/215
f 104/718/216 150/719/216 102/720/216