# Made in Blockbench 5.1.4
mtllib materials.mtl

o core_button_module
v 0 1.44375 0
v 0 1.13125 0
v 0.055473 1.44375 0
v 0.055473 1.13125 0
v 0.05358280336173349 1.44375 0.014357468888972134
v 0.05358280336173349 1.13125 0.014357468888972134
v 0.04804102722413417 1.44375 0.027736499999999997
v 0.04804102722413417 1.13125 0.027736499999999997
v 0.03922533447276135 1.44375 0.03922533447276135
v 0.03922533447276135 1.13125 0.03922533447276135
v 0.027736500000000008 1.44375 0.04804102722413416
v 0.027736500000000008 1.13125 0.04804102722413416
v 0.014357468888972134 1.44375 0.05358280336173349
v 0.014357468888972134 1.13125 0.05358280336173349
v 3.3967415944550562e-18 1.44375 0.055473
v 3.3967415944550562e-18 1.13125 0.055473
v -0.014357468888972139 1.44375 0.05358280336173349
v -0.014357468888972139 1.13125 0.05358280336173349
v -0.027736499999999987 1.44375 0.04804102722413417
v -0.027736499999999987 1.13125 0.04804102722413417
v -0.03922533447276135 1.44375 0.03922533447276135
v -0.03922533447276135 1.13125 0.03922533447276135
v -0.04804102722413417 1.44375 0.027736499999999997
v -0.04804102722413417 1.13125 0.027736499999999997
v -0.05358280336173348 1.44375 0.01435746888897215
v -0.05358280336173348 1.13125 0.01435746888897215
v -0.055473 1.44375 6.7934831889101125e-18
v -0.055473 1.13125 6.7934831889101125e-18
v -0.053582803361733496 1.44375 -0.014357468888972111
v -0.053582803361733496 1.13125 -0.014357468888972111
v -0.04804102722413416 1.44375 -0.027736500000000008
v -0.04804102722413416 1.13125 -0.027736500000000008
v -0.03922533447276136 1.44375 -0.03922533447276135
v -0.03922533447276136 1.13125 -0.03922533447276135
v -0.027736500000000025 1.44375 -0.04804102722413415
v -0.027736500000000025 1.13125 -0.04804102722413415
v -0.014357468888972127 1.44375 -0.05358280336173349
v -0.014357468888972127 1.13125 -0.05358280336173349
v -1.0190224783365168e-17 1.44375 -0.055473
v -1.0190224783365168e-17 1.13125 -0.055473
v 0.01435746888897211 1.44375 -0.053582803361733496
v 0.01435746888897211 1.13125 -0.053582803361733496
v 0.027736500000000008 1.44375 -0.04804102722413416
v 0.027736500000000008 1.13125 -0.04804102722413416
v 0.039225334472761345 1.44375 -0.03922533447276136
v 0.039225334472761345 1.13125 -0.03922533447276136
v 0.04804102722413415 1.44375 -0.027736500000000025
v 0.04804102722413415 1.13125 -0.027736500000000025
v 0.05358280336173349 1.44375 -0.01435746888897213
v 0.05358280336173349 1.13125 -0.01435746888897213
vt 0.5 0.5
vt 0.5 0.5
vt 0.5 0.5
vt 0.5 0.5
vt 0.5 0.5
vt 0.5 0.5
vt 0.5 0.5
vt 0.5 0.5
vt 0.5 0.5
vt 0.5 0.5
vt 0.5 0.5
vt 0.5 0.5
vt 0.5 0.5
vt 0.5 0.5
vt 0.5 0.5
vt 0.5 0.5
vt 0.5 0.5
vt 0.5 0.5
vt 0.5 0.5
vt 0.5 0.5
vt 0.5 0.5
vt 0.5 0.5
vt 0.5 0.5
vt 0.5 0.5
vt 0.5 0.5
vt 0.5 0.5
vt 0.5 0.5
vt 0.5 0.5
vt 0.5 0.5
vt 0.5 0.5
vt 0.5 0.5
vt 0.5 0.5
vt 0.5 0.5
vt 0.5 0.5
vt 0.5 0.5
vt 0.5 0.5
vt 0.5 0.5
vt 0.5 0.5
vt 0.5 0.5
vt 0.5 0.5
vt 0.5 0.5
vt 0.5 0.5
vt 0.5 0.5
vt 0.5 0.5
vt 0.5 0.5
vt 0.5 0.5
vt 0.5 0.5
vt 0.5 0.5
vt 0.5 0.5
vt 0.5 0.5
vt 0.5 0.5
vt 0.5 0.5
vt 0.5 0.5
vt 0.5 0.5
vt 0.5 0.5
vt 0.5 0.5
vt 0.5 0.5
vt 0.5 0.5
vt 0.5 0.5
vt 0.5 0.5
vt 0.5 0.5
vt 0.5 0.5
vt 0.5 0.5
vt 0.5 0.5
vt 0.5 0.5
vt 0.5 0.5
vt 0.5 0.5
vt 0.5 0.5
vt 0.5 0.5
vt 0.5 0.5
vt 0.5 0.5
vt 0.5 0.5
vt 0.5 0.5
vt 0.5 0.5
vt 0.5 0.5
vt 0.5 0.5
vt 0.5 0.5
vt 0.5 0.5
vt 0.5 0.5
vt 0.5 0.5
vt 0.5 0.5
vt 0.5 0.5
vt 0.5 0.5
vt 0.5 0.5
vt 0.5 0.5
vt 0.5 0.5
vt 0.5 0.5
vt 0.5 0.5
vt 0.5 0.5
vt 0.5 0.5
vt 0.5 0.5
vt 0.5 0.5
vt 0.5 0.5
vt 0.5 0.5
vt 0.5 0.5
vt 0.5 0.5
vt 0.5 0.5
vt 0.5 0.5
vt 0.5 0.5
vt 0.5 0.5
vt 0.5 0.5
vt 0.5 0.5
vt 0.5 0.5
vt 0.5 0.5
vt 0.5 0.5
vt 0.5 0.5
vt 0.5 0.5
vt 0.5 0.5
vt 0.5 0.5
vt 0.5 0.5
vt 0.5 0.5
vt 0.5 0.5
vt 0.5 0.5
vt 0.5 0.5
vt 0.5 0.5
vt 0.5 0.5
vt 0.5 0.5
vt 0.5 0.5
vt 0.5 0.5
vt 0.5 0.5
vt 0.5 0.5
vt 0.5 0.5
vt 0.5 0.5
vt 0.5 0.5
vt 0.5 0.5
vt 0.5 0.5
vt 0.5 0.5
vt 0.5 0.5
vt 0.5 0.5
vt 0.5 0.5
vt 0.5 0.5
vt 0.5 0.5
vt 0.5 0.5
vt 0.5 0.5
vt 0.5 0.5
vt 0.5 0.5
vt 0.5 0.5
vt 0.5 0.5
vt 0.5 0.5
vt 0.5 0.5
vt 0.5 0.5
vt 0.5 0.5
vt 0.5 0.5
vt 0.5 0.5
vt 0.5 0.5
vt 0.5 0.5
vt 0.5 0.5
vt 0.5 0.5
vt 0.5 0.5
vt 0.5 0.5
vt 0.5 0.5
vt 0.5 0.5
vt 0.5 0.5
vt 0.5 0.5
vt 0.5 0.5
vt 0.5 0.5
vt 0.5 0.5
vt 0.5 0.5
vt 0.5 0.5
vt 0.5 0.5
vt 0.5 0.5
vt 0.5 0.5
vt 0.5 0.5
vt 0.5 0.5
vt 0.5 0.5
vt 0.5 0.5
vt 0.5 0.5
vt 0.5 0.5
vt 0.5 0.5
vt 0.5 0.5
vt 0.5 0.5
vt 0.5 0.5
vt 0.5 0.5
vt 0.5 0.5
vt 0.5 0.5
vt 0.5 0.5
vt 0.5 0.5
vt 0.5 0.5
vt 0.5 0.5
vt 0.5 0.5
vt 0.5 0.5
vt 0.5 0.5
vt 0.5 0.5
vt 0.5 0.5
vt 0.5 0.5
vt 0.5 0.5
vt 0.5 0.5
vt 0.5 0.5
vt 0.5 0.5
vt 0.5 0.5
vt 0.5 0.5
vt 0.5 0.5
vt 0.5 0.5
vt 0.5 0.5
vt 0.5 0.5
vt 0.5 0.5
vt 0.5 0.5
vt 0.5 0.5
vt 0.5 0.5
vt 0.5 0.5
vt 0.5 0.5
vt 0.5 0.5
vt 0.5 0.5
vt 0.5 0.5
vt 0.5 0.5
vt 0.5 0.5
vt 0.5 0.5
vt 0.5 0.5
vt 0.5 0.5
vt 0.5 0.5
vt 0.5 0.5
vt 0.5 0.5
vt 0.5 0.5
vt 0.5 0.5
vt 0.5 0.5
vt 0.5 0.5
vt 0.5 0.5
vt 0.5 0.5
vt 0.5 0.5
vt 0.5 0.5
vt 0.5 0.5
vt 0.5 0.5
vt 0.5 0.5
vt 0.5 0.5
vt 0.5 0.5
vt 0.5 0.5
vt 0.5 0.5
vt 0.5 0.5
vt 0.5 0.5
vt 0.5 0.5
vt 0.5 0.5
vt 0.5 0.5
vt 0.5 0.5
vt 0.5 0.5
vt 0.5 0.5
vt 0.5 0.5
vt 0.5 0.5
vt 0.5 0.5
vt 0.5 0.5
vt 0.5 0.5
vn -0.9914448613738105 0 -0.13052619222005146
vn 0 -1 0
vn 0 1 0
vn -0.9238795325112867 0 -0.3826834323650897
vn 0 -1 0
vn 0 1 0
vn -0.7933533402912352 0 -0.6087614290087208
vn 0 -1 0
vn 0 1 0
vn -0.6087614290087208 0 -0.7933533402912352
vn 0 -1 0
vn 0 1 0
vn -0.38268343236509006 0 -0.9238795325112868
vn 0 -1 0
vn 0 1 0
vn -0.1305261922200515 0 -0.9914448613738105
vn 0 -1 0
vn 0 1 0
vn 0.13052619222005138 0 -0.9914448613738105
vn 0 -1 0
vn 0 1 0
vn 0.3826834323650902 0 -0.9238795325112867
vn 0 -1 0
vn 0 1 0
vn 0.6087614290087204 0 -0.7933533402912354
vn 0 -1 0
vn 0 1 0
vn 0.7933533402912352 0 -0.6087614290087208
vn 0 -1 0
vn 0 1 0
vn 0.9238795325112868 0 -0.3826834323650898
vn 0 -1 0
vn 0 1 0
vn 0.9914448613738105 0 -0.13052619222005185
vn 0 -1 0
vn 0 1 0
vn 0.9914448613738106 0 0.13052619222005113
vn 0 -1 0
vn 0 1 0
vn 0.9238795325112867 0 0.3826834323650898
vn 0 -1 0
vn 0 1 0
vn 0.7933533402912355 0 0.6087614290087204
vn 0 -1 0
vn 0 1 0
vn 0.6087614290087204 0 0.7933533402912353
vn 0 -1 0
vn 0 1 0
vn 0.38268343236509017 0 0.9238795325112866
vn 0 -1 0
vn 0 1 0
vn 0.1305261922200516 0 0.9914448613738104
vn 0 -1 0
vn 0 1 0
vn -0.13052619222005113 0 0.9914448613738106
vn 0 -1 0
vn 0 1 0
vn -0.3826834323650898 0 0.9238795325112867
vn 0 -1 0
vn 0 1 0
vn -0.6087614290087208 0 0.7933533402912353
vn 0 -1 0
vn 0 1 0
vn -0.7933533402912352 0 0.6087614290087209
vn 0 -1 0
vn 0 1 0
vn -0.9238795325112867 0 0.38268343236509034
vn 0 -1 0
vn 0 1 0
vn -0.9914448613738105 0 0.1305261922200515
vn 0 -1 0
vn 0 1 0
usemtl m_74f865cf-804f-74ba-3be0-4405179d6612
f 4/1/1 6/2/1 5/3/1 3/4/1
f 3/5/2 5/6/2 1/7/2
f 6/8/3 4/9/3 2/10/3
f 6/11/4 8/12/4 7/13/4 5/14/4
f 5/15/5 7/16/5 1/17/5
f 8/18/6 6/19/6 2/20/6
f 8/21/7 10/22/7 9/23/7 7/24/7
f 7/25/8 9/26/8 1/27/8
f 10/28/9 8/29/9 2/30/9
f 10/31/10 12/32/10 11/33/10 9/34/10
f 9/35/11 11/36/11 1/37/11
f 12/38/12 10/39/12 2/40/12
f 12/41/13 14/42/13 13/43/13 11/44/13
f 11/45/14 13/46/14 1/47/14
f 14/48/15 12/49/15 2/50/15
f 14/51/16 16/52/16 15/53/16 13/54/16
f 13/55/17 15/56/17 1/57/17
f 16/58/18 14/59/18 2/60/18
f 16/61/19 18/62/19 17/63/19 15/64/19
f 15/65/20 17/66/20 1/67/20
f 18/68/21 16/69/21 2/70/21
f 18/71/22 20/72/22 19/73/22 17/74/22
f 17/75/23 19/76/23 1/77/23
f 20/78/24 18/79/24 2/80/24
f 20/81/25 22/82/25 21/83/25 19/84/25
f 19/85/26 21/86/26 1/87/26
f 22/88/27 20/89/27 2/90/27
f 22/91/28 24/92/28 23/93/28 21/94/28
f 21/95/29 23/96/29 1/97/29
f 24/98/30 22/99/30 2/100/30
f 24/101/31 26/102/31 25/103/31 23/104/31
f 23/105/32 25/106/32 1/107/32
f 26/108/33 24/109/33 2/110/33
f 26/111/34 28/112/34 27/113/34 25/114/34
f 25/115/35 27/116/35 1/117/35
f 28/118/36 26/119/36 2/120/36
f 28/121/37 30/122/37 29/123/37 27/124/37
f 27/125/38 29/126/38 1/127/38
f 30/128/39 28/129/39 2/130/39
f 30/131/40 32/132/40 31/133/40 29/134/40
f 29/135/41 31/136/41 1/137/41
f 32/138/42 30/139/42 2/140/42
f 32/141/43 34/142/43 33/143/43 31/144/43
f 31/145/44 33/146/44 1/147/44
f 34/148/45 32/149/45 2/150/45
f 34/151/46 36/152/46 35/153/46 33/154/46
f 33/155/47 35/156/47 1/157/47
f 36/158/48 34/159/48 2/160/48
f 36/161/49 38/162/49 37/163/49 35/164/49
f 35/165/50 37/166/50 1/167/50
f 38/168/51 36/169/51 2/170/51
f 38/171/52 40/172/52 39/173/52 37/174/52
f 37/175/53 39/176/53 1/177/53
f 40/178/54 38/179/54 2/180/54
f 40/181/55 42/182/55 41/183/55 39/184/55
f 39/185/56 41/186/56 1/187/56
f 42/188/57 40/189/57 2/190/57
f 42/191/58 44/192/58 43/193/58 41/194/58
f 41/195/59 43/196/59 1/197/59
f 44/198/60 42/199/60 2/200/60
f 44/201/61 46/202/61 45/203/61 43/204/61
f 43/205/62 45/206/62 1/207/62
f 46/208/63 44/209/63 2/210/63
f 46/211/64 48/212/64 47/213/64 45/214/64
f 45/215/65 47/216/65 1/217/65
f 48/218/66 46/219/66 2/220/66
f 48/221/67 50/222/67 49/223/67 47/224/67
f 47/225/68 49/226/68 1/227/68
f 50/228/69 48/229/69 2/230/69
f 50/231/70 4/232/70 3/233/70 49/234/70
f 49/235/71 3/236/71 1/237/71
f 4/238/72 50/239/72 2/240/72
o upper_choke
v 0 1.44375 0
v 0 1.13125 0
v 0.0665676 1.44375 0
v 0.0665676 1.13125 0
v 0.06429936403408018 1.44375 0.01722896266676656
v 0.06429936403408018 1.13125 0.01722896266676656
v 0.057649232668961 1.44375 0.033283799999999995
v 0.057649232668961 1.13125 0.033283799999999995
v 0.047070401367313615 1.44375 0.047070401367313615
v 0.047070401367313615 1.13125 0.047070401367313615
v 0.03328380000000001 1.44375 0.05764923266896099
v 0.03328380000000001 1.13125 0.05764923266896099
v 0.01722896266676656 1.44375 0.06429936403408018
v 0.01722896266676656 1.13125 0.06429936403408018
v 4.076089913346067e-18 1.44375 0.0665676
v 4.076089913346067e-18 1.13125 0.0665676
v -0.017228962666766563 1.44375 0.06429936403408018
v -0.017228962666766563 1.13125 0.06429936403408018
v -0.03328379999999998 1.44375 0.057649232668961
v -0.03328379999999998 1.13125 0.057649232668961
v -0.047070401367313615 1.44375 0.047070401367313615
v -0.047070401367313615 1.13125 0.047070401367313615
v -0.057649232668961 1.44375 0.033283799999999995
v -0.057649232668961 1.13125 0.033283799999999995
v -0.06429936403408017 1.44375 0.017228962666766576
v -0.06429936403408017 1.13125 0.017228962666766576
v -0.0665676 1.44375 8.152179826692133e-18
v -0.0665676 1.13125 8.152179826692133e-18
v -0.0642993640340802 1.44375 -0.01722896266676653
v -0.0642993640340802 1.13125 -0.01722896266676653
v -0.05764923266896099 1.44375 -0.03328380000000001
v -0.05764923266896099 1.13125 -0.03328380000000001
v -0.04707040136731363 1.44375 -0.047070401367313615
v -0.04707040136731363 1.13125 -0.047070401367313615
v -0.03328380000000003 1.44375 -0.057649232668960965
v -0.03328380000000003 1.13125 -0.057649232668960965
v -0.017228962666766552 1.44375 -0.06429936403408018
v -0.017228962666766552 1.13125 -0.06429936403408018
v -1.2228269740038202e-17 1.44375 -0.0665676
v -1.2228269740038202e-17 1.13125 -0.0665676
v 0.01722896266676653 1.44375 -0.0642993640340802
v 0.01722896266676653 1.13125 -0.0642993640340802
v 0.03328380000000001 1.44375 -0.05764923266896099
v 0.03328380000000001 1.13125 -0.05764923266896099
v 0.0470704013673136 1.44375 -0.04707040136731363
v 0.0470704013673136 1.13125 -0.04707040136731363
v 0.057649232668960965 1.44375 -0.03328380000000003
v 0.057649232668960965 1.13125 -0.03328380000000003
v 0.06429936403408018 1.44375 -0.017228962666766552
v 0.06429936403408018 1.13125 -0.017228962666766552
vt 0.5 0.5
vt 0.5 0.5
vt 0.5 0.5
vt 0.5 0.5
vt 0.5 0.5
vt 0.5 0.5
vt 0.5 0.5
vt 0.5 0.5
vt 0.5 0.5
vt 0.5 0.5
vt 0.5 0.5
vt 0.5 0.5
vt 0.5 0.5
vt 0.5 0.5
vt 0.5 0.5
vt 0.5 0.5
vt 0.5 0.5
vt 0.5 0.5
vt 0.5 0.5
vt 0.5 0.5
vt 0.5 0.5
vt 0.5 0.5
vt 0.5 0.5
vt 0.5 0.5
vt 0.5 0.5
vt 0.5 0.5
vt 0.5 0.5
vt 0.5 0.5
vt 0.5 0.5
vt 0.5 0.5
vt 0.5 0.5
vt 0.5 0.5
vt 0.5 0.5
vt 0.5 0.5
vt 0.5 0.5
vt 0.5 0.5
vt 0.5 0.5
vt 0.5 0.5
vt 0.5 0.5
vt 0.5 0.5
vt 0.5 0.5
vt 0.5 0.5
vt 0.5 0.5
vt 0.5 0.5
vt 0.5 0.5
vt 0.5 0.5
vt 0.5 0.5
vt 0.5 0.5
vt 0.5 0.5
vt 0.5 0.5
vt 0.5 0.5
vt 0.5 0.5
vt 0.5 0.5
vt 0.5 0.5
vt 0.5 0.5
vt 0.5 0.5
vt 0.5 0.5
vt 0.5 0.5
vt 0.5 0.5
vt 0.5 0.5
vt 0.5 0.5
vt 0.5 0.5
vt 0.5 0.5
vt 0.5 0.5
vt 0.5 0.5
vt 0.5 0.5
vt 0.5 0.5
vt 0.5 0.5
vt 0.5 0.5
vt 0.5 0.5
vt 0.5 0.5
vt 0.5 0.5
vt 0.5 0.5
vt 0.5 0.5
vt 0.5 0.5
vt 0.5 0.5
vt 0.5 0.5
vt 0.5 0.5
vt 0.5 0.5
vt 0.5 0.5
vt 0.5 0.5
vt 0.5 0.5
vt 0.5 0.5
vt 0.5 0.5
vt 0.5 0.5
vt 0.5 0.5
vt 0.5 0.5
vt 0.5 0.5
vt 0.5 0.5
vt 0.5 0.5
vt 0.5 0.5
vt 0.5 0.5
vt 0.5 0.5
vt 0.5 0.5
vt 0.5 0.5
vt 0.5 0.5
vt 0.5 0.5
vt 0.5 0.5
vt 0.5 0.5
vt 0.5 0.5
vt 0.5 0.5
vt 0.5 0.5
vt 0.5 0.5
vt 0.5 0.5
vt 0.5 0.5
vt 0.5 0.5
vt 0.5 0.5
vt 0.5 0.5
vt 0.5 0.5
vt 0.5 0.5
vt 0.5 0.5
vt 0.5 0.5
vt 0.5 0.5
vt 0.5 0.5
vt 0.5 0.5
vt 0.5 0.5
vt 0.5 0.5
vt 0.5 0.5
vt 0.5 0.5
vt 0.5 0.5
vt 0.5 0.5
vt 0.5 0.5
vt 0.5 0.5
vt 0.5 0.5
vt 0.5 0.5
vt 0.5 0.5
vt 0.5 0.5
vt 0.5 0.5
vt 0.5 0.5
vt 0.5 0.5
vt 0.5 0.5
vt 0.5 0.5
vt 0.5 0.5
vt 0.5 0.5
vt 0.5 0.5
vt 0.5 0.5
vt 0.5 0.5
vt 0.5 0.5
vt 0.5 0.5
vt 0.5 0.5
vt 0.5 0.5
vt 0.5 0.5
vt 0.5 0.5
vt 0.5 0.5
vt 0.5 0.5
vt 0.5 0.5
vt 0.5 0.5
vt 0.5 0.5
vt 0.5 0.5
vt 0.5 0.5
vt 0.5 0.5
vt 0.5 0.5
vt 0.5 0.5
vt 0.5 0.5
vt 0.5 0.5
vt 0.5 0.5
vt 0.5 0.5
vt 0.5 0.5
vt 0.5 0.5
vt 0.5 0.5
vt 0.5 0.5
vt 0.5 0.5
vt 0.5 0.5
vt 0.5 0.5
vt 0.5 0.5
vt 0.5 0.5
vt 0.5 0.5
vt 0.5 0.5
vt 0.5 0.5
vt 0.5 0.5
vt 0.5 0.5
vt 0.5 0.5
vt 0.5 0.5
vt 0.5 0.5
vt 0.5 0.5
vt 0.5 0.5
vt 0.5 0.5
vt 0.5 0.5
vt 0.5 0.5
vt 0.5 0.5
vt 0.5 0.5
vt 0.5 0.5
vt 0.5 0.5
vt 0.5 0.5
vt 0.5 0.5
vt 0.5 0.5
vt 0.5 0.5
vt 0.5 0.5
vt 0.5 0.5
vt 0.5 0.5
vt 0.5 0.5
vt 0.5 0.5
vt 0.5 0.5
vt 0.5 0.5
vt 0.5 0.5
vt 0.5 0.5
vt 0.5 0.5
vt 0.5 0.5
vt 0.5 0.5
vt 0.5 0.5
vt 0.5 0.5
vt 0.5 0.5
vt 0.5 0.5
vt 0.5 0.5
vt 0.5 0.5
vt 0.5 0.5
vt 0.5 0.5
vt 0.5 0.5
vt 0.5 0.5
vt 0.5 0.5
vt 0.5 0.5
vt 0.5 0.5
vt 0.5 0.5
vt 0.5 0.5
vt 0.5 0.5
vt 0.5 0.5
vt 0.5 0.5
vt 0.5 0.5
vt 0.5 0.5
vt 0.5 0.5
vt 0.5 0.5
vt 0.5 0.5
vt 0.5 0.5
vt 0.5 0.5
vt 0.5 0.5
vt 0.5 0.5
vt 0.5 0.5
vt 0.5 0.5
vt 0.5 0.5
vt 0.5 0.5
vt 0.5 0.5
vt 0.5 0.5
vt 0.5 0.5
vt 0.5 0.5
vt 0.5 0.5
vt 0.5 0.5
vt 0.5 0.5
vt 0.5 0.5
vt 0.5 0.5
vt 0.5 0.5
vn -0.9914448613738104 0 -0.13052619222005193
vn 0 -1 0
vn 0 1 0
vn -0.9238795325112867 0 -0.3826834323650897
vn 0 -1 0
vn 0 1 0
vn -0.7933533402912349 0 -0.608761429008721
vn 0 -1 0
vn 0 1 0
vn -0.6087614290087211 0 -0.7933533402912348
vn 0 -1 0
vn 0 1 0
vn -0.3826834323650897 0 -0.9238795325112867
vn 0 -1 0
vn 0 1 0
vn -0.13052619222005196 0 -0.9914448613738104
vn 0 -1 0
vn 0 1 0
vn 0.13052619222005188 0 -0.9914448613738104
vn 0 -1 0
vn 0 1 0
vn 0.3826834323650901 0 -0.9238795325112867
vn 0 -1 0
vn 0 1 0
vn 0.6087614290087207 0 -0.7933533402912354
vn 0 -1 0
vn 0 1 0
vn 0.7933533402912349 0 -0.608761429008721
vn 0 -1 0
vn 0 1 0
vn 0.9238795325112871 0 -0.38268343236508945
vn 0 -1 0
vn 0 1 0
vn 0.9914448613738103 0 -0.13052619222005263
vn 0 -1 0
vn 0 1 0
vn 0.9914448613738106 0 0.13052619222005132
vn 0 -1 0
vn 0 1 0
vn 0.9238795325112868 0 0.38268343236508995
vn 0 -1 0
vn 0 1 0
vn 0.7933533402912353 0 0.6087614290087207
vn 0 -1 0
vn 0 1 0
vn 0.6087614290087202 0 0.7933533402912355
vn 0 -1 0
vn 0 1 0
vn 0.3826834323650906 0 0.9238795325112866
vn 0 -1 0
vn 0 1 0
vn 0.13052619222005207 0 0.9914448613738104
vn 0 -1 0
vn 0 1 0
vn -0.13052619222005127 0 0.9914448613738106
vn 0 -1 0
vn 0 1 0
vn -0.38268343236508995 0 0.9238795325112868
vn 0 -1 0
vn 0 1 0
vn -0.608761429008721 0 0.7933533402912349
vn 0 -1 0
vn 0 1 0
vn -0.793353340291235 0 0.6087614290087208
vn 0 -1 0
vn 0 1 0
vn -0.9238795325112866 0 0.3826834323650906
vn 0 -1 0
vn 0 1 0
vn -0.9914448613738104 0 0.130526192220052
vn 0 -1 0
vn 0 1 0
usemtl m_fd6528dc-6890-b3c9-f9b5-33bf351960de
f 54/241/73 56/242/73 55/243/73 53/244/73
f 53/245/74 55/246/74 51/247/74
f 56/248/75 54/249/75 52/250/75
f 56/251/76 58/252/76 57/253/76 55/254/76
f 55/255/77 57/256/77 51/257/77
f 58/258/78 56/259/78 52/260/78
f 58/261/79 60/262/79 59/263/79 57/264/79
f 57/265/80 59/266/80 51/267/80
f 60/268/81 58/269/81 52/270/81
f 60/271/82 62/272/82 61/273/82 59/274/82
f 59/275/83 61/276/83 51/277/83
f 62/278/84 60/279/84 52/280/84
f 62/281/85 64/282/85 63/283/85 61/284/85
f 61/285/86 63/286/86 51/287/86
f 64/288/87 62/289/87 52/290/87
f 64/291/88 66/292/88 65/293/88 63/294/88
f 63/295/89 65/296/89 51/297/89
f 66/298/90 64/299/90 52/300/90
f 66/301/91 68/302/91 67/303/91 65/304/91
f 65/305/92 67/306/92 51/307/92
f 68/308/93 66/309/93 52/310/93
f 68/311/94 70/312/94 69/313/94 67/314/94
f 67/315/95 69/316/95 51/317/95
f 70/318/96 68/319/96 52/320/96
f 70/321/97 72/322/97 71/323/97 69/324/97
f 69/325/98 71/326/98 51/327/98
f 72/328/99 70/329/99 52/330/99
f 72/331/100 74/332/100 73/333/100 71/334/100
f 71/335/101 73/336/101 51/337/101
f 74/338/102 72/339/102 52/340/102
f 74/341/103 76/342/103 75/343/103 73/344/103
f 73/345/104 75/346/104 51/347/104
f 76/348/105 74/349/105 52/350/105
f 76/351/106 78/352/106 77/353/106 75/354/106
f 75/355/107 77/356/107 51/357/107
f 78/358/108 76/359/108 52/360/108
f 78/361/109 80/362/109 79/363/109 77/364/109
f 77/365/110 79/366/110 51/367/110
f 80/368/111 78/369/111 52/370/111
f 80/371/112 82/372/112 81/373/112 79/374/112
f 79/375/113 81/376/113 51/377/113
f 82/378/114 80/379/114 52/380/114
f 82/381/115 84/382/115 83/383/115 81/384/115
f 81/385/116 83/386/116 51/387/116
f 84/388/117 82/389/117 52/390/117
f 84/391/118 86/392/118 85/393/118 83/394/118
f 83/395/119 85/396/119 51/397/119
f 86/398/120 84/399/120 52/400/120
f 86/401/121 88/402/121 87/403/121 85/404/121
f 85/405/122 87/406/122 51/407/122
f 88/408/123 86/409/123 52/410/123
f 88/411/124 90/412/124 89/413/124 87/414/124
f 87/415/125 89/416/125 51/417/125
f 90/418/126 88/419/126 52/420/126
f 90/421/127 92/422/127 91/423/127 89/424/127
f 89/425/128 91/426/128 51/427/128
f 92/428/129 90/429/129 52/430/129
f 92/431/130 94/432/130 93/433/130 91/434/130
f 91/435/131 93/436/131 51/437/131
f 94/438/132 92/439/132 52/440/132
f 94/441/133 96/442/133 95/443/133 93/444/133
f 93/445/134 95/446/134 51/447/134
f 96/448/135 94/449/135 52/450/135
f 96/451/136 98/452/136 97/453/136 95/454/136
f 95/455/137 97/456/137 51/457/137
f 98/458/138 96/459/138 52/460/138
f 98/461/139 100/462/139 99/463/139 97/464/139
f 97/465/140 99/466/140 51/467/140
f 100/468/141 98/469/141 52/470/141
f 100/471/142 54/472/142 53/473/142 99/474/142
f 99/475/143 53/476/143 51/477/143
f 54/478/144 100/479/144 52/480/144
o switch_mount_ring
v 0 1.39375 0
v 0 1.1812500000000001 0
v 0.084375 1.39375 0
v 0.084375 1.1812500000000001 0
v 0.08275375803402257 1.39375 0.016460745920110823
v 0.08275375803402257 1.1812500000000001 0.016460745920110823
v 0.07795233555563982 1.39375 0.03228891460580445
v 0.07795233555563982 1.1812500000000001 0.03228891460580445
v 0.07015524853802727 1.39375 0.046876238411028934
v 0.07015524853802727 1.1812500000000001 0.046876238411028934
v 0.059662134662614955 1.39375 0.05966213466261495
v 0.059662134662614955 1.1812500000000001 0.05966213466261495
v 0.04687623841102895 1.39375 0.07015524853802727
v 0.04687623841102895 1.1812500000000001 0.07015524853802727
v 0.03228891460580446 1.39375 0.07795233555563982
v 0.03228891460580446 1.1812500000000001 0.07795233555563982
v 0.01646074592011083 1.39375 0.08275375803402257
v 0.01646074592011083 1.1812500000000001 0.08275375803402257
v 5.1664786839028965e-18 1.39375 0.084375
v 5.1664786839028965e-18 1.1812500000000001 0.084375
v -0.016460745920110816 1.39375 0.08275375803402257
v -0.016460745920110816 1.1812500000000001 0.08275375803402257
v -0.03228891460580445 1.39375 0.07795233555563982
v -0.03228891460580445 1.1812500000000001 0.07795233555563982
v -0.04687623841102892 1.39375 0.07015524853802728
v -0.04687623841102892 1.1812500000000001 0.07015524853802728
v -0.05966213466261495 1.39375 0.059662134662614955
v -0.05966213466261495 1.1812500000000001 0.059662134662614955
v -0.07015524853802727 1.39375 0.046876238411028934
v -0.07015524853802727 1.1812500000000001 0.046876238411028934
v -0.07795233555563982 1.39375 0.032288914605804464
v -0.07795233555563982 1.1812500000000001 0.032288914605804464
v -0.08275375803402257 1.39375 0.01646074592011085
v -0.08275375803402257 1.1812500000000001 0.01646074592011085
v -0.084375 1.39375 1.0332957367805793e-17
v -0.084375 1.1812500000000001 1.0332957367805793e-17
v -0.08275375803402257 1.39375 -0.01646074592011083
v -0.08275375803402257 1.1812500000000001 -0.01646074592011083
v -0.07795233555563984 1.39375 -0.03228891460580444
v -0.07795233555563984 1.1812500000000001 -0.03228891460580444
v -0.07015524853802728 1.39375 -0.04687623841102892
v -0.07015524853802728 1.1812500000000001 -0.04687623841102892
v -0.05966213466261496 1.39375 -0.05966213466261495
v -0.05966213466261496 1.1812500000000001 -0.05966213466261495
v -0.046876238411028934 1.39375 -0.07015524853802727
v -0.046876238411028934 1.1812500000000001 -0.07015524853802727
v -0.0322889146058045 1.39375 -0.07795233555563981
v -0.0322889146058045 1.1812500000000001 -0.07795233555563981
v -0.016460745920110858 1.39375 -0.08275375803402256
v -0.016460745920110858 1.1812500000000001 -0.08275375803402256
v -1.549943605170869e-17 1.39375 -0.084375
v -1.549943605170869e-17 1.1812500000000001 -0.084375
v 0.016460745920110827 1.39375 -0.08275375803402257
v 0.016460745920110827 1.1812500000000001 -0.08275375803402257
v 0.03228891460580447 1.39375 -0.07795233555563981
v 0.03228891460580447 1.1812500000000001 -0.07795233555563981
v 0.046876238411028906 1.39375 -0.07015524853802728
v 0.046876238411028906 1.1812500000000001 -0.07015524853802728
v 0.059662134662614934 1.39375 -0.05966213466261496
v 0.059662134662614934 1.1812500000000001 -0.05966213466261496
v 0.07015524853802727 1.39375 -0.046876238411028934
v 0.07015524853802727 1.1812500000000001 -0.046876238411028934
v 0.07795233555563981 1.39375 -0.032288914605804506
v 0.07795233555563981 1.1812500000000001 -0.032288914605804506
v 0.08275375803402256 1.39375 -0.01646074592011086
v 0.08275375803402256 1.1812500000000001 -0.01646074592011086
vt 0.5 0.5
vt 0.5 0.5
vt 0.5 0.5
vt 0.5 0.5
vt 0.5 0.5
vt 0.5 0.5
vt 0.5 0.5
vt 0.5 0.5
vt 0.5 0.5
vt 0.5 0.5
vt 0.5 0.5
vt 0.5 0.5
vt 0.5 0.5
vt 0.5 0.5
vt 0.5 0.5
vt 0.5 0.5
vt 0.5 0.5
vt 0.5 0.5
vt 0.5 0.5
vt 0.5 0.5
vt 0.5 0.5
vt 0.5 0.5
vt 0.5 0.5
vt 0.5 0.5
vt 0.5 0.5
vt 0.5 0.5
vt 0.5 0.5
vt 0.5 0.5
vt 0.5 0.5
vt 0.5 0.5
vt 0.5 0.5
vt 0.5 0.5
vt 0.5 0.5
vt 0.5 0.5
vt 0.5 0.5
vt 0.5 0.5
vt 0.5 0.5
vt 0.5 0.5
vt 0.5 0.5
vt 0.5 0.5
vt 0.5 0.5
vt 0.5 0.5
vt 0.5 0.5
vt 0.5 0.5
vt 0.5 0.5
vt 0.5 0.5
vt 0.5 0.5
vt 0.5 0.5
vt 0.5 0.5
vt 0.5 0.5
vt 0.5 0.5
vt 0.5 0.5
vt 0.5 0.5
vt 0.5 0.5
vt 0.5 0.5
vt 0.5 0.5
vt 0.5 0.5
vt 0.5 0.5
vt 0.5 0.5
vt 0.5 0.5
vt 0.5 0.5
vt 0.5 0.5
vt 0.5 0.5
vt 0.5 0.5
vt 0.5 0.5
vt 0.5 0.5
vt 0.5 0.5
vt 0.5 0.5
vt 0.5 0.5
vt 0.5 0.5
vt 0.5 0.5
vt 0.5 0.5
vt 0.5 0.5
vt 0.5 0.5
vt 0.5 0.5
vt 0.5 0.5
vt 0.5 0.5
vt 0.5 0.5
vt 0.5 0.5
vt 0.5 0.5
vt 0.5 0.5
vt 0.5 0.5
vt 0.5 0.5
vt 0.5 0.5
vt 0.5 0.5
vt 0.5 0.5
vt 0.5 0.5
vt 0.5 0.5
vt 0.5 0.5
vt 0.5 0.5
vt 0.5 0.5
vt 0.5 0.5
vt 0.5 0.5
vt 0.5 0.5
vt 0.5 0.5
vt 0.5 0.5
vt 0.5 0.5
vt 0.5 0.5
vt 0.5 0.5
vt 0.5 0.5
vt 0.5 0.5
vt 0.5 0.5
vt 0.5 0.5
vt 0.5 0.5
vt 0.5 0.5
vt 0.5 0.5
vt 0.5 0.5
vt 0.5 0.5
vt 0.5 0.5
vt 0.5 0.5
vt 0.5 0.5
vt 0.5 0.5
vt 0.5 0.5
vt 0.5 0.5
vt 0.5 0.5
vt 0.5 0.5
vt 0.5 0.5
vt 0.5 0.5
vt 0.5 0.5
vt 0.5 0.5
vt 0.5 0.5
vt 0.5 0.5
vt 0.5 0.5
vt 0.5 0.5
vt 0.5 0.5
vt 0.5 0.5
vt 0.5 0.5
vt 0.5 0.5
vt 0.5 0.5
vt 0.5 0.5
vt 0.5 0.5
vt 0.5 0.5
vt 0.5 0.5
vt 0.5 0.5
vt 0.5 0.5
vt 0.5 0.5
vt 0.5 0.5
vt 0.5 0.5
vt 0.5 0.5
vt 0.5 0.5
vt 0.5 0.5
vt 0.5 0.5
vt 0.5 0.5
vt 0.5 0.5
vt 0.5 0.5
vt 0.5 0.5
vt 0.5 0.5
vt 0.5 0.5
vt 0.5 0.5
vt 0.5 0.5
vt 0.5 0.5
vt 0.5 0.5
vt 0.5 0.5
vt 0.5 0.5
vt 0.5 0.5
vt 0.5 0.5
vt 0.5 0.5
vt 0.5 0.5
vt 0.5 0.5
vt 0.5 0.5
vt 0.5 0.5
vt 0.5 0.5
vt 0.5 0.5
vt 0.5 0.5
vt 0.5 0.5
vt 0.5 0.5
vt 0.5 0.5
vt 0.5 0.5
vt 0.5 0.5
vt 0.5 0.5
vt 0.5 0.5
vt 0.5 0.5
vt 0.5 0.5
vt 0.5 0.5
vt 0.5 0.5
vt 0.5 0.5
vt 0.5 0.5
vt 0.5 0.5
vt 0.5 0.5
vt 0.5 0.5
vt 0.5 0.5
vt 0.5 0.5
vt 0.5 0.5
vt 0.5 0.5
vt 0.5 0.5
vt 0.5 0.5
vt 0.5 0.5
vt 0.5 0.5
vt 0.5 0.5
vt 0.5 0.5
vt 0.5 0.5
vt 0.5 0.5
vt 0.5 0.5
vt 0.5 0.5
vt 0.5 0.5
vt 0.5 0.5
vt 0.5 0.5
vt 0.5 0.5
vt 0.5 0.5
vt 0.5 0.5
vt 0.5 0.5
vt 0.5 0.5
vt 0.5 0.5
vt 0.5 0.5
vt 0.5 0.5
vt 0.5 0.5
vt 0.5 0.5
vt 0.5 0.5
vt 0.5 0.5
vt 0.5 0.5
vt 0.5 0.5
vt 0.5 0.5
vt 0.5 0.5
vt 0.5 0.5
vt 0.5 0.5
vt 0.5 0.5
vt 0.5 0.5
vt 0.5 0.5
vt 0.5 0.5
vt 0.5 0.5
vt 0.5 0.5
vt 0.5 0.5
vt 0.5 0.5
vt 0.5 0.5
vt 0.5 0.5
vt 0.5 0.5
vt 0.5 0.5
vt 0.5 0.5
vt 0.5 0.5
vt 0.5 0.5
vt 0.5 0.5
vt 0.5 0.5
vt 0.5 0.5
vt 0.5 0.5
vt 0.5 0.5
vt 0.5 0.5
vt 0.5 0.5
vt 0.5 0.5
vt 0.5 0.5
vt 0.5 0.5
vt 0.5 0.5
vt 0.5 0.5
vt 0.5 0.5
vt 0.5 0.5
vt 0.5 0.5
vt 0.5 0.5
vt 0.5 0.5
vt 0.5 0.5
vt 0.5 0.5
vt 0.5 0.5
vt 0.5 0.5
vt 0.5 0.5
vt 0.5 0.5
vt 0.5 0.5
vt 0.5 0.5
vt 0.5 0.5
vt 0.5 0.5
vt 0.5 0.5
vt 0.5 0.5
vt 0.5 0.5
vt 0.5 0.5
vt 0.5 0.5
vt 0.5 0.5
vt 0.5 0.5
vt 0.5 0.5
vt 0.5 0.5
vt 0.5 0.5
vt 0.5 0.5
vt 0.5 0.5
vt 0.5 0.5
vt 0.5 0.5
vt 0.5 0.5
vt 0.5 0.5
vt 0.5 0.5
vt 0.5 0.5
vt 0.5 0.5
vt 0.5 0.5
vt 0.5 0.5
vt 0.5 0.5
vt 0.5 0.5
vt 0.5 0.5
vt 0.5 0.5
vt 0.5 0.5
vt 0.5 0.5
vt 0.5 0.5
vt 0.5 0.5
vt 0.5 0.5
vt 0.5 0.5
vt 0.5 0.5
vt 0.5 0.5
vt 0.5 0.5
vt 0.5 0.5
vt 0.5 0.5
vt 0.5 0.5
vt 0.5 0.5
vt 0.5 0.5
vt 0.5 0.5
vt 0.5 0.5
vt 0.5 0.5
vt 0.5 0.5
vt 0.5 0.5
vt 0.5 0.5
vt 0.5 0.5
vt 0.5 0.5
vt 0.5 0.5
vt 0.5 0.5
vt 0.5 0.5
vt 0.5 0.5
vt 0.5 0.5
vt 0.5 0.5
vt 0.5 0.5
vt 0.5 0.5
vt 0.5 0.5
vt 0.5 0.5
vt 0.5 0.5
vt 0.5 0.5
vt 0.5 0.5
vt 0.5 0.5
vt 0.5 0.5
vt 0.5 0.5
vn -0.995184726672197 0 -0.09801714032956071
vn 0 -1 0
vn 0 1 0
vn -0.9569403357322089 0 -0.2902846772544624
vn 0 -1 0
vn 0 1 0
vn -0.8819212643483552 0 -0.4713967368259974
vn 0 -1 0
vn 0 1 0
vn -0.7730104533627371 0 -0.6343932841636456
vn 0 -1 0
vn 0 1 0
vn -0.6343932841636459 0 -0.7730104533627368
vn 0 -1 0
vn 0 1 0
vn -0.4713967368259972 0 -0.8819212643483553
vn 0 -1 0
vn 0 1 0
vn -0.2902846772544624 0 -0.9569403357322089
vn 0 -1 0
vn 0 1 0
vn -0.0980171403295607 0 -0.995184726672197
vn 0 -1 0
vn 0 1 0
vn 0.09801714032956073 0 -0.995184726672197
vn 0 -1 0
vn 0 1 0
vn 0.2902846772544623 0 -0.9569403357322089
vn 0 -1 0
vn 0 1 0
vn 0.47139673682599714 0 -0.8819212643483553
vn 0 -1 0
vn 0 1 0
vn 0.6343932841636457 0 -0.773010453362737
vn 0 -1 0
vn 0 1 0
vn 0.7730104533627371 0 -0.6343932841636456
vn 0 -1 0
vn 0 1 0
vn 0.8819212643483549 0 -0.4713967368259978
vn 0 -1 0
vn 0 1 0
vn 0.9569403357322089 0 -0.29028467725446266
vn 0 -1 0
vn 0 1 0
vn 0.995184726672197 0 -0.09801714032956062
vn 0 -1 0
vn 0 1 0
vn 0.995184726672197 0 0.09801714032956062
vn 0 -1 0
vn 0 1 0
vn 0.9569403357322092 0 0.29028467725446194
vn 0 -1 0
vn 0 1 0
vn 0.881921264348355 0 0.47139673682599753
vn 0 -1 0
vn 0 1 0
vn 0.7730104533627373 0 0.6343932841636454
vn 0 -1 0
vn 0 1 0
vn 0.6343932841636454 0 0.7730104533627373
vn 0 -1 0
vn 0 1 0
vn 0.47139673682599803 0 0.8819212643483548
vn 0 -1 0
vn 0 1 0
vn 0.2902846772544621 0 0.9569403357322089
vn 0 -1 0
vn 0 1 0
vn 0.09801714032956141 0 0.9951847266721968
vn 0 -1 0
vn 0 1 0
vn -0.09801714032956062 0 0.995184726672197
vn 0 -1 0
vn 0 1 0
vn -0.29028467725446283 0 0.9569403357322087
vn 0 -1 0
vn 0 1 0
vn -0.47139673682599736 0 0.8819212643483552
vn 0 -1 0
vn 0 1 0
vn -0.6343932841636454 0 0.7730104533627373
vn 0 -1 0
vn 0 1 0
vn -0.7730104533627367 0 0.6343932841636458
vn 0 -1 0
vn 0 1 0
vn -0.8819212643483549 0 0.47139673682599825
vn 0 -1 0
vn 0 1 0
vn -0.9569403357322089 0 0.29028467725446205
vn 0 -1 0
vn 0 1 0
vn -0.9951847266721969 0 0.09801714032956133
vn 0 -1 0
vn 0 1 0
usemtl m_fd6528dc-6890-b3c9-f9b5-33bf351960de
f 104/481/145 106/482/145 105/483/145 103/484/145
f 103/485/146 105/486/146 101/487/146
f 106/488/147 104/489/147 102/490/147
f 106/491/148 108/492/148 107/493/148 105/494/148
f 105/495/149 107/496/149 101/497/149
f 108/498/150 106/499/150 102/500/150
f 108/501/151 110/502/151 109/503/151 107/504/151
f 107/505/152 109/506/152 101/507/152
f 110/508/153 108/509/153 102/510/153
f 110/511/154 112/512/154 111/513/154 109/514/154
f 109/515/155 111/516/155 101/517/155
f 112/518/156 110/519/156 102/520/156
f 112/521/157 114/522/157 113/523/157 111/524/157
f 111/525/158 113/526/158 101/527/158
f 114/528/159 112/529/159 102/530/159
f 114/531/160 116/532/160 115/533/160 113/534/160
f 113/535/161 115/536/161 101/537/161
f 116/538/162 114/539/162 102/540/162
f 116/541/163 118/542/163 117/543/163 115/544/163
f 115/545/164 117/546/164 101/547/164
f 118/548/165 116/549/165 102/550/165
f 118/551/166 120/552/166 119/553/166 117/554/166
f 117/555/167 119/556/167 101/557/167
f 120/558/168 118/559/168 102/560/168
f 120/561/169 122/562/169 121/563/169 119/564/169
f 119/565/170 121/566/170 101/567/170
f 122/568/171 120/569/171 102/570/171
f 122/571/172 124/572/172 123/573/172 121/574/172
f 121/575/173 123/576/173 101/577/173
f 124/578/174 122/579/174 102/580/174
f 124/581/175 126/582/175 125/583/175 123/584/175
f 123/585/176 125/586/176 101/587/176
f 126/588/177 124/589/177 102/590/177
f 126/591/178 128/592/178 127/593/178 125/594/178
f 125/595/179 127/596/179 101/597/179
f 128/598/180 126/599/180 102/600/180
f 128/601/181 130/602/181 129/603/181 127/604/181
f 127/605/182 129/606/182 101/607/182
f 130/608/183 128/609/183 102/610/183
f 130/611/184 132/612/184 131/613/184 129/614/184
f 129/615/185 131/616/185 101/617/185
f 132/618/186 130/619/186 102/620/186
f 132/621/187 134/622/187 133/623/187 131/624/187
f 131/625/188 133/626/188 101/627/188
f 134/628/189 132/629/189 102/630/189
f 134/631/190 136/632/190 135/633/190 133/634/190
f 133/635/191 135/636/191 101/637/191
f 136/638/192 134/639/192 102/640/192
f 136/641/193 138/642/193 137/643/193 135/644/193
f 135/645/194 137/646/194 101/647/194
f 138/648/195 136/649/195 102/650/195
f 138/651/196 140/652/196 139/653/196 137/654/196
f 137/655/197 139/656/197 101/657/197
f 140/658/198 138/659/198 102/660/198
f 140/661/199 142/662/199 141/663/199 139/664/199
f 139/665/200 141/666/200 101/667/200
f 142/668/201 140/669/201 102/670/201
f 142/671/202 144/672/202 143/673/202 141/674/202
f 141/675/203 143/676/203 101/677/203
f 144/678/204 142/679/204 102/680/204
f 144/681/205 146/682/205 145/683/205 143/684/205
f 143/685/206 145/686/206 101/687/206
f 146/688/207 144/689/207 102/690/207
f 146/691/208 148/692/208 147/693/208 145/694/208
f 145/695/209 147/696/209 101/697/209
f 148/698/210 146/699/210 102/700/210
f 148/701/211 150/702/211 149/703/211 147/704/211
f 147/705/212 149/706/212 101/707/212
f 150/708/213 148/709/213 102/710/213
f 150/711/214 152/712/214 151/713/214 149/714/214
f 149/715/215 151/716/215 101/717/215
f 152/718/216 150/719/216 102/720/216
f 152/721/217 154/722/217 153/723/217 151/724/217
f 151/725/218 153/726/218 101/727/218
f 154/728/219 152/729/219 102/730/219
f 154/731/220 156/732/220 155/733/220 153/734/220
f 153/735/221 155/736/221 101/737/221
f 156/738/222 154/739/222 102/740/222
f 156/741/223 158/742/223 157/743/223 155/744/223
f 155/745/224 157/746/224 101/747/224
f 158/748/225 156/749/225 102/750/225
f 158/751/226 160/752/226 159/753/226 157/754/226
f 157/755/227 159/756/227 101/757/227
f 160/758/228 158/759/228 102/760/228
f 160/761/229 162/762/229 161/763/229 159/764/229
f 159/765/230 161/766/230 101/767/230
f 162/768/231 160/769/231 102/770/231
f 162/771/232 164/772/232 163/773/232 161/774/232
f 161/775/233 163/776/233 101/777/233
f 164/778/234 162/779/234 102/780/234
f 164/781/235 166/782/235 165/783/235 163/784/235
f 163/785/236 165/786/236 101/787/236
f 166/788/237 164/789/237 102/790/237
f 166/791/238 104/792/238 103/793/238 165/794/238
f 165/795/239 103/796/239 101/797/239
f 104/798/240 166/799/240 102/800/240
o switch_mount_ring_lower_trim
v 0 1.2125 0
v 0 1.15 0
v 0.090625 1.2125 0
v 0.090625 1.15 0
v 0.08888366603654275 1.2125 0.01768006043271162
v 0.08888366603654275 1.15 0.01768006043271162
v 0.08372658263383535 1.2125 0.03468068605808626
v 0.08372658263383535 1.15 0.03468068605808626
v 0.07535193361491815 1.2125 0.05034855236740145
v 0.07535193361491815 1.15 0.05034855236740145
v 0.06408155204503087 1.2125 0.06408155204503087
v 0.06408155204503087 1.15 0.06408155204503087
v 0.050348552367401454 1.2125 0.07535193361491815
v 0.050348552367401454 1.15 0.07535193361491815
v 0.03468068605808627 1.2125 0.08372658263383535
v 0.03468068605808627 1.15 0.08372658263383535
v 0.017680060432711628 1.2125 0.08888366603654275
v 0.017680060432711628 1.15 0.08888366603654275
v 5.549180808636444e-18 1.2125 0.090625
v 5.549180808636444e-18 1.15 0.090625
v -0.017680060432711617 1.2125 0.08888366603654275
v -0.017680060432711617 1.15 0.08888366603654275
v -0.03468068605808625 1.2125 0.08372658263383535
v -0.03468068605808625 1.15 0.08372658263383535
v -0.05034855236740143 1.2125 0.07535193361491818
v -0.05034855236740143 1.15 0.07535193361491818
v -0.06408155204503087 1.2125 0.06408155204503087
v -0.06408155204503087 1.15 0.06408155204503087
v -0.07535193361491817 1.2125 0.05034855236740145
v -0.07535193361491817 1.15 0.05034855236740145
v -0.08372658263383535 1.2125 0.03468068605808627
v -0.08372658263383535 1.15 0.03468068605808627
v -0.08888366603654275 1.2125 0.017680060432711656
v -0.08888366603654275 1.15 0.017680060432711656
v -0.090625 1.2125 1.1098361617272889e-17
v -0.090625 1.15 1.1098361617272889e-17
v -0.08888366603654275 1.2125 -0.01768006043271163
v -0.08888366603654275 1.15 -0.01768006043271163
v -0.08372658263383537 1.2125 -0.03468068605808625
v -0.08372658263383537 1.15 -0.03468068605808625
v -0.07535193361491818 1.2125 -0.05034855236740143
v -0.07535193361491818 1.15 -0.05034855236740143
v -0.06408155204503088 1.2125 -0.06408155204503087
v -0.06408155204503088 1.15 -0.06408155204503087
v -0.05034855236740145 1.2125 -0.07535193361491815
v -0.05034855236740145 1.15 -0.07535193361491815
v -0.03468068605808631 1.2125 -0.08372658263383534
v -0.03468068605808631 1.15 -0.08372658263383534
v -0.01768006043271166 1.2125 -0.08888366603654274
v -0.01768006043271166 1.15 -0.08888366603654274
v -1.6647542425909332e-17 1.2125 -0.090625
v -1.6647542425909332e-17 1.15 -0.090625
v 0.017680060432711628 1.2125 -0.08888366603654275
v 0.017680060432711628 1.15 -0.08888366603654275
v 0.03468068605808628 1.2125 -0.08372658263383535
v 0.03468068605808628 1.15 -0.08372658263383535
v 0.05034855236740141 1.2125 -0.07535193361491818
v 0.05034855236740141 1.15 -0.07535193361491818
v 0.06408155204503085 1.2125 -0.06408155204503088
v 0.06408155204503085 1.15 -0.06408155204503088
v 0.07535193361491815 1.2125 -0.05034855236740145
v 0.07535193361491815 1.15 -0.05034855236740145
v 0.08372658263383534 1.2125 -0.034680686058086316
v 0.08372658263383534 1.15 -0.034680686058086316
v 0.08888366603654274 1.2125 -0.017680060432711666
v 0.08888366603654274 1.15 -0.017680060432711666
vt 0.5 0.5
vt 0.5 0.5
vt 0.5 0.5
vt 0.5 0.5
vt 0.5 0.5
vt 0.5 0.5
vt 0.5 0.5
vt 0.5 0.5
vt 0.5 0.5
vt 0.5 0.5
vt 0.5 0.5
vt 0.5 0.5
vt 0.5 0.5
vt 0.5 0.5
vt 0.5 0.5
vt 0.5 0.5
vt 0.5 0.5
vt 0.5 0.5
vt 0.5 0.5
vt 0.5 0.5
vt 0.5 0.5
vt 0.5 0.5
vt 0.5 0.5
vt 0.5 0.5
vt 0.5 0.5
vt 0.5 0.5
vt 0.5 0.5
vt 0.5 0.5
vt 0.5 0.5
vt 0.5 0.5
vt 0.5 0.5
vt 0.5 0.5
vt 0.5 0.5
vt 0.5 0.5
vt 0.5 0.5
vt 0.5 0.5
vt 0.5 0.5
vt 0.5 0.5
vt 0.5 0.5
vt 0.5 0.5
vt 0.5 0.5
vt 0.5 0.5
vt 0.5 0.5
vt 0.5 0.5
vt 0.5 0.5
vt 0.5 0.5
vt 0.5 0.5
vt 0.5 0.5
vt 0.5 0.5
vt 0.5 0.5
vt 0.5 0.5
vt 0.5 0.5
vt 0.5 0.5
vt 0.5 0.5
vt 0.5 0.5
vt 0.5 0.5
vt 0.5 0.5
vt 0.5 0.5
vt 0.5 0.5
vt 0.5 0.5
vt 0.5 0.5
vt 0.5 0.5
vt 0.5 0.5
vt 0.5 0.5
vt 0.5 0.5
vt 0.5 0.5
vt 0.5 0.5
vt 0.5 0.5
vt 0.5 0.5
vt 0.5 0.5
vt 0.5 0.5
vt 0.5 0.5
vt 0.5 0.5
vt 0.5 0.5
vt 0.5 0.5
vt 0.5 0.5
vt 0.5 0.5
vt 0.5 0.5
vt 0.5 0.5
vt 0.5 0.5
vt 0.5 0.5
vt 0.5 0.5
vt 0.5 0.5
vt 0.5 0.5
vt 0.5 0.5
vt 0.5 0.5
vt 0.5 0.5
vt 0.5 0.5
vt 0.5 0.5
vt 0.5 0.5
vt 0.5 0.5
vt 0.5 0.5
vt 0.5 0.5
vt 0.5 0.5
vt 0.5 0.5
vt 0.5 0.5
vt 0.5 0.5
vt 0.5 0.5
vt 0.5 0.5
vt 0.5 0.5
vt 0.5 0.5
vt 0.5 0.5
vt 0.5 0.5
vt 0.5 0.5
vt 0.5 0.5
vt 0.5 0.5
vt 0.5 0.5
vt 0.5 0.5
vt 0.5 0.5
vt 0.5 0.5
vt 0.5 0.5
vt 0.5 0.5
vt 0.5 0.5
vt 0.5 0.5
vt 0.5 0.5
vt 0.5 0.5
vt 0.5 0.5
vt 0.5 0.5
vt 0.5 0.5
vt 0.5 0.5
vt 0.5 0.5
vt 0.5 0.5
vt 0.5 0.5
vt 0.5 0.5
vt 0.5 0.5
vt 0.5 0.5
vt 0.5 0.5
vt 0.5 0.5
vt 0.5 0.5
vt 0.5 0.5
vt 0.5 0.5
vt 0.5 0.5
vt 0.5 0.5
vt 0.5 0.5
vt 0.5 0.5
vt 0.5 0.5
vt 0.5 0.5
vt 0.5 0.5
vt 0.5 0.5
vt 0.5 0.5
vt 0.5 0.5
vt 0.5 0.5
vt 0.5 0.5
vt 0.5 0.5
vt 0.5 0.5
vt 0.5 0.5
vt 0.5 0.5
vt 0.5 0.5
vt 0.5 0.5
vt 0.5 0.5
vt 0.5 0.5
vt 0.5 0.5
vt 0.5 0.5
vt 0.5 0.5
vt 0.5 0.5
vt 0.5 0.5
vt 0.5 0.5
vt 0.5 0.5
vt 0.5 0.5
vt 0.5 0.5
vt 0.5 0.5
vt 0.5 0.5
vt 0.5 0.5
vt 0.5 0.5
vt 0.5 0.5
vt 0.5 0.5
vt 0.5 0.5
vt 0.5 0.5
vt 0.5 0.5
vt 0.5 0.5
vt 0.5 0.5
vt 0.5 0.5
vt 0.5 0.5
vt 0.5 0.5
vt 0.5 0.5
vt 0.5 0.5
vt 0.5 0.5
vt 0.5 0.5
vt 0.5 0.5
vt 0.5 0.5
vt 0.5 0.5
vt 0.5 0.5
vt 0.5 0.5
vt 0.5 0.5
vt 0.5 0.5
vt 0.5 0.5
vt 0.5 0.5
vt 0.5 0.5
vt 0.5 0.5
vt 0.5 0.5
vt 0.5 0.5
vt 0.5 0.5
vt 0.5 0.5
vt 0.5 0.5
vt 0.5 0.5
vt 0.5 0.5
vt 0.5 0.5
vt 0.5 0.5
vt 0.5 0.5
vt 0.5 0.5
vt 0.5 0.5
vt 0.5 0.5
vt 0.5 0.5
vt 0.5 0.5
vt 0.5 0.5
vt 0.5 0.5
vt 0.5 0.5
vt 0.5 0.5
vt 0.5 0.5
vt 0.5 0.5
vt 0.5 0.5
vt 0.5 0.5
vt 0.5 0.5
vt 0.5 0.5
vt 0.5 0.5
vt 0.5 0.5
vt 0.5 0.5
vt 0.5 0.5
vt 0.5 0.5
vt 0.5 0.5
vt 0.5 0.5
vt 0.5 0.5
vt 0.5 0.5
vt 0.5 0.5
vt 0.5 0.5
vt 0.5 0.5
vt 0.5 0.5
vt 0.5 0.5
vt 0.5 0.5
vt 0.5 0.5
vt 0.5 0.5
vt 0.5 0.5
vt 0.5 0.5
vt 0.5 0.5
vt 0.5 0.5
vt 0.5 0.5
vt 0.5 0.5
vt 0.5 0.5
vt 0.5 0.5
vt 0.5 0.5
vt 0.5 0.5
vt 0.5 0.5
vt 0.5 0.5
vt 0.5 0.5
vt 0.5 0.5
vt 0.5 0.5
vt 0.5 0.5
vt 0.5 0.5
vt 0.5 0.5
vt 0.5 0.5
vt 0.5 0.5
vt 0.5 0.5
vt 0.5 0.5
vt 0.5 0.5
vt 0.5 0.5
vt 0.5 0.5
vt 0.5 0.5
vt 0.5 0.5
vt 0.5 0.5
vt 0.5 0.5
vt 0.5 0.5
vt 0.5 0.5
vt 0.5 0.5
vt 0.5 0.5
vt 0.5 0.5
vt 0.5 0.5
vt 0.5 0.5
vt 0.5 0.5
vt 0.5 0.5
vt 0.5 0.5
vt 0.5 0.5
vt 0.5 0.5
vt 0.5 0.5
vt 0.5 0.5
vt 0.5 0.5
vt 0.5 0.5
vt 0.5 0.5
vt 0.5 0.5
vt 0.5 0.5
vt 0.5 0.5
vt 0.5 0.5
vt 0.5 0.5
vt 0.5 0.5
vt 0.5 0.5
vt 0.5 0.5
vt 0.5 0.5
vt 0.5 0.5
vt 0.5 0.5
vt 0.5 0.5
vt 0.5 0.5
vt 0.5 0.5
vt 0.5 0.5
vt 0.5 0.5
vt 0.5 0.5
vt 0.5 0.5
vt 0.5 0.5
vt 0.5 0.5
vt 0.5 0.5
vt 0.5 0.5
vt 0.5 0.5
vt 0.5 0.5
vt 0.5 0.5
vt 0.5 0.5
vt 0.5 0.5
vt 0.5 0.5
vt 0.5 0.5
vt 0.5 0.5
vt 0.5 0.5
vt 0.5 0.5
vt 0.5 0.5
vt 0.5 0.5
vt 0.5 0.5
vt 0.5 0.5
vt 0.5 0.5
vt 0.5 0.5
vt 0.5 0.5
vt 0.5 0.5
vt 0.5 0.5
vt 0.5 0.5
vt 0.5 0.5
vn -0.995184726672197 0 -0.09801714032956074
vn 0 -1 0
vn 0 1 0
vn -0.9569403357322088 0 -0.29028467725446255
vn 0 -1 0
vn 0 1 0
vn -0.881921264348355 0 -0.47139673682599775
vn 0 -1 0
vn 0 1 0
vn -0.7730104533627372 0 -0.6343932841636452
vn 0 -1 0
vn 0 1 0
vn -0.6343932841636455 0 -0.7730104533627371
vn 0 -1 0
vn 0 1 0
vn -0.47139673682599775 0 -0.881921264348355
vn 0 -1 0
vn 0 1 0
vn -0.29028467725446255 0 -0.9569403357322088
vn 0 -1 0
vn 0 1 0
vn -0.09801714032956074 0 -0.995184726672197
vn 0 -1 0
vn 0 1 0
vn 0.09801714032956071 0 -0.995184726672197
vn 0 -1 0
vn 0 1 0
vn 0.2902846772544626 0 -0.9569403357322088
vn 0 -1 0
vn 0 1 0
vn 0.4713967368259968 0 -0.8819212643483555
vn 0 -1 0
vn 0 1 0
vn 0.6343932841636456 0 -0.7730104533627371
vn 0 -1 0
vn 0 1 0
vn 0.773010453362737 0 -0.6343932841636457
vn 0 -1 0
vn 0 1 0
vn 0.8819212643483554 0 -0.47139673682599736
vn 0 -1 0
vn 0 1 0
vn 0.9569403357322087 0 -0.290284677254463
vn 0 -1 0
vn 0 1 0
vn 0.995184726672197 0 -0.0980171403295606
vn 0 -1 0
vn 0 1 0
vn 0.995184726672197 0 0.09801714032956062
vn 0 -1 0
vn 0 1 0
vn 0.9569403357322089 0 0.2902846772544621
vn 0 -1 0
vn 0 1 0
vn 0.8819212643483552 0 0.4713967368259974
vn 0 -1 0
vn 0 1 0
vn 0.7730104533627373 0 0.6343932841636452
vn 0 -1 0
vn 0 1 0
vn 0.6343932841636448 0 0.7730104533627375
vn 0 -1 0
vn 0 1 0
vn 0.47139673682599825 0 0.8819212643483547
vn 0 -1 0
vn 0 1 0
vn 0.29028467725446244 0 0.9569403357322089
vn 0 -1 0
vn 0 1 0
vn 0.09801714032956138 0 0.9951847266721968
vn 0 -1 0
vn 0 1 0
vn -0.0980171403295606 0 0.995184726672197
vn 0 -1 0
vn 0 1 0
vn -0.2902846772544624 0 0.956940335732209
vn 0 -1 0
vn 0 1 0
vn -0.47139673682599775 0 0.8819212643483549
vn 0 -1 0
vn 0 1 0
vn -0.6343932841636452 0 0.7730104533627373
vn 0 -1 0
vn 0 1 0
vn -0.7730104533627373 0 0.6343932841636454
vn 0 -1 0
vn 0 1 0
vn -0.8819212643483547 0 0.4713967368259984
vn 0 -1 0
vn 0 1 0
vn -0.9569403357322089 0 0.29028467725446244
vn 0 -1 0
vn 0 1 0
vn -0.9951847266721968 0 0.09801714032956124
vn 0 -1 0
vn 0 1 0
usemtl m_3be25f79-071f-aaae-ced0-88ed625c361a
f 170/801/241 172/802/241 171/803/241 169/804/241
f 169/805/242 171/806/242 167/807/242
f 172/808/243 170/809/243 168/810/243
f 172/811/244 174/812/244 173/813/244 171/814/244
f 171/815/245 173/816/245 167/817/245
f 174/818/246 172/819/246 168/820/246
f 174/821/247 176/822/247 175/823/247 173/824/247
f 173/825/248 175/826/248 167/827/248
f 176/828/249 174/829/249 168/830/249
f 176/831/250 178/832/250 177/833/250 175/834/250
f 175/835/251 177/836/251 167/837/251
f 178/838/252 176/839/252 168/840/252
f 178/841/253 180/842/253 179/843/253 177/844/253
f 177/845/254 179/846/254 167/847/254
f 180/848/255 178/849/255 168/850/255
f 180/851/256 182/852/256 181/853/256 179/854/256
f 179/855/257 181/856/257 167/857/257
f 182/858/258 180/859/258 168/860/258
f 182/861/259 184/862/259 183/863/259 181/864/259
f 181/865/260 183/866/260 167/867/260
f 184/868/261 182/869/261 168/870/261
f 184/871/262 186/872/262 185/873/262 183/874/262
f 183/875/263 185/876/263 167/877/263
f 186/878/264 184/879/264 168/880/264
f 186/881/265 188/882/265 187/883/265 185/884/265
f 185/885/266 187/886/266 167/887/266
f 188/888/267 186/889/267 168/890/267
f 188/891/268 190/892/268 189/893/268 187/894/268
f 187/895/269 189/896/269 167/897/269
f 190/898/270 188/899/270 168/900/270
f 190/901/271 192/902/271 191/903/271 189/904/271
f 189/905/272 191/906/272 167/907/272
f 192/908/273 190/909/273 168/910/273
f 192/911/274 194/912/274 193/913/274 191/914/274
f 191/915/275 193/916/275 167/917/275
f 194/918/276 192/919/276 168/920/276
f 194/921/277 196/922/277 195/923/277 193/924/277
f 193/925/278 195/926/278 167/927/278
f 196/928/279 194/929/279 168/930/279
f 196/931/280 198/932/280 197/933/280 195/934/280
f 195/935/281 197/936/281 167/937/281
f 198/938/282 196/939/282 168/940/282
f 198/941/283 200/942/283 199/943/283 197/944/283
f 197/945/284 199/946/284 167/947/284
f 200/948/285 198/949/285 168/950/285
f 200/951/286 202/952/286 201/953/286 199/954/286
f 199/955/287 201/956/287 167/957/287
f 202/958/288 200/959/288 168/960/288
f 202/961/289 204/962/289 203/963/289 201/964/289
f 201/965/290 203/966/290 167/967/290
f 204/968/291 202/969/291 168/970/291
f 204/971/292 206/972/292 205/973/292 203/974/292
f 203/975/293 205/976/293 167/977/293
f 206/978/294 204/979/294 168/980/294
f 206/981/295 208/982/295 207/983/295 205/984/295
f 205/985/296 207/986/296 167/987/296
f 208/988/297 206/989/297 168/990/297
f 208/991/298 210/992/298 209/993/298 207/994/298
f 207/995/299 209/996/299 167/997/299
f 210/998/300 208/999/300 168/1000/300
f 210/1001/301 212/1002/301 211/1003/301 209/1004/301
f 209/1005/302 211/1006/302 167/1007/302
f 212/1008/303 210/1009/303 168/1010/303
f 212/1011/304 214/1012/304 213/1013/304 211/1014/304
f 211/1015/305 213/1016/305 167/1017/305
f 214/1018/306 212/1019/306 168/1020/306
f 214/1021/307 216/1022/307 215/1023/307 213/1024/307
f 213/1025/308 215/1026/308 167/1027/308
f 216/1028/309 214/1029/309 168/1030/309
f 216/1031/310 218/1032/310 217/1033/310 215/1034/310
f 215/1035/311 217/1036/311 167/1037/311
f 218/1038/312 216/1039/312 168/1040/312
f 218/1041/313 220/1042/313 219/1043/313 217/1044/313
f 217/1045/314 219/1046/314 167/1047/314
f 220/1048/315 218/1049/315 168/1050/315
f 220/1051/316 222/1052/316 221/1053/316 219/1054/316
f 219/1055/317 221/1056/317 167/1057/317
f 222/1058/318 220/1059/318 168/1060/318
f 222/1061/319 224/1062/319 223/1063/319 221/1064/319
f 221/1065/320 223/1066/320 167/1067/320
f 224/1068/321 222/1069/321 168/1070/321
f 224/1071/322 226/1072/322 225/1073/322 223/1074/322
f 223/1075/323 225/1076/323 167/1077/323
f 226/1078/324 224/1079/324 168/1080/324
f 226/1081/325 228/1082/325 227/1083/325 225/1084/325
f 225/1085/326 227/1086/326 167/1087/326
f 228/1088/327 226/1089/327 168/1090/327
f 228/1091/328 230/1092/328 229/1093/328 227/1094/328
f 227/1095/329 229/1096/329 167/1097/329
f 230/1098/330 228/1099/330 168/1100/330
f 230/1101/331 232/1102/331 231/1103/331 229/1104/331
f 229/1105/332 231/1106/332 167/1107/332
f 232/1108/333 230/1109/333 168/1110/333
f 232/1111/334 170/1112/334 169/1113/334 231/1114/334
f 231/1115/335 169/1116/335 167/1117/335
f 170/1118/336 232/1119/336 168/1120/336
o switch_mount_ring_upper_trim
v 0 1.425 0
v 0 1.3625 0
v 0.090625 1.425 0
v 0.090625 1.3625 0
v 0.08888366603654275 1.425 0.01768006043271162
v 0.08888366603654275 1.3625 0.01768006043271162
v 0.08372658263383535 1.425 0.03468068605808626
v 0.08372658263383535 1.3625 0.03468068605808626
v 0.07535193361491815 1.425 0.05034855236740145
v 0.07535193361491815 1.3625 0.05034855236740145
v 0.06408155204503087 1.425 0.06408155204503087
v 0.06408155204503087 1.3625 0.06408155204503087
v 0.050348552367401454 1.425 0.07535193361491815
v 0.050348552367401454 1.3625 0.07535193361491815
v 0.03468068605808627 1.425 0.08372658263383535
v 0.03468068605808627 1.3625 0.08372658263383535
v 0.017680060432711628 1.425 0.08888366603654275
v 0.017680060432711628 1.3625 0.08888366603654275
v 5.549180808636444e-18 1.425 0.090625
v 5.549180808636444e-18 1.3625 0.090625
v -0.017680060432711617 1.425 0.08888366603654275
v -0.017680060432711617 1.3625 0.08888366603654275
v -0.03468068605808625 1.425 0.08372658263383535
v -0.03468068605808625 1.3625 0.08372658263383535
v -0.05034855236740143 1.425 0.07535193361491818
v -0.05034855236740143 1.3625 0.07535193361491818
v -0.06408155204503087 1.425 0.06408155204503087
v -0.06408155204503087 1.3625 0.06408155204503087
v -0.07535193361491817 1.425 0.05034855236740145
v -0.07535193361491817 1.3625 0.05034855236740145
v -0.08372658263383535 1.425 0.03468068605808627
v -0.08372658263383535 1.3625 0.03468068605808627
v -0.08888366603654275 1.425 0.017680060432711656
v -0.08888366603654275 1.3625 0.017680060432711656
v -0.090625 1.425 1.1098361617272889e-17
v -0.090625 1.3625 1.1098361617272889e-17
v -0.08888366603654275 1.425 -0.01768006043271163
v -0.08888366603654275 1.3625 -0.01768006043271163
v -0.08372658263383537 1.425 -0.03468068605808625
v -0.08372658263383537 1.3625 -0.03468068605808625
v -0.07535193361491818 1.425 -0.05034855236740143
v -0.07535193361491818 1.3625 -0.05034855236740143
v -0.06408155204503088 1.425 -0.06408155204503087
v -0.06408155204503088 1.3625 -0.06408155204503087
v -0.05034855236740145 1.425 -0.07535193361491815
v -0.05034855236740145 1.3625 -0.07535193361491815
v -0.03468068605808631 1.425 -0.08372658263383534
v -0.03468068605808631 1.3625 -0.08372658263383534
v -0.01768006043271166 1.425 -0.08888366603654274
v -0.01768006043271166 1.3625 -0.08888366603654274
v -1.6647542425909332e-17 1.425 -0.090625
v -1.6647542425909332e-17 1.3625 -0.090625
v 0.017680060432711628 1.425 -0.08888366603654275
v 0.017680060432711628 1.3625 -0.08888366603654275
v 0.03468068605808628 1.425 -0.08372658263383535
v 0.03468068605808628 1.3625 -0.08372658263383535
v 0.05034855236740141 1.425 -0.07535193361491818
v 0.05034855236740141 1.3625 -0.07535193361491818
v 0.06408155204503085 1.425 -0.06408155204503088
v 0.06408155204503085 1.3625 -0.06408155204503088
v 0.07535193361491815 1.425 -0.05034855236740145
v 0.07535193361491815 1.3625 -0.05034855236740145
v 0.08372658263383534 1.425 -0.034680686058086316
v 0.08372658263383534 1.3625 -0.034680686058086316
v 0.08888366603654274 1.425 -0.017680060432711666
v 0.08888366603654274 1.3625 -0.017680060432711666
vt 0.5 0.5
vt 0.5 0.5
vt 0.5 0.5
vt 0.5 0.5
vt 0.5 0.5
vt 0.5 0.5
vt 0.5 0.5
vt 0.5 0.5
vt 0.5 0.5
vt 0.5 0.5
vt 0.5 0.5
vt 0.5 0.5
vt 0.5 0.5
vt 0.5 0.5
vt 0.5 0.5
vt 0.5 0.5
vt 0.5 0.5
vt 0.5 0.5
vt 0.5 0.5
vt 0.5 0.5
vt 0.5 0.5
vt 0.5 0.5
vt 0.5 0.5
vt 0.5 0.5
vt 0.5 0.5
vt 0.5 0.5
vt 0.5 0.5
vt 0.5 0.5
vt 0.5 0.5
vt 0.5 0.5
vt 0.5 0.5
vt 0.5 0.5
vt 0.5 0.5
vt 0.5 0.5
vt 0.5 0.5
vt 0.5 0.5
vt 0.5 0.5
vt 0.5 0.5
vt 0.5 0.5
vt 0.5 0.5
vt 0.5 0.5
vt 0.5 0.5
vt 0.5 0.5
vt 0.5 0.5
vt 0.5 0.5
vt 0.5 0.5
vt 0.5 0.5
vt 0.5 0.5
vt 0.5 0.5
vt 0.5 0.5
vt 0.5 0.5
vt 0.5 0.5
vt 0.5 0.5
vt 0.5 0.5
vt 0.5 0.5
vt 0.5 0.5
vt 0.5 0.5
vt 0.5 0.5
vt 0.5 0.5
vt 0.5 0.5
vt 0.5 0.5
vt 0.5 0.5
vt 0.5 0.5
vt 0.5 0.5
vt 0.5 0.5
vt 0.5 0.5
vt 0.5 0.5
vt 0.5 0.5
vt 0.5 0.5
vt 0.5 0.5
vt 0.5 0.5
vt 0.5 0.5
vt 0.5 0.5
vt 0.5 0.5
vt 0.5 0.5
vt 0.5 0.5
vt 0.5 0.5
vt 0.5 0.5
vt 0.5 0.5
vt 0.5 0.5
vt 0.5 0.5
vt 0.5 0.5
vt 0.5 0.5
vt 0.5 0.5
vt 0.5 0.5
vt 0.5 0.5
vt 0.5 0.5
vt 0.5 0.5
vt 0.5 0.5
vt 0.5 0.5
vt 0.5 0.5
vt 0.5 0.5
vt 0.5 0.5
vt 0.5 0.5
vt 0.5 0.5
vt 0.5 0.5
vt 0.5 0.5
vt 0.5 0.5
vt 0.5 0.5
vt 0.5 0.5
vt 0.5 0.5
vt 0.5 0.5
vt 0.5 0.5
vt 0.5 0.5
vt 0.5 0.5
vt 0.5 0.5
vt 0.5 0.5
vt 0.5 0.5
vt 0.5 0.5
vt 0.5 0.5
vt 0.5 0.5
vt 0.5 0.5
vt 0.5 0.5
vt 0.5 0.5
vt 0.5 0.5
vt 0.5 0.5
vt 0.5 0.5
vt 0.5 0.5
vt 0.5 0.5
vt 0.5 0.5
vt 0.5 0.5
vt 0.5 0.5
vt 0.5 0.5
vt 0.5 0.5
vt 0.5 0.5
vt 0.5 0.5
vt 0.5 0.5
vt 0.5 0.5
vt 0.5 0.5
vt 0.5 0.5
vt 0.5 0.5
vt 0.5 0.5
vt 0.5 0.5
vt 0.5 0.5
vt 0.5 0.5
vt 0.5 0.5
vt 0.5 0.5
vt 0.5 0.5
vt 0.5 0.5
vt 0.5 0.5
vt 0.5 0.5
vt 0.5 0.5
vt 0.5 0.5
vt 0.5 0.5
vt 0.5 0.5
vt 0.5 0.5
vt 0.5 0.5
vt 0.5 0.5
vt 0.5 0.5
vt 0.5 0.5
vt 0.5 0.5
vt 0.5 0.5
vt 0.5 0.5
vt 0.5 0.5
vt 0.5 0.5
vt 0.5 0.5
vt 0.5 0.5
vt 0.5 0.5
vt 0.5 0.5
vt 0.5 0.5
vt 0.5 0.5
vt 0.5 0.5
vt 0.5 0.5
vt 0.5 0.5
vt 0.5 0.5
vt 0.5 0.5
vt 0.5 0.5
vt 0.5 0.5
vt 0.5 0.5
vt 0.5 0.5
vt 0.5 0.5
vt 0.5 0.5
vt 0.5 0.5
vt 0.5 0.5
vt 0.5 0.5
vt 0.5 0.5
vt 0.5 0.5
vt 0.5 0.5
vt 0.5 0.5
vt 0.5 0.5
vt 0.5 0.5
vt 0.5 0.5
vt 0.5 0.5
vt 0.5 0.5
vt 0.5 0.5
vt 0.5 0.5
vt 0.5 0.5
vt 0.5 0.5
vt 0.5 0.5
vt 0.5 0.5
vt 0.5 0.5
vt 0.5 0.5
vt 0.5 0.5
vt 0.5 0.5
vt 0.5 0.5
vt 0.5 0.5
vt 0.5 0.5
vt 0.5 0.5
vt 0.5 0.5
vt 0.5 0.5
vt 0.5 0.5
vt 0.5 0.5
vt 0.5 0.5
vt 0.5 0.5
vt 0.5 0.5
vt 0.5 0.5
vt 0.5 0.5
vt 0.5 0.5
vt 0.5 0.5
vt 0.5 0.5
vt 0.5 0.5
vt 0.5 0.5
vt 0.5 0.5
vt 0.5 0.5
vt 0.5 0.5
vt 0.5 0.5
vt 0.5 0.5
vt 0.5 0.5
vt 0.5 0.5
vt 0.5 0.5
vt 0.5 0.5
vt 0.5 0.5
vt 0.5 0.5
vt 0.5 0.5
vt 0.5 0.5
vt 0.5 0.5
vt 0.5 0.5
vt 0.5 0.5
vt 0.5 0.5
vt 0.5 0.5
vt 0.5 0.5
vt 0.5 0.5
vt 0.5 0.5
vt 0.5 0.5
vt 0.5 0.5
vt 0.5 0.5
vt 0.5 0.5
vt 0.5 0.5
vt 0.5 0.5
vt 0.5 0.5
vt 0.5 0.5
vt 0.5 0.5
vt 0.5 0.5
vt 0.5 0.5
vt 0.5 0.5
vt 0.5 0.5
vt 0.5 0.5
vt 0.5 0.5
vt 0.5 0.5
vt 0.5 0.5
vt 0.5 0.5
vt 0.5 0.5
vt 0.5 0.5
vt 0.5 0.5
vt 0.5 0.5
vt 0.5 0.5
vt 0.5 0.5
vt 0.5 0.5
vt 0.5 0.5
vt 0.5 0.5
vt 0.5 0.5
vt 0.5 0.5
vt 0.5 0.5
vt 0.5 0.5
vt 0.5 0.5
vt 0.5 0.5
vt 0.5 0.5
vt 0.5 0.5
vt 0.5 0.5
vt 0.5 0.5
vt 0.5 0.5
vt 0.5 0.5
vt 0.5 0.5
vt 0.5 0.5
vt 0.5 0.5
vt 0.5 0.5
vt 0.5 0.5
vt 0.5 0.5
vt 0.5 0.5
vt 0.5 0.5
vt 0.5 0.5
vt 0.5 0.5
vt 0.5 0.5
vt 0.5 0.5
vt 0.5 0.5
vt 0.5 0.5
vt 0.5 0.5
vt 0.5 0.5
vt 0.5 0.5
vt 0.5 0.5
vt 0.5 0.5
vt 0.5 0.5
vt 0.5 0.5
vt 0.5 0.5
vt 0.5 0.5
vt 0.5 0.5
vt 0.5 0.5
vt 0.5 0.5
vt 0.5 0.5
vt 0.5 0.5
vt 0.5 0.5
vt 0.5 0.5
vt 0.5 0.5
vt 0.5 0.5
vt 0.5 0.5
vt 0.5 0.5
vt 0.5 0.5
vt 0.5 0.5
vt 0.5 0.5
vt 0.5 0.5
vt 0.5 0.5
vt 0.5 0.5
vt 0.5 0.5
vt 0.5 0.5
vt 0.5 0.5
vt 0.5 0.5
vt 0.5 0.5
vt 0.5 0.5
vt 0.5 0.5
vt 0.5 0.5
vn -0.995184726672197 0 -0.09801714032956074
vn 0 -1 0
vn 0 1 0
vn -0.9569403357322088 0 -0.29028467725446255
vn 0 -1 0
vn 0 1 0
vn -0.881921264348355 0 -0.47139673682599775
vn 0 -1 0
vn 0 1 0
vn -0.7730104533627372 0 -0.6343932841636452
vn 0 -1 0
vn 0 1 0
vn -0.6343932841636455 0 -0.7730104533627371
vn 0 -1 0
vn 0 1 0
vn -0.47139673682599775 0 -0.881921264348355
vn 0 -1 0
vn 0 1 0
vn -0.29028467725446255 0 -0.9569403357322088
vn 0 -1 0
vn 0 1 0
vn -0.09801714032956074 0 -0.995184726672197
vn 0 -1 0
vn 0 1 0
vn 0.09801714032956071 0 -0.995184726672197
vn 0 -1 0
vn 0 1 0
vn 0.2902846772544626 0 -0.9569403357322088
vn 0 -1 0
vn 0 1 0
vn 0.4713967368259968 0 -0.8819212643483555
vn 0 -1 0
vn 0 1 0
vn 0.6343932841636456 0 -0.7730104533627371
vn 0 -1 0
vn 0 1 0
vn 0.773010453362737 0 -0.6343932841636457
vn 0 -1 0
vn 0 1 0
vn 0.8819212643483554 0 -0.47139673682599736
vn 0 -1 0
vn 0 1 0
vn 0.9569403357322087 0 -0.290284677254463
vn 0 -1 0
vn 0 1 0
vn 0.995184726672197 0 -0.0980171403295606
vn 0 -1 0
vn 0 1 0
vn 0.995184726672197 0 0.09801714032956062
vn 0 -1 0
vn 0 1 0
vn 0.9569403357322089 0 0.2902846772544621
vn 0 -1 0
vn 0 1 0
vn 0.8819212643483552 0 0.4713967368259974
vn 0 -1 0
vn 0 1 0
vn 0.7730104533627373 0 0.6343932841636452
vn 0 -1 0
vn 0 1 0
vn 0.6343932841636448 0 0.7730104533627375
vn 0 -1 0
vn 0 1 0
vn 0.47139673682599825 0 0.8819212643483547
vn 0 -1 0
vn 0 1 0
vn 0.29028467725446244 0 0.9569403357322089
vn 0 -1 0
vn 0 1 0
vn 0.09801714032956138 0 0.9951847266721968
vn 0 -1 0
vn 0 1 0
vn -0.0980171403295606 0 0.995184726672197
vn 0 -1 0
vn 0 1 0
vn -0.2902846772544624 0 0.956940335732209
vn 0 -1 0
vn 0 1 0
vn -0.47139673682599775 0 0.8819212643483549
vn 0 -1 0
vn 0 1 0
vn -0.6343932841636452 0 0.7730104533627373
vn 0 -1 0
vn 0 1 0
vn -0.7730104533627373 0 0.6343932841636454
vn 0 -1 0
vn 0 1 0
vn -0.8819212643483547 0 0.4713967368259984
vn 0 -1 0
vn 0 1 0
vn -0.9569403357322089 0 0.29028467725446244
vn 0 -1 0
vn 0 1 0
vn -0.9951847266721968 0 0.09801714032956124
vn 0 -1 0
vn 0 1 0
usemtl m_3be25f79-071f-aaae-ced0-88ed625c361a
f 236/1121/337 238/1122/337 237/1123/337 235/1124/337
f 235/1125/338 237/1126/338 233/1127/338
f 238/1128/339 236/1129/339 234/1130/339
f 238/1131/340 240/1132/340 239/1133/340 237/1134/340
f 237/1135/341 239/1136/341 233/1137/341
f 240/1138/342 238/1139/342 234/1140/342
f 240/1141/343 242/1142/343 241/1143/343 239/1144/343
f 239/1145/344 241/1146/344 233/1147/344
f 242/1148/345 240/1149/345 234/1150/345
f 242/1151/346 244/1152/346 243/1153/346 241/1154/346
f 241/1155/347 243/1156/347 233/1157/347
f 244/1158/348 242/1159/348 234/1160/348
f 244/1161/349 246/1162/349 245/1163/349 243/1164/349
f 243/1165/350 245/1166/350 233/1167/350
f 246/1168/351 244/1169/351 234/1170/351
f 246/1171/352 248/1172/352 247/1173/352 245/1174/352
f 245/1175/353 247/1176/353 233/1177/353
f 248/1178/354 246/1179/354 234/1180/354
f 248/1181/355 250/1182/355 249/1183/355 247/1184/355
f 247/1185/356 249/1186/356 233/1187/356
f 250/1188/357 248/1189/357 234/1190/357
f 250/1191/358 252/1192/358 251/1193/358 249/1194/358
f 249/1195/359 251/1196/359 233/1197/359
f 252/1198/360 250/1199/360 234/1200/360
f 252/1201/361 254/1202/361 253/1203/361 251/1204/361
f 251/1205/362 253/1206/362 233/1207/362
f 254/1208/363 252/1209/363 234/1210/363
f 254/1211/364 256/1212/364 255/1213/364 253/1214/364
f 253/1215/365 255/1216/365 233/1217/365
f 256/1218/366 254/1219/366 234/1220/366
f 256/1221/367 258/1222/367 257/1223/367 255/1224/367
f 255/1225/368 257/1226/368 233/1227/368
f 258/1228/369 256/1229/369 234/1230/369
f 258/1231/370 260/1232/370 259/1233/370 257/1234/370
f 257/1235/371 259/1236/371 233/1237/371
f 260/1238/372 258/1239/372 234/1240/372
f 260/1241/373 262/1242/373 261/1243/373 259/1244/373
f 259/1245/374 261/1246/374 233/1247/374
f 262/1248/375 260/1249/375 234/1250/375
f 262/1251/376 264/1252/376 263/1253/376 261/1254/376
f 261/1255/377 263/1256/377 233/1257/377
f 264/1258/378 262/1259/378 234/1260/378
f 264/1261/379 266/1262/379 265/1263/379 263/1264/379
f 263/1265/380 265/1266/380 233/1267/380
f 266/1268/381 264/1269/381 234/1270/381
f 266/1271/382 268/1272/382 267/1273/382 265/1274/382
f 265/1275/383 267/1276/383 233/1277/383
f 268/1278/384 266/1279/384 234/1280/384
f 268/1281/385 270/1282/385 269/1283/385 267/1284/385
f 267/1285/386 269/1286/386 233/1287/386
f 270/1288/387 268/1289/387 234/1290/387
f 270/1291/388 272/1292/388 271/1293/388 269/1294/388
f 269/1295/389 271/1296/389 233/1297/389
f 272/1298/390 270/1299/390 234/1300/390
f 272/1301/391 274/1302/391 273/1303/391 271/1304/391
f 271/1305/392 273/1306/392 233/1307/392
f 274/1308/393 272/1309/393 234/1310/393
f 274/1311/394 276/1312/394 275/1313/394 273/1314/394
f 273/1315/395 275/1316/395 233/1317/395
f 276/1318/396 274/1319/396 234/1320/396
f 276/1321/397 278/1322/397 277/1323/397 275/1324/397
f 275/1325/398 277/1326/398 233/1327/398
f 278/1328/399 276/1329/399 234/1330/399
f 278/1331/400 280/1332/400 279/1333/400 277/1334/400
f 277/1335/401 279/1336/401 233/1337/401
f 280/1338/402 278/1339/402 234/1340/402
f 280/1341/403 282/1342/403 281/1343/403 279/1344/403
f 279/1345/404 281/1346/404 233/1347/404
f 282/1348/405 280/1349/405 234/1350/405
f 282/1351/406 284/1352/406 283/1353/406 281/1354/406
f 281/1355/407 283/1356/407 233/1357/407
f 284/1358/408 282/1359/408 234/1360/408
f 284/1361/409 286/1362/409 285/1363/409 283/1364/409
f 283/1365/410 285/1366/410 233/1367/410
f 286/1368/411 284/1369/411 234/1370/411
f 286/1371/412 288/1372/412 287/1373/412 285/1374/412
f 285/1375/413 287/1376/413 233/1377/413
f 288/1378/414 286/1379/414 234/1380/414
f 288/1381/415 290/1382/415 289/1383/415 287/1384/415
f 287/1385/416 289/1386/416 233/1387/416
f 290/1388/417 288/1389/417 234/1390/417
f 290/1391/418 292/1392/418 291/1393/418 289/1394/418
f 289/1395/419 291/1396/419 233/1397/419
f 292/1398/420 290/1399/420 234/1400/420
f 292/1401/421 294/1402/421 293/1403/421 291/1404/421
f 291/1405/422 293/1406/422 233/1407/422
f 294/1408/423 292/1409/423 234/1410/423
f 294/1411/424 296/1412/424 295/1413/424 293/1414/424
f 293/1415/425 295/1416/425 233/1417/425
f 296/1418/426 294/1419/426 234/1420/426
f 296/1421/427 298/1422/427 297/1423/427 295/1424/427
f 295/1425/428 297/1426/428 233/1427/428
f 298/1428/429 296/1429/429 234/1430/429
f 298/1431/430 236/1432/430 235/1433/430 297/1434/430
f 297/1435/431 235/1436/431 233/1437/431
f 236/1438/432 298/1439/432 234/1440/432
o switch_housing
v 0.0388311 1.38125 0.08968134999999997
v 0.0388311 1.38125 0.06934125
v 0.0388311 1.19375 0.08968134999999997
v 0.0388311 1.19375 0.06934125
v -0.0388311 1.38125 0.06934125
v -0.0388311 1.38125 0.08968134999999997
v -0.0388311 1.19375 0.06934125
v -0.0388311 1.19375 0.08968134999999997
vt 0.5 0.5
vt 0.5 0.5
vt 0.5 0.5
vt 0.5 0.5
vt 0.5 0.5
vt 0.5 0.5
vt 0.5 0.5
vt 0.5 0.5
vt 0.5 0.5
vt 0.5 0.5
vt 0.5 0.5
vt 0.5 0.5
vt 0.5 0.5
vt 0.5 0.5
vt 0.5 0.5
vt 0.5 0.5
vt 0.5 0.5
vt 0.5 0.5
vt 0.5 0.5
vt 0.5 0.5
vt 0.5 0.5
vt 0.5 0.5
vt 0.5 0.5
vt 0.5 0.5
vn 0 0 -1
vn 1 0 0
vn 0 0 1
vn -1 0 0
vn 0 1 0
vn 0 -1 0
usemtl m_3be25f79-071f-aaae-ced0-88ed625c361a
f 302/1444/433 305/1443/433 303/1442/433 300/1441/433
f 301/1448/434 302/1447/434 300/1446/434 299/1445/434
f 306/1452/435 301/1451/435 299/1450/435 304/1449/435
f 305/1456/436 306/1455/436 304/1454/436 303/1453/436
f 304/1460/437 299/1459/437 300/1458/437 303/1457/437
f 305/1464/438 302/1463/438 301/1462/438 306/1461/438
o activation_switch
v 0.021264649999999996 1.3499999999999999 0.10022121999999997
v 0.021264649999999996 1.3499999999999999 0.08468877999999999
v 0.021264649999999996 1.2375 0.10022121999999997
v 0.021264649999999996 1.2375 0.08468877999999999
v -0.021264649999999996 1.3499999999999999 0.08468877999999999
v -0.021264649999999996 1.3499999999999999 0.10022121999999997
v -0.021264649999999996 1.2375 0.08468877999999999
v -0.021264649999999996 1.2375 0.10022121999999997
vt 0.5 0.5
vt 0.5 0.5
vt 0.5 0.5
vt 0.5 0.5
vt 0.5 0.5
vt 0.5 0.5
vt 0.5 0.5
vt 0.5 0.5
vt 0.5 0.5
vt 0.5 0.5
vt 0.5 0.5
vt 0.5 0.5
vt 0.5 0.5
vt 0.5 0.5
vt 0.5 0.5
vt 0.5 0.5
vt 0.5 0.5
vt 0.5 0.5
vt 0.5 0.5
vt 0.5 0.5
vt 0.5 0.5
vt 0.5 0.5
vt 0.5 0.5
vt 0.5 0.5
vn 0 0 -1
vn 1 0 0
vn 0 0 1
vn -1 0 0
vn 0 1 0
vn 0 -1 0
usemtl m_a41a28c3-2684-0339-7eaf-45ba19cc812d
f 310/1468/439 313/1467/439 311/1466/439 308/1465/439
f 309/1472/440 310/1471/440 308/1470/440 307/1469/440
f 314/1476/441 309/1475/441 307/1474/441 312/1473/441
f 313/1480/442 314/1479/442 312/1478/442 311/1477/442
f 312/1484/443 307/1483/443 308/1482/443 311/1481/443
f 313/1488/444 310/1487/444 309/1486/444 314/1485/444